<svg xmlns="http://www.w3.org/2000/svg" viewBox="3868.5 1453.354 314.794 232.1">
  <defs>
    <style>
      .cls-1, .cls-7, .cls-9 {
        fill: #333;
      }

      .cls-1, .cls-2, .cls-4 {
        stroke: #333;
      }

      .cls-1 {
        stroke-width: 29px;
      }

      .cls-2, .cls-4, .cls-5, .cls-6, .cls-8 {
        fill: #fff;
      }

      .cls-2 {
        stroke-width: 3px;
      }

      .cls-3 {
        fill: none;
        stroke-width: 10px;
      }

      .cls-3, .cls-5, .cls-6, .cls-7 {
        stroke: #fff;
      }

      .cls-4, .cls-6 {
        stroke-width: 2px;
      }

      .cls-5, .cls-7 {
        stroke-width: 1px;
      }

      .cls-8 {
        font-size: 30px;
        font-family: Abolition-Regular, Abolition;
      }
    </style>
  </defs>
  <g id="group-18" transform="translate(3868.5 1449.995)">
    <ellipse id="ellipse" class="cls-1" cx="142.897" cy="95.181" rx="142.897" ry="95.181" transform="translate(14.5 28.658)"/>
    <path id="path" class="cls-2" d="M77,33.583l24.528,47.591c60.182-28.174,125.1-31.6,196.129-2.711,0,0,17.453-29.92,26.148-44.879C323.836,30.154,205.56-28.968,77,33.583Z" transform="translate(-43.021 0)"/>
    <path id="path-2" data-name="path" class="cls-2" d="M213.358,610.6,204.6,637.247s81.281,30.387,166.147,0L361.709,610.6S289.434,633.507,213.358,610.6Z" transform="translate(-130.853 -416.854)"/>
    <circle id="ellipse-2" data-name="ellipse" class="cls-3" cx="23.811" cy="23.811" r="23.811" transform="translate(65.145 125.803)"/>
    <circle id="ellipse-3" data-name="ellipse" class="cls-3" cx="23.811" cy="23.811" r="23.811" transform="translate(209.07 125.803)"/>
    <path id="path-3" data-name="path" class="cls-4" d="M142.6,376.251c4.27-33.659,42.292-31.509,52.359-21.442,0,1.839-6.67,3.023-6.67,3.023-1.558-.467-14.4-4.083-26.554,2.68-13.37,7.449-13.838,21.754-13.838,21.754S144.937,386.442,142.6,376.251Z" transform="translate(-88.176 -236.298)"/>
    <path id="path-4" data-name="path" class="cls-5" d="M599.8,374.119c7.76-40.983,56.6-29.577,59.091-19.167.935,1.963-7.573,2.8-7.573,2.8-1.59-.779-14.648-7.044-28.642-.405-15.427,7.324-18.232,24.964-18.232,24.964S600.984,391.167,599.8,374.119Z" transform="translate(-402.884 -235.135)"/>
    <circle id="ellipse-4" data-name="ellipse" class="cls-6" cx="7.012" cy="7.012" r="7.012" transform="translate(225.869 142.602)"/>
    <path id="path-5" data-name="path" class="cls-4" d="M727.492,376.745,714.34,403.361l-3.74.343L725.123,375" transform="translate(-479.152 -254.682)"/>
    <path id="path-6" data-name="path" class="cls-4" d="M616.272,232.258c6.046,7.792,1.465,15.8,0,18.357s-21.162-3.584-18.731-9.163C600.253,235.219,615.493,230.918,616.272,232.258Z" transform="translate(-401.187 -156.258)"/>
    <path id="path-7" data-name="path" class="cls-4" d="M615.029,445.5l29.2,5.579,1.309,3.522L614,448.243" transform="translate(-412.659 -303.21)"/>
    <path id="path-8" data-name="path" class="cls-4" d="M615.742,280.886l29.7,57.408-4.083,2.337L610.6,280.2" transform="translate(-410.319 -189.427)"/>
    <circle id="ellipse-5" data-name="ellipse" class="cls-7" cx="2.026" cy="2.026" r="2.026" transform="translate(230.855 147.589)"/>
    <path id="path-9" data-name="path" class="cls-4" d="M561.276,237.177a12.6,12.6,0,0,0-4.831-6.015c-6.576-4.114-17.609-.779-17.609-.779s-2.306,3.989,1.153,5.641c2.431-1.091,12.5-2.992,13-1.5a16.18,16.18,0,0,1,3.148,1.091c.623.467,1.278,1,1.964,1.621C559.344,238.361,561.183,238.3,561.276,237.177Z" transform="translate(-360.403 -154.258)"/>
    <path id="path-10" data-name="path" class="cls-4" d="M565.815,242.572a8.5,8.5,0,0,0-7.667-5.641c-6.077-.374-14.305,2.711-14.305,2.711-.873.281-1.932,4.831,1.776,5.735,2.743-1,5.766-1.963,9.069-2.836,1.06-.28,2.119-.53,3.148-.748a6.41,6.41,0,0,1,.873.935,8.5,8.5,0,0,1,.81,1.34l1.122,3.646" transform="translate(-363.789 -159.622)"/>
    <path id="path-11" data-name="path" class="cls-4" d="M475.174,296.611c-11.531-13.339,31.2-36.994,40.983-23.125C533.641,298.325,481.812,304.309,475.174,296.611Z" transform="translate(-315.751 -181.903)"/>
    <path id="path-12" data-name="path" class="cls-4" d="M290.562,301.4s5.111,3.428,4.426,8.2-36.09,12.311-47.092,10.6-14.4-6.046-27.4-4.394-5.8-9.225,0-9.225h27.4C260.393,305.7,290.562,301.4,290.562,301.4Z" transform="translate(-136.78 -204.02)"/>
    <circle id="ellipse-6" data-name="ellipse" class="cls-6" cx="7.012" cy="7.012" r="7.012" transform="translate(82.505 142.54)"/>
    <path id="path-13" data-name="path" class="cls-4" d="M253.091,367.63l-.281,29.7-3.21,1.932.592-32.163" transform="translate(-161.828 -249.244)"/>
    <path id="path-14" data-name="path" class="cls-4" d="M155.028,439.8l29.2,5.579,1.309,3.522L154,442.574" transform="translate(-96.023 -299.286)"/>
    <circle id="ellipse-7" data-name="ellipse" class="cls-7" cx="2.026" cy="2.026" r="2.026" transform="translate(87.491 146.996)"/>
    <text id="Est._1987" data-name="Est. 1987" class="cls-8" transform="matrix(1, -0.021, 0.021, 1, 117.617, 148.385)"><tspan x="0" y="0">Est. 1987</tspan></text>
    <path id="path-15" data-name="path" class="cls-4" d="M194.376,470.379a4.488,4.488,0,0,0,0,4.363h7.075a47.01,47.01,0,0,0,34.75,1.028s38.8.717,62.083-1.309c9.973-.561,12.061-12.061,12.061-12.061h-3.335s-3.117,7.573-8.727,8.072-62.083,0-62.083,0-18.762-5.08-34.532,0Z" transform="translate(-123.434 -314.843)"/>
    <g id="group" transform="translate(82.847 200.322)">
      <g id="group-2" data-name="group">
        <path id="path-16" data-name="path" class="cls-9" d="M237.852,649.215c.655-4.457,1.34-8.914,2.119-13.37-1.371,4.27-2.68,8.539-3.989,12.809-.717-.218-1.434-.436-2.182-.654,1.714-5.423,3.491-10.877,5.3-16.3,1.06.312,2.15.623,3.21.935-.841,4.55-1.621,9.132-2.337,13.713,1.87-4.27,3.771-8.508,5.61-12.809,1.091.312,2.182.592,3.3.873-1.558,5.485-3.054,11-4.519,16.487-.748-.187-1.527-.405-2.275-.592q1.776-6.451,3.646-12.9c-1.839,4.145-3.678,8.29-5.516,12.4C239.441,649.652,238.631,649.434,237.852,649.215Z" transform="translate(-233.8 -631.7)"/>
        <path id="path-17" data-name="path" class="cls-9" d="M281.037,659.38c-.592.343-1.184.654-1.808.966-1.4-.312-2.774-.654-4.176-1-.405-.561-.779-1.122-1.153-1.683,1.215-4.644,2.431-9.288,3.709-13.9.592-.312,1.153-.623,1.745-.966,1.278.312,2.587.623,3.9.9.343.53.717,1.091,1.091,1.621C283.188,650.031,282.1,654.705,281.037,659.38Zm-.841-14.461c-.187.094-.374.218-.592.312-1.06,4.052-2.088,8.072-3.085,12.124l.374.561c.467.094.9.218,1.371.312.187-.093.405-.218.592-.312.966-4.052,1.963-8.1,2.961-12.155l-.374-.561A8.946,8.946,0,0,1,280.2,644.919Z" transform="translate(-261.402 -639.341)"/>
        <path id="path-18" data-name="path" class="cls-9" d="M311.816,650.08c-1.06,4.987-2.088,9.973-3.117,14.96-.81-.156-1.589-.312-2.4-.5,1.06-4.987,2.15-9.942,3.272-14.929l-2.15-.467c.125-.592.281-1.153.405-1.745,2.15.467,4.3.9,6.483,1.309l-.374,1.777C313.219,650.361,312.533,650.236,311.816,650.08Z" transform="translate(-283.704 -642.507)"/>
        <path id="path-19" data-name="path" class="cls-9" d="M332.437,669.493c-.561.374-1.153.717-1.714,1.091-1.4-.218-2.8-.467-4.176-.717-.405-.53-.841-1.06-1.247-1.589.9-4.706,1.808-9.412,2.743-14.118.561-.343,1.122-.717,1.652-1.06,1.309.218,2.587.467,3.9.654.374.53.779,1.029,1.184,1.558C333.964,660.019,333.185,664.756,332.437,669.493Zm-1.776-14.368-.561.374c-.779,4.083-1.527,8.2-2.275,12.279.125.187.28.343.405.53.467.093.9.156,1.371.218l.561-.374c.686-4.114,1.4-8.2,2.15-12.311a5.984,5.984,0,0,0-.405-.53A9.3,9.3,0,0,1,330.661,655.126Z" transform="translate(-296.783 -646.43)"/>
        <path id="path-20" data-name="path" class="cls-9" d="M355.249,656.6c1.714.249,3.459.5,5.174.717.405.5.81,1,1.215,1.527-.312,2.337-.592,4.706-.9,7.044-.467.343-.966.686-1.434,1.028.156,2.524.343,5.049.53,7.542l-2.337-.281q-.281-3.693-.467-7.386c-.343-.031-.654-.094-1-.125l-1.029,7.2c-.81-.125-1.621-.218-2.4-.343C353.441,667.851,354.345,662.241,355.249,656.6Zm3.3,8.134c.249-1.776.5-3.522.748-5.3-.125-.156-.281-.343-.405-.5-.561-.062-1.091-.156-1.652-.218-.312,2.057-.623,4.114-.9,6.171.561.094,1.122.156,1.683.218C358.179,664.984,358.366,664.859,358.553,664.734Z" transform="translate(-315.575 -648.84)"/>
        <path id="path-21" data-name="path" class="cls-9" d="M382.645,661.784c.53-.405,1.06-.779,1.558-1.184,1.153.125,2.306.249,3.459.343.436.5.841.966,1.278,1.465l-.374,3.833c-.779-.062-1.527-.156-2.306-.218.093-.966.218-1.963.312-2.93-.156-.156-.28-.343-.436-.5l-.841-.093a5.983,5.983,0,0,0-.53.405c-.467,4.145-.935,8.29-1.371,12.435a6.246,6.246,0,0,1,.436.5c.312.031.592.062.9.094a3.409,3.409,0,0,0,.53-.405l.281-2.9c.779.094,1.589.156,2.369.218-.125,1.278-.249,2.556-.343,3.833-.53.405-1.091.81-1.621,1.216-1.247-.125-2.462-.249-3.709-.374-.467-.5-.9-1-1.34-1.5C381.492,671.29,382.084,666.522,382.645,661.784Z" transform="translate(-335.055 -651.593)"/>
        <path id="path-22" data-name="path" class="cls-9" d="M410.971,679.535c.156-1.87.281-3.709.436-5.579-.654-3.9-1.247-7.76-1.808-11.656.81.062,1.621.125,2.4.187.249,2.8.5,5.641.779,8.446.686-2.743,1.371-5.485,2.026-8.259.81.062,1.621.094,2.4.156-1.122,3.771-2.306,7.542-3.491,11.282-.125,1.87-.249,3.709-.374,5.579C412.53,679.66,411.751,679.6,410.971,679.535Z" transform="translate(-354.81 -652.763)"/>
        <path id="path-23" data-name="path" class="cls-9" d="M434.979,665.778c.5-.436,1-.841,1.465-1.278,1.153.062,2.306.094,3.459.125.468.467.9.935,1.371,1.371l-.094,3.833c-.779-.031-1.527-.031-2.306-.062.031-.966.062-1.964.094-2.93l-.467-.468c-.28,0-.561-.031-.842-.031-.156.156-.312.281-.5.436-.187,4.176-.374,8.353-.53,12.5l.467.468c.312,0,.592.031.9.031.187-.156.343-.28.5-.436.031-.966.062-1.932.093-2.93.779.031,1.589.062,2.369.062-.031,1.278-.062,2.587-.094,3.865-.5.436-1.028.873-1.527,1.309-1.247-.031-2.493-.093-3.709-.156-.467-.467-.966-.935-1.434-1.4C434.449,675.346,434.7,670.546,434.979,665.778Z" transform="translate(-371.743 -654.278)"/>
        <path id="path-24" data-name="path" class="cls-9" d="M460.1,682.148c.125-5.672.218-11.376.343-17.048.748,0,1.5.031,2.244.031-.062,5.08-.094,10.129-.156,15.209h3.179v1.839C463.84,682.21,461.97,682.179,460.1,682.148Z" transform="translate(-389.571 -654.69)"/>
        <path id="path-25" data-name="path" class="cls-9" d="M481.1,664.994c1.839,0,3.709-.031,5.548-.094.031.623.031,1.216.062,1.839-1.122.031-2.213.062-3.335.062.031,1.87.062,3.771.093,5.641,1-.031,1.995-.031,2.961-.062.031.623.031,1.216.062,1.839-1,.031-1.995.062-2.992.062q.047,2.945.093,5.89c1.184-.031,2.369-.031,3.553-.093.031.623.031,1.215.062,1.839-1.995.062-3.989.093-6.015.125C481.193,676.369,481.162,670.7,481.1,664.994Z" transform="translate(-404.026 -654.553)"/>
        <path id="path-26" data-name="path" class="cls-9" d="M514.9,664.952c.436-.467.9-.935,1.34-1.434,1.153-.062,2.306-.125,3.459-.218.5.405,1,.841,1.527,1.247.094,1.278.218,2.556.312,3.833-.779.062-1.527.125-2.306.156-.062-.966-.125-1.963-.218-2.93-.156-.125-.343-.281-.5-.405-.28.031-.561.031-.841.062-.156.156-.28.312-.436.467.249,4.176.53,8.321.779,12.5.187.125.343.281.53.405.312-.031.592-.031.9-.062l.467-.467-.187-2.9c.779-.062,1.589-.125,2.369-.156.093,1.278.187,2.556.312,3.833-.467.5-.935.966-1.4,1.465-1.247.094-2.493.156-3.709.249-.53-.405-1.06-.842-1.589-1.278C515.4,674.52,515.149,669.72,514.9,664.952Z" transform="translate(-427.292 -653.452)"/>
        <path id="path-27" data-name="path" class="cls-9" d="M540.434,679.273c-.468-5.672-.935-11.344-1.434-16.986l2.244-.187c.5,5.049.966,10.1,1.434,15.147,1.06-.093,2.119-.187,3.179-.312.062.623.125,1.215.187,1.839C544.174,678.961,542.3,679.117,540.434,679.273Z" transform="translate(-443.881 -652.626)"/>
        <path id="path-28" data-name="path" class="cls-9" d="M558.9,659.354c1.839-.187,3.678-.436,5.548-.654.094.623.156,1.215.249,1.839-1.122.156-2.213.28-3.335.405.218,1.87.467,3.74.686,5.61,1-.125,1.995-.249,2.961-.374.094.623.156,1.215.249,1.839l-2.992.374c.249,1.932.467,3.9.717,5.828,1.184-.125,2.369-.281,3.553-.436.094.623.156,1.216.249,1.839-1.995.249-3.989.5-6.015.717C560.178,670.637,559.555,665,558.9,659.354Z" transform="translate(-457.579 -650.285)"/>
        <path id="path-29" data-name="path" class="cls-9" d="M588.093,668.734c.062,1.465.125,2.961.156,4.426-.81.125-1.621.218-2.4.343,0-5.734-.093-11.469-.249-17.2,1.06-.156,2.15-.312,3.21-.5,1.683,5.485,3.366,11,5.111,16.456-.841.125-1.683.28-2.493.405-.374-1.434-.779-2.836-1.153-4.27C589.527,668.516,588.81,668.64,588.093,668.734Zm-.53-10.472c.156,2.867.312,5.766.436,8.633.592-.094,1.216-.187,1.808-.281C589.059,663.841,588.311,661.067,587.563,658.262Z" transform="translate(-475.957 -648.289)"/>
        <path id="path-30" data-name="path" class="cls-9" d="M606.1,651.309c.81-.125,1.621-.28,2.431-.436,1.621,3.709,3.241,7.418,4.924,11.126-.779-3.865-1.558-7.729-2.369-11.594.686-.125,1.34-.249,2.026-.405,1.216,5.579,2.4,11.126,3.522,16.705-.873.187-1.745.343-2.618.5-1.652-3.646-3.3-7.293-4.893-10.939.717,3.833,1.434,7.636,2.151,11.469-.717.125-1.465.249-2.182.374C608.126,662.5,607.128,656.919,606.1,651.309Z" transform="translate(-490.068 -644.297)"/>
        <path id="path-31" data-name="path" class="cls-9" d="M633.5,646.315q2.758-.561,5.516-1.215c.156.592.312,1.184.436,1.776-1.091.249-2.213.5-3.3.748.436,1.839.873,3.678,1.278,5.516,1-.218,1.964-.436,2.961-.654.156.592.281,1.184.436,1.776l-2.992.654c.436,1.9.873,3.833,1.309,5.735,1.184-.249,2.369-.53,3.553-.81.156.592.28,1.184.436,1.776q-2.992.7-5.984,1.309Q635.37,654.7,633.5,646.315Z" transform="translate(-508.929 -640.924)"/>
        <path id="path-32" data-name="path" class="cls-9" d="M655.2,641.378c1.714-.405,3.428-.842,5.142-1.278l1.776.935c.654,2.275,1.309,4.55,1.964,6.857-.312.5-.623,1-.966,1.5,1.153,2.275,2.306,4.519,3.459,6.794-.779.218-1.558.405-2.337.592-1.122-2.213-2.213-4.457-3.335-6.669-.343.094-.654.156-1,.249.623,2.337,1.216,4.706,1.808,7.044-.81.187-1.589.405-2.4.592C658,652.442,656.6,646.894,655.2,641.378Zm6.327,6.264c-.468-1.714-.935-3.459-1.434-5.174-.187-.093-.405-.218-.592-.312-.561.125-1.091.281-1.652.405.53,2.026,1.06,4.021,1.589,6.046.561-.125,1.122-.28,1.683-.436A1.607,1.607,0,0,0,661.527,647.642Z" transform="translate(-523.866 -637.482)"/>
        <path id="path-33" data-name="path" class="cls-9" d="M686.1,635.906c-.187-.094-.405-.187-.592-.281-.281.093-.53.156-.81.249-.125.187-.218.374-.343.561.467,1.527.935,3.085,1.4,4.613.218.094.405.187.623.28l2.244-.654c.623.281,1.247.561,1.839.873.717,2.182,1.4,4.363,2.088,6.576-.374.592-.717,1.153-1.091,1.745-1.278.374-2.524.717-3.8,1.091-.623-.281-1.247-.592-1.87-.873-.312-1.153-.654-2.306-1-3.428l2.337-.654c.249.841.5,1.714.779,2.556.218.093.405.187.623.28.343-.094.654-.187,1-.28L689.9,648c-.5-1.621-1-3.21-1.5-4.831-.218-.093-.405-.187-.623-.28-.748.218-1.527.436-2.275.654-.623-.312-1.215-.592-1.839-.9-.623-2.119-1.247-4.27-1.87-6.389.343-.561.686-1.122,1-1.683,1.122-.312,2.275-.654,3.4-.966.592.28,1.215.592,1.808.873.374,1.153.748,2.275,1.122,3.428-.748.218-1.527.436-2.275.655A23.65,23.65,0,0,0,686.1,635.906Z" transform="translate(-542.176 -633.008)"/>
      </g>
    </g>
    <g id="group-3" data-name="group" transform="translate(50.902 16.223)">
      <g id="group-4" data-name="group">
        <path id="path-34" data-name="path" class="cls-9" d="M151.839,92.041c1.06,3.21,2.15,6.42,3.21,9.63-1.091,1.215-2.182,2.431-3.241,3.678q2.384.421,4.768.935c1.122,3.428,2.275,6.825,3.4,10.254-1.028,1.184-2.026,2.369-3.023,3.584q-6.966,2.431-13.807,5.3Q137.206,111.3,131.3,97.153q7.714-3.226,15.521-5.953C148.5,91.449,150.156,91.73,151.839,92.041ZM148.6,103.978c-.966-2.711-1.963-5.423-2.93-8.1-.561-.093-1.122-.156-1.652-.249-1.621.592-3.241,1.215-4.831,1.839,1.247,3.179,2.493,6.358,3.709,9.537l4.675-1.776C147.88,104.82,148.254,104.414,148.6,103.978Zm-4.55,6.015c1.278,3.3,2.587,6.607,3.865,9.911,1.465-.561,2.93-1.122,4.426-1.683.343-.405.654-.81,1-1.215l-3.085-8.508-1.589-.281C147.1,108.84,145.574,109.4,144.047,109.993Z" transform="translate(-131.3 -75.555)"/>
        <path id="path-35" data-name="path" class="cls-9" d="M208.6,77.457c2.275-.717,4.55-1.4,6.857-2.057q4.254,14.726,8.446,29.483c-2.026.592-4.083,1.184-6.077,1.839C214.74,96.936,211.685,87.212,208.6,77.457Z" transform="translate(-184.509 -64.679)"/>
        <path id="path-36" data-name="path" class="cls-9" d="M258.142,81.3c.561,2.369,1.122,4.737,1.714,7.106-2.057.5-4.114,1-6.14,1.558q-3.974-14.82-7.916-29.608c2.306-.623,4.613-1.184,6.919-1.745L256.552,74.5c1.309-5.922,2.774-11.812,4.426-17.734,2.337-.5,4.706-.935,7.044-1.371q-2.571,7.386-4.768,14.773c3.709,5.049,7.231,10.129,10.628,15.3-2.15.374-4.332.81-6.483,1.247-2.369-3.771-4.8-7.542-7.293-11.251C259.42,77.4,258.8,79.336,258.142,81.3Z" transform="translate(-210.115 -50.912)"/>
        <path id="path-37" data-name="path" class="cls-9" d="M328,48.169q8.649-1.449,17.36-2.369c.125,1.091.218,2.182.343,3.3-3.4.343-6.825.779-10.222,1.247.467,3.366.966,6.7,1.434,10.067,2.867-.405,5.7-.779,8.571-1.091.125,1.091.249,2.182.374,3.3-2.836.312-5.641.654-8.477,1.06l1.5,10.472c3.148-.436,6.3-.841,9.443-1.153.125,1.091.218,2.182.343,3.3-5.2.53-10.41,1.247-15.583,2.119C331.4,68.3,329.714,58.235,328,48.169Z" transform="translate(-266.696 -44.304)"/>
        <path id="path-38" data-name="path" class="cls-9" d="M446.092,71.636q-2.525-12.015-5.516-23.967.327,12.015.592,24.029c-1.9.031-3.8.125-5.7.218-.5-10.223-.966-20.414-1.465-30.605,3.428-.156,6.825-.249,10.254-.312q2.758,12.342,5.049,24.746,2.478-12.342,5.423-24.684,5.236.14,10.472.467-.982,15.287-1.963,30.605c-1.995-.125-3.989-.218-5.984-.312.312-8.01.655-16.019.966-24.029q-3.179,11.921-5.89,23.873C450.238,71.636,448.181,71.636,446.092,71.636Z" transform="translate(-339.66 -41)"/>
        <path id="path-39" data-name="path" class="cls-9" d="M544.984,68.214c-.717,2.587-1.4,5.142-2.088,7.729-2.088-.218-4.176-.405-6.3-.561,2.743-10.036,5.766-20.04,8.976-29.982,3.4.343,6.763.748,10.129,1.215.9,10.441,1.527,20.881,1.932,31.291-2.182-.343-4.332-.686-6.514-.966-.062-2.68-.125-5.329-.218-8.01C548.942,68.65,546.947,68.4,544.984,68.214Zm5.142-18.295q-2.244,7.527-4.332,15.053c1.683.187,3.366.374,5.049.592C550.656,60.36,550.407,55.124,550.126,49.919Z" transform="translate(-410.284 -44.029)"/>
        <path id="path-40" data-name="path" class="cls-9" d="M617.894,58.189c1.589-.53,3.179-1.091,4.8-1.589,3.8.717,7.6,1.527,11.407,2.4,1.278,1.122,2.524,2.244,3.74,3.4-.53,2.088-1.06,4.207-1.558,6.3q-3.366-.841-6.732-1.589l1.028-4.675c-.405-.374-.841-.748-1.247-1.091-1.091-.249-2.15-.467-3.241-.686-.53.156-1.06.343-1.589.5-1.465,7.324-2.9,14.679-4.363,22l1.153,1.06c1,.187,1.963.405,2.961.623.5-.156,1-.343,1.5-.5.623-2.743,1.215-5.454,1.808-8.2-1.091-.249-2.182-.467-3.272-.717.249-1.122.467-2.275.717-3.4,3.3.686,6.607,1.434,9.88,2.275-1.091,4.394-2.182,8.758-3.272,13.152-1.5.467-2.961.935-4.457,1.4-3.366-.779-6.763-1.5-10.16-2.15-1.153-1.028-2.306-2.057-3.491-3.085Q615.744,70.905,617.894,58.189Z" transform="translate(-463.217 -51.738)"/>
        <path id="path-41" data-name="path" class="cls-9" d="M690.116,71.3c2.306.623,4.613,1.247,6.888,1.932q-4.3,14.726-8.664,29.421c-2.026-.592-4.083-1.184-6.14-1.714Q686.174,86.12,690.116,71.3Z" transform="translate(-510.506 -61.857)"/>
        <path id="path-42" data-name="path" class="cls-9" d="M723.846,106.441c-.779,2.306-1.59,4.613-2.369,6.919-2.026-.686-4.052-1.371-6.077-1.995L724.563,82.1q3.413,1.075,6.825,2.244c-1.745,5.142-3.522,10.316-5.267,15.458,4.3-4.27,8.727-8.477,13.339-12.56,2.275.873,4.55,1.745,6.794,2.649q-6.171,4.815-12.03,9.88.7,9.35.873,18.669c-2.057-.841-4.145-1.652-6.233-2.462.031-4.457-.031-8.945-.187-13.433C727.025,103.854,725.435,105.132,723.846,106.441Z" transform="translate(-533.358 -69.291)"/>
      </g>
    </g>
  </g>
</svg>
