<?xml version="1.0" encoding="utf-8"?>
<!-- Generator: Adobe Illustrator 19.2.1, SVG Export Plug-In . SVG Version: 6.00 Build 0)  -->
<svg version="1.1" id="Outlines" xmlns="http://www.w3.org/2000/svg" xmlns:xlink="http://www.w3.org/1999/xlink" x="0px" y="0px"
	 viewBox="0 0 1290 780.2" style="enable-background:new 0 0 1290 780.2;" xml:space="preserve">
<style type="text/css">
	.st0{opacity:0;fill:#FFFFFF;stroke:#000000;stroke-miterlimit:10;}
	.st1{fill:#333333;stroke:#333333;stroke-width:29;stroke-miterlimit:10;}
	.st2{fill:#FFFFFF;stroke:#333333;stroke-width:10;stroke-miterlimit:10;}
	.st3{fill:none;stroke:#FFFFFF;stroke-width:30;stroke-miterlimit:10;}
	.st4{fill:#FFFFFF;stroke:#333333;stroke-width:2;stroke-miterlimit:10;}
	.st5{fill:#FFFFFF;stroke:#FFFFFF;stroke-width:2;stroke-miterlimit:10;}
	.st6{fill:#333333;stroke:#FFFFFF;stroke-miterlimit:10;}
	.st7{fill:#FFFFFF;}
	.st8{font-family:'Abolition-Regular';}
	.st9{font-size:102.0453px;}
	.st10{letter-spacing:-5;}
	.st11{fill:#333333;}
</style>
<rect class="st0" width="1290" height="780.2"/>
<title>motorcycle_6</title>
<g>
	<ellipse class="st1" cx="645" cy="404" rx="454.9" ry="303"/>
	<path class="st2" d="M252.1,116.7l78.1,151.5c191.6-89.7,398.2-100.6,624.4-8.7l83.3-142.9C1037.9,105.8,661.3-82.3,252.1,116.7z"
		/>
	<path class="st2" d="M406.6,626.7l-27.9,84.8c0,0,258.7,96.7,528.9,0l-28.8-84.8C878.8,626.7,648.8,699.6,406.6,626.7z"/>
	<circle class="st3" cx="427.1" cy="486.1" r="75.8"/>
	<circle class="st3" cx="885.3" cy="486.1" r="75.8"/>
	<path class="st4" d="M317.2,455.4c13.6-107.2,134.6-100.3,166.7-68.3c0,5.8-21.3,9.6-21.3,9.6c-5-1.5-45.9-13-84.6,8.6
		C335.5,429,334,474.6,334,474.6S324.6,487.8,317.2,455.4z"/>
	<path class="st5" d="M770.8,455.5c24.7-130.5,180.2-94.2,188.1-61c3,6.3-24.1,8.9-24.1,8.9c-5-2.5-46.6-22.4-91.2-1.2
		c-49.1,23.3-58.1,79.5-58.1,79.5S774.6,509.7,770.8,455.5z"/>
	<circle class="st5" cx="885.3" cy="486.1" r="22.3"/>
	<polyline class="st4" points="934.5,398.4 892.6,483.2 880.7,484.2 927,392.9 	"/>
	<path class="st4" d="M828.6,251.8c19.3,24.8,4.7,50.3,0,58.4S761.3,298.9,769,281C777.6,261.2,826.2,247.5,828.6,251.8z"/>
	<polyline class="st4" points="788.2,462.8 881.1,480.5 885.2,491.7 784.9,471.5 	"/>
	<polyline class="st4" points="797.8,301 892.4,483.8 879.4,491.2 781.5,298.8 	"/>
	<circle class="st6" cx="885.3" cy="486.1" r="6.4"/>
	<path class="st4" d="M783.4,273.9c-4.7-11-10.8-16.3-15.3-19.1c-20.9-13.1-56-2.5-56-2.5s-7.3,12.7,3.7,18
		c7.7-3.5,39.8-9.6,41.4-4.7c3.4,0.8,6.8,2,10,3.5c2.2,1.6,4.2,3.3,6.2,5.1C777.2,277.6,783.1,277.4,783.4,273.9z"/>
	<path class="st4" d="M787.1,273.9c-3.7-10.4-13.4-17.5-24.4-18c-19.3-1.2-45.5,8.7-45.5,8.7c-2.7,0.9-6.2,15.4,5.7,18.3
		c8.7-3.2,18.3-6.3,28.9-9c3.4-0.9,6.7-1.7,10-2.4c1,0.9,2,1.9,2.8,3c1,1.3,1.9,2.7,2.5,4.3l3.5,11.6"/>
	<path class="st4" d="M651.4,375c-36.7-42.5,99.3-117.8,130.4-73.6C837.6,380.5,672.6,399.5,651.4,375z"/>
	<path class="st4" d="M633.5,319.8c0,0,16.3,10.9,14.1,26.1S532.7,385,497.7,379.6c-35-5.4-45.8-19.3-87.2-14s-18.4-29.4,0-29.4
		h87.2C537.4,333.5,633.5,319.8,633.5,319.8z"/>
	<circle class="st5" cx="428.9" cy="485.9" r="22.3"/>
	<polyline class="st4" points="434.5,386.7 433.6,481.3 423.3,487.3 425.3,385 	"/>
	<polyline class="st4" points="331.8,457.2 424.7,474.9 428.8,486.1 328.5,465.9 	"/>
	<circle class="st6" cx="428.8" cy="484.2" r="6.4"/>
	<text transform="matrix(0.9998 -2.129141e-02 2.129141e-02 0.9998 518.3446 482.1996)" class="st7 st8 st9">E</text>
	<text transform="matrix(0.9998 -2.129141e-02 2.129141e-02 0.9998 547.3195 481.5826)" class="st7 st8 st9">s</text>
	<text transform="matrix(0.9998 -2.129141e-02 2.129141e-02 0.9998 579.5573 480.896)" class="st7 st8 st9 st10">t</text>
	<text transform="matrix(0.9998 -2.129141e-02 2.129141e-02 0.9998 603.632 480.3833)" class="st7 st8 st9">. 19</text>
	<text transform="matrix(0.9998 -2.129141e-02 2.129141e-02 0.9998 691.1716 478.5191)" class="st7 st8 st9">8</text>
	<text transform="matrix(0.9998 -2.129141e-02 2.129141e-02 0.9998 724.6396 477.8063)" class="st7 st8 st9">7</text>
	<path class="st4" d="M369.8,505c0,0-4,6,0,13.9h22.5c0,0,49.3,25.1,110.6,3.3c0,0,123.5,2.3,197.6-4.1
		c31.7-1.8,38.4-38.4,38.4-38.4h-10.6c0,0-9.9,24.1-27.8,25.7c-17.9,1.6-197.6,0-197.6,0s-59.7-16.1-110,0L369.8,505z"/>
	<path class="st11" d="M420.6,703.3c2.1-14.2,4.3-28.4,6.8-42.5c-4.3,13.6-8.6,27.2-12.7,40.8c-2.3-0.7-4.6-1.3-6.9-2
		c5.5-17.3,11.1-34.6,16.9-51.9c3.4,1,6.8,2,10.2,3c-2.6,14.6-5.1,29.1-7.4,43.7c6-13.6,11.9-27.1,17.9-40.7c3.5,1,7,1.9,10.5,2.8
		c-4.9,17.5-9.7,35-14.4,52.5c-2.4-0.6-4.8-1.2-7.2-1.9c3.8-13.7,7.7-27.4,11.6-41.1c-5.8,13.2-11.7,26.4-17.6,39.5
		C425.6,704.7,423.1,704,420.6,703.3z"/>
	<path class="st11" d="M470.2,711.3c-1.9,1-3.8,2.1-5.7,3.1c-4.4-1-8.9-2-13.3-3.1c-1.2-1.8-2.5-3.6-3.7-5.3
		c3.8-14.8,7.8-29.5,11.8-44.3c1.9-1,3.7-2,5.6-3.1c4.1,1,8.2,2,12.4,2.9c1.1,1.7,2.3,3.5,3.4,5.2
		C477.1,681.6,473.6,696.5,470.2,711.3z M467.5,665.3l-1.9,1c-3.3,12.9-6.6,25.7-9.8,38.6l1.2,1.8l4.4,1l1.9-1
		c3.1-12.9,6.2-25.8,9.4-38.7l-1.2-1.7L467.5,665.3z"/>
	<path class="st11" d="M496.9,671.6c-3.4,15.9-6.7,31.7-9.9,47.6c-2.6-0.5-5.1-1-7.7-1.5c3.4-15.9,6.8-31.7,10.4-47.5
		c-2.3-0.5-4.5-1-6.8-1.4l1.3-5.6c6.9,1.5,13.7,2.9,20.6,4.2l-1.1,5.6C501.4,672.5,499.1,672,496.9,671.6z"/>
	<path class="st11" d="M520.6,720.8c-1.8,1.2-3.6,2.3-5.5,3.5c-4.4-0.7-8.9-1.5-13.3-2.3c-1.3-1.7-2.6-3.4-4-5.1
		c2.9-15,5.8-30,8.8-44.9c1.8-1.1,3.5-2.3,5.3-3.4c4.1,0.8,8.3,1.5,12.4,2.1c1.2,1.7,2.5,3.3,3.8,5
		C525.5,690.7,523,705.8,520.6,720.8z M514.9,675.1l-1.8,1.1c-2.4,13-4.8,26.1-7.2,39.1l1.3,1.7l4.4,0.7l1.8-1.1
		c2.2-13.1,4.5-26.1,6.8-39.2l-1.2-1.7L514.9,675.1z"/>
	<path class="st11" d="M533.4,672.2c5.5,0.8,11,1.6,16.5,2.3c1.3,1.6,2.6,3.2,3.9,4.8c-1,7.5-1.9,14.9-2.9,22.4l-4.6,3.2
		c0.5,8,1.1,16,1.7,24.1c-2.5-0.3-5-0.6-7.4-0.9c-0.6-7.9-1.1-15.7-1.5-23.6l-3.2-0.4c-1.1,7.6-2.2,15.3-3.3,22.9
		c-2.6-0.4-5.1-0.7-7.7-1.1C527.7,707.9,530.5,690,533.4,672.2z M543.9,698c0.8-5.6,1.6-11.2,2.3-16.9l-1.3-1.6l-5.2-0.7
		c-1,6.6-2,13.1-2.9,19.7l5.4,0.7L543.9,698z"/>
	<path class="st11" d="M558.4,679.8c1.7-1.2,3.3-2.5,5-3.8c3.7,0.4,7.3,0.8,11,1.1c1.3,1.6,2.7,3.1,4.1,4.7
		c-0.4,4.1-0.8,8.1-1.2,12.2c-2.4-0.2-4.9-0.4-7.3-0.7c0.3-3.1,0.7-6.2,1-9.3l-1.3-1.6l-2.7-0.3l-1.7,1.3c-1.5,13.2-3,26.4-4.4,39.6
		l1.4,1.6l2.9,0.3l1.7-1.3c0.3-3.1,0.6-6.2,0.9-9.2c2.5,0.2,5,0.5,7.5,0.7c-0.4,4.1-0.8,8.2-1.1,12.2c-1.7,1.3-3.4,2.6-5.2,3.8
		c-4-0.4-7.9-0.8-11.8-1.2c-1.4-1.6-2.9-3.2-4.3-4.8C554.7,710,556.5,694.9,558.4,679.8z"/>
	<path class="st11" d="M584.9,732.6c0.4-5.9,0.9-11.8,1.4-17.7c-2.1-12.4-4-24.7-5.8-37.1c2.6,0.2,5.1,0.4,7.7,0.6
		c0.8,9,1.6,17.9,2.5,26.9c2.2-8.8,4.3-17.5,6.5-26.3c2.6,0.2,5.1,0.3,7.7,0.5c-3.6,12-7.3,24-11.2,35.9c-0.4,5.9-0.8,11.8-1.2,17.8
		C589.9,733,587.4,732.8,584.9,732.6z"/>
	<path class="st11" d="M606.7,683.9c1.6-1.3,3.2-2.7,4.7-4.1c3.7,0.2,7.4,0.3,11,0.4c1.4,1.5,2.9,2.9,4.4,4.4
		c-0.1,4.1-0.2,8.1-0.3,12.2c-2.4-0.1-4.9-0.1-7.3-0.2c0.1-3.1,0.2-6.2,0.3-9.4l-1.4-1.5l-2.7-0.1l-1.6,1.4
		c-0.6,13.3-1.2,26.6-1.8,39.8l1.5,1.5l2.9,0.1l1.6-1.4c0.1-3.1,0.2-6.2,0.3-9.3c2.5,0.1,5,0.2,7.5,0.2c-0.1,4.1-0.2,8.2-0.3,12.3
		c-1.6,1.4-3.3,2.8-5,4.1c-4-0.1-7.9-0.3-11.8-0.5c-1.5-1.5-3.1-3-4.6-4.5C605.1,714.3,605.9,699.1,606.7,683.9z"/>
	<path class="st11" d="M629.9,734.8c0.4-18.1,0.8-36.2,1.2-54.3c2.4,0,4.8,0.1,7.2,0.1c-0.2,16.1-0.4,32.3-0.6,48.4
		c3.4,0,6.7,0.1,10.1,0c0,2,0,3.9,0,5.9C641.8,734.9,635.8,734.9,629.9,734.8z"/>
	<path class="st11" d="M650.9,680.6c5.9,0,11.8-0.1,17.7-0.3c0.1,2,0.1,3.9,0.2,5.9c-3.5,0.1-7.1,0.2-10.6,0.2c0.1,6,0.2,12,0.3,18
		c3.2,0,6.3-0.1,9.5-0.2l0.2,5.9c-3.2,0.1-6.4,0.2-9.5,0.2c0.1,6.2,0.2,12.5,0.3,18.7c3.8-0.1,7.6-0.1,11.4-0.2l0.2,5.9
		c-6.4,0.2-12.8,0.3-19.1,0.3C651.1,716.8,651,698.7,650.9,680.6z"/>
	<path class="st11" d="M684.4,684c1.4-1.5,2.8-3,4.2-4.5c3.7-0.2,7.4-0.4,11-0.7c1.6,1.3,3.2,2.6,4.8,4c0.3,4.1,0.7,8.1,1,12.2
		c-2.4,0.2-4.9,0.4-7.3,0.5c-0.2-3.1-0.4-6.2-0.7-9.3l-1.6-1.3l-2.7,0.2l-1.4,1.5c0.8,13.3,1.6,26.5,2.4,39.8l1.7,1.3l2.9-0.2
		l1.5-1.5c-0.2-3.1-0.4-6.2-0.6-9.3c2.5-0.2,5-0.3,7.5-0.5c0.3,4.1,0.6,8.2,1,12.3c-1.5,1.5-3,3.1-4.5,4.6c-4,0.3-7.9,0.5-11.8,0.7
		c-1.7-1.3-3.4-2.7-5-4C686,714.5,685.2,699.2,684.4,684z"/>
	<path class="st11" d="M712.8,732.2c-1.5-18-3-36.1-4.5-54.1c2.4-0.2,4.8-0.4,7.2-0.6c1.6,16.1,3.1,32.2,4.5,48.2
		c3.4-0.3,6.7-0.6,10.1-1l0.6,5.8C724.7,731.2,718.7,731.8,712.8,732.2z"/>
	<path class="st11" d="M728,676.3c5.9-0.7,11.8-1.4,17.6-2.1l0.8,5.8c-3.5,0.5-7.1,0.9-10.6,1.3c0.7,6,1.5,11.9,2.2,17.9
		c3.2-0.4,6.3-0.8,9.5-1.2l0.8,5.8c-3.2,0.4-6.3,0.8-9.5,1.2c0.7,6.2,1.5,12.4,2.2,18.6c3.8-0.4,7.6-0.9,11.4-1.4l0.8,5.8
		c-6.4,0.9-12.7,1.6-19.1,2.3C732.1,712.3,730.1,694.3,728,676.3z"/>
	<path class="st11" d="M762.5,712.6c0.2,4.7,0.4,9.4,0.5,14.1c-2.6,0.4-5.1,0.7-7.7,1.1c0-18.3-0.2-36.5-0.7-54.7
		c3.4-0.5,6.8-1,10.3-1.5c5.3,17.5,10.7,35,16.2,52.4c-2.6,0.4-5.3,0.9-8,1.3c-1.2-4.5-2.5-9.1-3.7-13.6
		C767.1,711.9,764.8,712.2,762.5,712.6z M760.8,679.2c0.5,9.2,1,18.3,1.4,27.5l5.8-0.9C765.5,697,763.1,688.1,760.8,679.2
		L760.8,679.2z"/>
	<path class="st11" d="M774.9,669.8c2.6-0.4,5.1-0.9,7.7-1.4c5.1,11.8,10.4,23.7,15.7,35.4c-2.5-12.3-5-24.6-7.5-36.9l6.4-1.3
		c3.8,17.7,7.6,35.5,11.2,53.2c-2.8,0.6-5.5,1.1-8.3,1.6c-5.3-11.6-10.5-23.2-15.6-34.9c2.3,12.2,4.6,24.3,6.8,36.5
		c-2.3,0.4-4.6,0.8-6.9,1.2C781.3,705.4,778.1,687.6,774.9,669.8z"/>
	<path class="st11" d="M802.1,664.7c5.9-1.2,11.7-2.5,17.6-3.8l1.4,5.7c-3.5,0.8-7,1.6-10.5,2.4c1.4,5.9,2.7,11.7,4.1,17.6
		c3.1-0.7,6.3-1.4,9.4-2.1l1.4,5.7c-3.2,0.7-6.3,1.4-9.5,2.1c1.4,6.1,2.8,12.2,4.1,18.3c3.8-0.8,7.6-1.7,11.3-2.5l1.4,5.7
		c-6.3,1.5-12.7,2.9-19.1,4.2C809.9,700.1,806.1,682.4,802.1,664.7z"/>
	<path class="st11" d="M823.6,659.9c5.5-1.3,10.9-2.7,16.4-4.1c1.9,1,3.8,2,5.6,3c2.1,7.3,4.2,14.6,6.3,21.8c-1,1.6-2,3.2-3.1,4.7
		c3.7,7.2,7.3,14.4,11,21.6c-2.5,0.7-4.9,1.3-7.4,1.9c-3.6-7.1-7.1-14.1-10.6-21.2l-3.2,0.8c2,7.5,3.9,15,5.8,22.5
		c-2.6,0.6-5.1,1.2-7.6,1.8C832.5,695.1,828.1,677.5,823.6,659.9z M843.8,679.8c-1.5-5.5-3-11-4.5-16.5l-1.9-1l-5.2,1.3
		c1.7,6.4,3.4,12.8,5.1,19.3l5.4-1.3L843.8,679.8z"/>
	<path class="st11" d="M863.4,656.8l-1.9-0.9l-2.6,0.7l-1.1,1.8c1.5,4.9,3,9.8,4.5,14.7l2,0.9c2.4-0.7,4.8-1.4,7.2-2.1
		c2,0.9,4,1.8,5.9,2.7c2.2,7,4.5,13.9,6.7,20.9c-1.2,1.8-2.3,3.7-3.5,5.5c-4,1.2-8.1,2.3-12.1,3.4c-2-0.9-4-1.9-6-2.8
		c-1-3.7-2.1-7.3-3.1-10.9c2.5-0.7,5-1.3,7.5-2.1c0.8,2.7,1.6,5.5,2.4,8.2l2,0.9l3.2-0.9l1.2-1.8c-1.6-5.1-3.1-10.2-4.7-15.3l-2-0.9
		c-2.4,0.7-4.8,1.3-7.2,2c-2-0.9-3.9-1.9-5.8-2.9c-2-6.8-4-13.6-6-20.4c1.1-1.8,2.1-3.6,3.2-5.3c3.6-1,7.2-2,10.8-3.1
		c1.9,0.9,3.8,1.9,5.8,2.8c1.2,3.6,2.4,7.3,3.6,10.9c-2.4,0.7-4.8,1.4-7.2,2.1C865.1,662.3,864.3,659.5,863.4,656.8z"/>
	<path class="st11" d="M371.3,113.9l10.2,30.7c-3.5,3.9-6.9,7.7-10.3,11.7c5.1,0.9,10.2,1.9,15.2,3l10.9,32.7
		c-3.2,3.8-6.4,7.6-9.6,11.4c-14.8,5.2-29.4,10.8-44,16.9c-12.6-30-25.1-60-37.7-90c16.3-6.8,32.8-13.2,49.4-19
		C360.7,112.1,366,113,371.3,113.9z M361,152l-9.3-25.8l-5.3-0.9c-5.2,1.9-10.3,3.8-15.4,5.8l11.8,30.4c4.9-1.9,9.9-3.8,14.9-5.6
		L361,152z M346.5,171.1l12.3,31.6c4.7-1.8,9.4-3.6,14.1-5.3l3.2-3.9l-9.8-27.1l-5.1-0.9C356.3,167.4,351.4,169.2,346.5,171.1
		L346.5,171.1z"/>
	<path class="st11" d="M382.7,102.1c7.3-2.3,14.6-4.5,21.8-6.5c9,31.3,17.9,62.5,26.9,93.8c-6.5,1.9-12.9,3.8-19.4,5.8
		C402.2,164.2,392.4,133.2,382.7,102.1z"/>
	<path class="st11" d="M458.9,158.2l5.4,22.6c-6.5,1.6-13.1,3.2-19.6,5c-8.4-31.4-16.8-62.9-25.2-94.3c7.3-2,14.7-3.8,22-5.6
		c4.1,16.9,8.1,33.7,12.2,50.6c4.2-18.8,8.9-37.6,14.1-56.4c7.5-1.5,15-3,22.5-4.4c-5.5,15.6-10.5,31.3-15.2,47
		c11.8,16,23.1,32.3,33.8,48.8c-6.9,1.2-13.7,2.6-20.6,4c-7.5-12-15.2-24-23.2-35.8C463,145.8,460.9,152,458.9,158.2z"/>
	<path class="st11" d="M501.1,73.8c18.3-3.1,36.8-5.6,55.3-7.5l1.1,10.5c-10.9,1.1-21.7,2.4-32.5,4c1.5,10.7,3.1,21.4,4.6,32
		c9.1-1.3,18.2-2.4,27.3-3.4l1.1,10.5c-9,1-18,2.1-27,3.4c1.6,11.1,3.2,22.2,4.7,33.3c10-1.4,20.1-2.6,30.1-3.7l1.1,10.5
		c-16.6,1.7-33.1,3.9-49.6,6.7C512,137.9,506.6,105.8,501.1,73.8z"/>
	<path class="st11" d="M644.8,159.1c-5.3-25.5-11.2-50.9-17.5-76.3c0.7,25.5,1.3,51,1.9,76.5c-6.1,0.1-12.1,0.4-18.2,0.6
		c-1.5-32.5-3.1-65-4.6-97.5c10.9-0.5,21.8-0.8,32.6-0.9c5.9,26.2,11.2,52.5,16,78.8c5.3-26.2,11.1-52.4,17.3-78.5
		c11.1,0.3,22.2,0.8,33.3,1.5c-2.1,32.5-4.2,64.9-6.3,97.4c-6.3-0.4-12.7-0.7-19-1c1-25.5,2.1-51,3.1-76.5
		c-6.8,25.3-13,50.6-18.8,76C658,159.2,651.4,159.1,644.8,159.1z"/>
	<path class="st11" d="M734.8,138.6c-2.3,8.2-4.5,16.4-6.6,24.6c-6.7-0.7-13.3-1.3-20-1.8c8.8-31.9,18.4-63.8,28.7-95.4
		c10.8,1.1,21.5,2.4,32.3,3.8c2.8,33.2,4.8,66.4,6,99.6c-6.9-1.1-13.8-2.2-20.7-3.1c-0.2-8.5-0.4-17-0.7-25.5
		C747.4,140,741.1,139.3,734.8,138.6z M751.2,80.4c-4.8,15.9-9.4,31.9-13.8,47.9c5.4,0.6,10.7,1.2,16.1,1.9
		C752.9,113.6,752.2,97,751.2,80.4z"/>
	<path class="st11" d="M797.1,82c5-1.7,10.1-3.4,15.2-5.1c12.2,2.3,24.3,4.8,36.3,7.6c4,3.6,8,7.2,11.9,10.8l-5,20.1
		c-7.1-1.8-14.3-3.5-21.4-5.1l3.3-14.9l-4-3.5c-3.4-0.7-6.9-1.5-10.3-2.2l-5.1,1.6c-4.6,23.3-9.3,46.7-13.9,70l3.7,3.4
		c3.1,0.7,6.3,1.3,9.4,2l4.7-1.6l5.8-26.1c-3.5-0.8-6.9-1.6-10.4-2.2l2.3-10.8c10.5,2.2,21,4.6,31.5,7.2c-3.5,14-6.9,27.9-10.4,41.9
		c-4.7,1.5-9.5,3-14.2,4.5c-10.7-2.5-21.5-4.8-32.3-6.8c-3.7-3.3-7.3-6.6-11.1-9.8C787.9,136,792.5,109,797.1,82z"/>
	<path class="st11" d="M876.5,91.5c7.3,2,14.6,4,21.9,6.2c-9.2,31.2-18.3,62.4-27.5,93.6c-6.5-1.9-13-3.7-19.5-5.5
		C859.8,154.4,868.1,123,876.5,91.5z"/>
	<path class="st11" d="M911.1,179.8l-7.5,22c-6.4-2.2-12.9-4.3-19.3-6.3c9.7-31,19.5-62.1,29.2-93.1c7.3,2.3,14.5,4.7,21.7,7.1
		c-5.6,16.4-11.2,32.8-16.8,49.2c13.7-13.6,27.8-27,42.4-40c7.2,2.7,14.4,5.6,21.6,8.5c-13.1,10.2-25.9,20.7-38.3,31.5
		c1.5,19.9,2.4,39.7,2.8,59.4c-6.6-2.7-13.2-5.3-19.8-7.8c0.1-14.2-0.1-28.5-0.6-42.8C921.3,171.5,916.2,175.6,911.1,179.8z"/>
</g>
</svg>
