<svg id="group-29" xmlns="http://www.w3.org/2000/svg" viewBox="4533 1855 900 545">
  <defs>
    <style>
      .cls-1, .cls-3, .cls-5, .cls-6, .cls-7, .cls-9 {
        fill: #fff;
      }

      .cls-1 {
        stroke: #95989a;
        opacity: 0;
      }

      .cls-1, .cls-6, .cls-8 {
        stroke-width: 1px;
      }

      .cls-10, .cls-2, .cls-8 {
        fill: #333;
      }

      .cls-2, .cls-3, .cls-5 {
        stroke: #333;
      }

      .cls-2 {
        stroke-width: 29px;
      }

      .cls-3, .cls-4 {
        stroke-width: 10px;
      }

      .cls-12, .cls-4 {
        fill: none;
      }

      .cls-4, .cls-6, .cls-7, .cls-8 {
        stroke: #fff;
      }

      .cls-5, .cls-7 {
        stroke-width: 2px;
      }

      .cls-9 {
        font-size: 57px;
        font-family: Abolition-Regular, Abolition;
      }

      .cls-11 {
        stroke: none;
      }
    </style>
  </defs>
  <g id="rectangle-21" class="cls-1" transform="translate(4533 1855)">
    <rect class="cls-11" width="900" height="545"/>
    <rect class="cls-12" x="0.5" y="0.5" width="899" height="544"/>
  </g>
  <g id="group-18" transform="translate(4686.5 1895.959)">
    <ellipse id="ellipse" class="cls-2" cx="281.93" cy="188.387" rx="281.93" ry="188.387" transform="translate(14.5 51.821)"/>
    <path id="path" class="cls-3" d="M77,61.567l48.392,94.194C244.129,100,372.211,93.212,512.346,150.395c0,0,34.434-59.218,51.59-88.827C564,54.782,330.644-62.235,77,61.567Z" transform="translate(-24.069 0)"/>
    <path id="path-2" data-name="path" class="cls-3" d="M221.879,610.6,204.6,663.341s160.365,60.143,327.8,0L514.569,610.6S371.975,655.939,221.879,610.6Z" transform="translate(-73.208 -232.031)"/>
    <ellipse id="ellipse-2" data-name="ellipse" class="cls-4" cx="46.978" cy="47.128" rx="46.978" ry="47.128" transform="translate(114.421 244.095)"/>
    <ellipse id="ellipse-3" data-name="ellipse" class="cls-4" cx="46.978" cy="47.128" rx="46.978" ry="47.128" transform="translate(398.379 244.095)"/>
    <path id="path-3" data-name="path" class="cls-5" d="M142.6,403.629c8.424-66.62,83.441-62.364,103.3-42.44,0,3.64-13.159,5.984-13.159,5.984-3.074-.925-28.408-8.081-52.389,5.3-26.379,14.743-27.3,43.056-27.3,43.056S147.212,423.8,142.6,403.629Z" transform="translate(-49.332 -131.529)"/>
    <path id="path-4" data-name="path" class="cls-6" d="M599.8,402.487c15.311-81.116,111.665-58.539,116.584-37.936,1.845,3.886-14.942,5.552-14.942,5.552-3.136-1.542-28.9-13.941-56.509-.8-30.437,14.5-35.971,49.41-35.971,49.41S602.137,436.229,599.8,402.487Z" transform="translate(-225.402 -132.304)"/>
    <ellipse id="ellipse-4" data-name="ellipse" class="cls-7" cx="13.835" cy="13.879" rx="13.835" ry="13.879" transform="translate(431.522 277.343)"/>
    <path id="path-5" data-name="path" class="cls-5" d="M743.927,378.454l-25.949,52.679-7.379.679L739.254,375" transform="translate(-268.071 -141.762)"/>
    <path id="path-6" data-name="path" class="cls-5" d="M634.7,232.5c11.929,15.421,2.89,31.275,0,36.333s-41.751-7.094-36.955-18.136C603.093,238.358,633.161,229.846,634.7,232.5Z" transform="translate(-224.452 -86.977)"/>
    <path id="path-7" data-name="path" class="cls-5" d="M616.029,445.5l57.616,11.042,2.582,6.97L614,450.928" transform="translate(-230.87 -168.774)"/>
    <path id="path-8" data-name="path" class="cls-5" d="M620.746,281.557l58.6,113.625-8.055,4.626L610.6,280.2" transform="translate(-229.561 -105.44)"/>
    <ellipse id="ellipse-5" data-name="ellipse" class="cls-8" cx="3.997" cy="4.01" rx="3.997" ry="4.01" transform="translate(441.36 287.213)"/>
    <path id="path-9" data-name="path" class="cls-5" d="M583.842,245.079c-2.952-6.847-6.7-10.116-9.531-11.905-12.974-8.142-34.742-1.542-34.742-1.542s-4.55,7.9,2.275,11.165c4.8-2.159,24.657-5.922,25.641-2.961a31.856,31.856,0,0,1,6.211,2.159c1.23.925,2.521,1.974,3.874,3.208C580.03,247.423,583.657,247.3,583.842,245.079Z" transform="translate(-201.634 -85.864)"/>
    <path id="path-10" data-name="path" class="cls-5" d="M588.011,248.126a16.788,16.788,0,0,0-15.126-11.165c-11.99-.74-28.224,5.367-28.224,5.367-1.722.555-3.812,9.561,3.5,11.35,5.411-1.974,11.376-3.886,17.894-5.613,2.091-.555,4.181-1.049,6.21-1.48a12.669,12.669,0,0,1,1.722,1.851,16.832,16.832,0,0,1,1.6,2.652L577.8,258.3" transform="translate(-203.529 -88.849)"/>
    <path id="path-11" data-name="path" class="cls-5" d="M477.08,323.386c-22.751-26.4,61.551-73.221,80.859-45.771C592.434,326.779,490.177,338.622,477.08,323.386Z" transform="translate(-176.653 -101.251)"/>
    <path id="path-12" data-name="path" class="cls-5" d="M365.821,301.4s10.084,6.785,8.732,16.223-71.2,24.366-92.911,20.973-28.408-11.967-54.049-8.7-11.437-18.259,0-18.259h54.049C306.3,309.913,365.821,301.4,365.821,301.4Z" transform="translate(-76.524 -113.562)"/>
    <ellipse id="ellipse-6" data-name="ellipse" class="cls-7" cx="13.835" cy="13.879" rx="13.835" ry="13.879" transform="translate(148.67 277.22)"/>
    <path id="path-13" data-name="path" class="cls-5" d="M256.487,368.149l-.553,58.786-6.333,3.824,1.168-63.659" transform="translate(-90.538 -138.735)"/>
    <path id="path-14" data-name="path" class="cls-5" d="M156.029,439.8l57.616,11.042,2.583,6.971L154,445.29" transform="translate(-53.722 -166.59)"/>
    <ellipse id="ellipse-7" data-name="ellipse" class="cls-8" cx="3.997" cy="4.01" rx="3.997" ry="4.01" transform="translate(158.508 286.041)"/>
    <text id="Est._1987" data-name="Est. 1987" class="cls-9" transform="matrix(1, -0.021, 0.021, 1, 217.946, 288.789)"><tspan x="0" y="0">Est. 1987</tspan></text>
    <path id="path-15" data-name="path" class="cls-5" d="M194.915,478.191a8.907,8.907,0,0,0,0,8.636h13.958s30.5,15.606,68.561,2.036c0,0,76.555,1.419,122.487-2.591,19.677-1.11,23.8-23.872,23.8-23.872h-6.579s-6.149,14.99-17.217,15.977-122.487,0-122.487,0-37.017-10.055-68.13,0Z" transform="translate(-69.058 -175.249)"/>
    <g id="group" transform="translate(149.347 391.585)">
      <g id="group-2" data-name="group">
        <path id="path-16" data-name="path" class="cls-10" d="M241.794,666.367c1.291-8.821,2.644-17.642,4.181-26.463-2.706,8.451-5.288,16.9-7.871,25.353-1.414-.432-2.828-.864-4.3-1.3,3.382-10.733,6.887-21.528,10.453-32.261,2.091.617,4.243,1.234,6.333,1.851-1.66,9.006-3.2,18.074-4.612,27.141,3.689-8.451,7.44-16.84,11.068-25.353,2.152.617,4.3,1.172,6.518,1.727-3.074,10.857-6.026,21.775-8.916,32.631-1.476-.37-3.013-.8-4.489-1.172q3.5-12.769,7.194-25.538c-3.628,8.2-7.256,16.408-10.884,24.551C244.93,667.231,243.331,666.8,241.794,666.367Z" transform="translate(-233.8 -631.7)"/>
        <path id="path-17" data-name="path" class="cls-10" d="M287.981,675.617c-1.168.679-2.337,1.3-3.566,1.912-2.767-.617-5.473-1.3-8.24-1.974-.8-1.111-1.537-2.221-2.275-3.331,2.4-9.191,4.8-18.382,7.317-27.512,1.168-.617,2.275-1.234,3.443-1.912,2.521.617,5.1,1.234,7.686,1.789.676,1.049,1.414,2.159,2.152,3.208C292.224,657.111,290.072,666.364,287.981,675.617Zm-1.66-28.622c-.369.185-.738.432-1.168.617-2.091,8.019-4.12,15.977-6.087,24l.738,1.111c.922.185,1.783.432,2.706.617.369-.185.8-.432,1.168-.617,1.906-8.019,3.874-16.038,5.842-24.057l-.738-1.11A17.608,17.608,0,0,1,286.321,646.995Z" transform="translate(-249.243 -635.953)"/>
        <path id="path-18" data-name="path" class="cls-10" d="M317.184,652.7c-2.091,9.87-4.12,19.74-6.149,29.609-1.6-.308-3.136-.617-4.735-.987,2.091-9.87,4.243-19.678,6.456-29.547l-4.243-.925c.246-1.172.553-2.282.8-3.454,4.243.925,8.486,1.789,12.79,2.591l-.738,3.516C319.951,653.26,318.6,653.013,317.184,652.7Z" transform="translate(-261.72 -637.715)"/>
        <path id="path-19" data-name="path" class="cls-10" d="M339.381,685.547c-1.107.74-2.275,1.419-3.382,2.159-2.767-.432-5.534-.925-8.24-1.419-.8-1.049-1.66-2.1-2.46-3.146,1.783-9.315,3.566-18.629,5.411-27.943,1.107-.679,2.214-1.419,3.259-2.1,2.583.432,5.1.925,7.686,1.3.738,1.049,1.537,2.036,2.337,3.084C342.394,666.794,340.857,676.17,339.381,685.547Zm-3.5-28.437-1.107.74c-1.537,8.081-3.013,16.223-4.489,24.3.246.37.553.678.8,1.049.922.185,1.783.308,2.706.432l1.107-.74c1.353-8.142,2.767-16.223,4.243-24.366a11.843,11.843,0,0,0-.8-1.049A18.306,18.306,0,0,1,335.876,657.11Z" transform="translate(-269.037 -639.899)"/>
        <path id="path-20" data-name="path" class="cls-10" d="M357.827,656.6c3.382.493,6.825.987,10.207,1.419.8.987,1.6,1.974,2.4,3.022-.615,4.626-1.168,9.315-1.783,13.941-.922.678-1.906,1.357-2.828,2.036.307,5,.676,9.993,1.045,14.928l-4.612-.555q-.554-7.31-.922-14.62c-.676-.062-1.291-.185-1.968-.247l-2.029,14.249c-1.6-.247-3.2-.432-4.735-.678C354.26,678.869,356.043,667.765,357.827,656.6Zm6.518,16.1c.492-3.516.984-6.971,1.476-10.487-.246-.308-.553-.678-.8-.987-1.107-.123-2.152-.308-3.259-.432-.615,4.071-1.23,8.143-1.783,12.214,1.107.185,2.214.309,3.32.432C363.607,673.193,363.976,672.947,364.345,672.7Z" transform="translate(-279.55 -641.24)"/>
        <path id="path-21" data-name="path" class="cls-10" d="M384.343,662.944c1.045-.8,2.091-1.542,3.074-2.344,2.275.247,4.55.493,6.825.678.861.987,1.66,1.912,2.521,2.9l-.738,7.587c-1.537-.123-3.013-.309-4.55-.432.184-1.912.43-3.886.615-5.8-.307-.308-.553-.679-.861-.987l-1.66-.185a11.8,11.8,0,0,0-1.045.8c-.922,8.2-1.845,16.408-2.706,24.613a12.3,12.3,0,0,1,.861.987c.615.062,1.168.123,1.783.185a6.725,6.725,0,0,0,1.045-.8l.553-5.737c1.537.185,3.136.309,4.673.432-.246,2.529-.492,5.058-.676,7.587-1.045.8-2.152,1.6-3.2,2.406-2.46-.247-4.858-.494-7.317-.74-.922-.987-1.783-1.974-2.644-2.961C382.068,681.758,383.237,672.32,384.343,662.944Z" transform="translate(-290.449 -642.773)"/>
        <path id="path-22" data-name="path" class="cls-10" d="M412.306,696.412c.307-3.7.553-7.341.861-11.042-1.291-7.711-2.46-15.36-3.566-23.07,1.6.124,3.2.247,4.735.37.492,5.552.984,11.165,1.537,16.717,1.353-5.428,2.706-10.857,4-16.347,1.6.123,3.2.185,4.735.309-2.214,7.464-4.55,14.928-6.887,22.33-.246,3.7-.492,7.341-.738,11.042C415.38,696.659,413.843,696.535,412.306,696.412Z" transform="translate(-301.502 -643.424)"/>
        <path id="path-23" data-name="path" class="cls-10" d="M435.737,667.029c.984-.864,1.968-1.666,2.89-2.529,2.275.123,4.55.185,6.825.247.922.925,1.783,1.851,2.706,2.714q-.092,3.794-.185,7.587c-1.537-.062-3.013-.062-4.55-.123.061-1.912.123-3.886.185-5.8l-.922-.925c-.553,0-1.107-.062-1.66-.062-.307.308-.615.555-.984.864-.369,8.266-.738,16.532-1.045,24.736l.922.925c.615,0,1.168.062,1.783.062.369-.308.676-.555.984-.864.061-1.912.123-3.825.184-5.8,1.537.062,3.136.124,4.673.124-.062,2.529-.123,5.12-.185,7.649-.984.864-2.029,1.727-3.013,2.591-2.46-.062-4.919-.185-7.317-.308-.922-.925-1.906-1.85-2.829-2.776C434.692,685.967,435.184,676.467,435.737,667.029Z" transform="translate(-310.975 -644.267)"/>
        <path id="path-24" data-name="path" class="cls-10" d="M460.1,698.842c.246-11.227.43-22.515.676-33.742,1.476,0,2.952.062,4.427.062-.123,10.055-.185,20.048-.307,30.1h6.272v3.64C467.479,698.965,463.789,698.9,460.1,698.842Z" transform="translate(-320.949 -644.497)"/>
        <path id="path-25" data-name="path" class="cls-10" d="M481.1,665.085c3.628,0,7.317-.062,10.945-.185.061,1.234.061,2.406.123,3.639-2.214.062-4.366.123-6.579.123.062,3.7.123,7.464.184,11.165,1.968-.062,3.935-.062,5.841-.123.062,1.234.062,2.406.123,3.64-1.968.062-3.935.123-5.9.123q.092,5.83.184,11.659c2.337-.062,4.673-.062,7.01-.185.061,1.234.061,2.406.123,3.639-3.935.123-7.871.185-11.867.247C481.284,687.6,481.223,676.374,481.1,665.085Z" transform="translate(-329.036 -644.421)"/>
        <path id="path-26" data-name="path" class="cls-10" d="M514.9,666.569c.861-.925,1.783-1.851,2.644-2.838,2.275-.123,4.55-.247,6.825-.432.984.8,1.968,1.665,3.013,2.467.185,2.529.431,5.058.615,7.587-1.537.123-3.013.247-4.55.308-.123-1.912-.246-3.886-.431-5.8-.307-.247-.676-.555-.984-.8-.553.062-1.107.062-1.66.123-.307.308-.553.617-.861.925.492,8.266,1.045,16.47,1.537,24.736.369.247.676.555,1.045.8.615-.062,1.168-.062,1.783-.123l.922-.925q-.184-2.869-.369-5.737c1.537-.123,3.136-.247,4.673-.308.184,2.529.369,5.058.615,7.587-.922.987-1.845,1.912-2.767,2.9-2.46.185-4.919.308-7.317.493-1.045-.8-2.091-1.666-3.136-2.529C515.884,685.507,515.392,676.007,514.9,666.569Z" transform="translate(-342.053 -643.807)"/>
        <path id="path-27" data-name="path" class="cls-10" d="M541.829,696.089c-.922-11.227-1.845-22.453-2.829-33.619l4.427-.37c.984,9.993,1.906,19.986,2.829,29.979,2.091-.185,4.181-.37,6.272-.617.123,1.234.246,2.406.369,3.639C549.207,695.472,545.518,695.78,541.829,696.089Z" transform="translate(-351.334 -643.348)"/>
        <path id="path-28" data-name="path" class="cls-10" d="M558.9,660c3.628-.37,7.256-.864,10.945-1.3.185,1.234.308,2.406.492,3.64-2.214.308-4.366.555-6.579.8.43,3.7.922,7.4,1.353,11.1,1.968-.247,3.935-.494,5.842-.74.184,1.234.308,2.406.492,3.639l-5.9.74c.492,3.824.922,7.711,1.414,11.535,2.337-.247,4.673-.555,7.01-.864.184,1.234.307,2.406.492,3.639-3.935.494-7.87.987-11.867,1.419C561.421,682.325,560.191,671.16,558.9,660Z" transform="translate(-358.997 -642.045)"/>
        <path id="path-29" data-name="path" class="cls-10" d="M590.519,681.4c.123,2.9.246,5.86.307,8.759-1.6.247-3.2.432-4.735.678,0-11.35-.184-22.7-.492-34.05,2.091-.308,4.243-.617,6.333-.987,3.32,10.857,6.641,21.775,10.084,32.57-1.66.247-3.32.555-4.919.8-.738-2.838-1.537-5.613-2.275-8.451C593.348,680.968,591.933,681.214,590.519,681.4Zm-1.045-20.726c.308,5.675.615,11.412.861,17.087,1.168-.185,2.4-.37,3.566-.555C592.425,671.715,590.95,666.225,589.474,660.673Z" transform="translate(-369.28 -640.934)"/>
        <path id="path-30" data-name="path" class="cls-10" d="M606.1,652.591c1.6-.247,3.2-.555,4.8-.864,3.2,7.341,6.395,14.681,9.715,22.022-1.537-7.649-3.074-15.3-4.673-22.947,1.353-.247,2.644-.493,4-.8,2.4,11.042,4.735,22.022,6.949,33.063-1.722.37-3.444.679-5.165.987-3.259-7.217-6.518-14.434-9.654-21.651,1.414,7.587,2.828,15.113,4.243,22.7-1.415.247-2.89.493-4.3.74C610.1,674.736,608.129,663.694,606.1,652.591Z" transform="translate(-377.174 -638.712)"/>
        <path id="path-31" data-name="path" class="cls-10" d="M633.5,647.506q5.442-1.11,10.884-2.406c.307,1.172.615,2.344.861,3.516-2.152.494-4.366.987-6.518,1.481.861,3.64,1.722,7.279,2.521,10.918,1.968-.432,3.874-.864,5.841-1.3.307,1.172.553,2.344.861,3.516l-5.9,1.3c.861,3.763,1.722,7.587,2.583,11.35,2.337-.493,4.673-1.049,7.01-1.6.307,1.172.553,2.344.861,3.516q-5.9,1.388-11.806,2.591Q637.189,664.1,633.5,647.506Z" transform="translate(-387.726 -636.834)"/>
        <path id="path-32" data-name="path" class="cls-10" d="M655.2,642.629c3.382-.8,6.764-1.666,10.146-2.529l3.5,1.851c1.291,4.5,2.583,9.006,3.874,13.571-.615.987-1.23,1.974-1.906,2.961,2.275,4.5,4.55,8.944,6.825,13.447-1.537.432-3.074.8-4.612,1.172-2.214-4.38-4.366-8.821-6.579-13.2-.677.185-1.291.308-1.968.493,1.23,4.626,2.4,9.315,3.566,13.941-1.6.37-3.136.8-4.734,1.172C660.734,664.527,657.967,653.547,655.2,642.629Zm12.482,12.4c-.922-3.393-1.845-6.847-2.829-10.24-.369-.185-.8-.432-1.168-.617-1.107.247-2.152.555-3.259.8,1.045,4.01,2.091,7.958,3.136,11.967,1.107-.247,2.214-.555,3.32-.864A3.18,3.18,0,0,0,667.682,655.028Z" transform="translate(-396.083 -634.918)"/>
        <path id="path-33" data-name="path" class="cls-10" d="M690.286,638.165c-.369-.185-.8-.37-1.168-.555-.553.185-1.045.308-1.6.493-.246.37-.431.74-.676,1.11.922,3.023,1.845,6.107,2.767,9.129.43.185.8.37,1.23.555l4.427-1.3c1.23.555,2.46,1.11,3.628,1.727,1.414,4.318,2.767,8.636,4.12,13.016-.738,1.172-1.414,2.282-2.152,3.454-2.521.74-4.981,1.419-7.5,2.159-1.23-.555-2.46-1.172-3.689-1.727-.615-2.282-1.291-4.565-1.968-6.785l4.612-1.3c.492,1.665.984,3.393,1.537,5.058.43.185.8.37,1.23.555.676-.185,1.291-.37,1.968-.555l.738-1.11c-.984-3.208-1.968-6.354-2.951-9.561-.431-.185-.8-.37-1.23-.555-1.476.432-3.013.864-4.489,1.3-1.23-.617-2.4-1.172-3.628-1.789-1.23-4.195-2.46-8.451-3.689-12.646.677-1.11,1.353-2.221,1.968-3.331,2.214-.617,4.489-1.3,6.7-1.912,1.168.555,2.4,1.172,3.566,1.727.738,2.282,1.476,4.5,2.213,6.785-1.476.432-3.013.864-4.489,1.3A46.924,46.924,0,0,0,690.286,638.165Z" transform="translate(-406.327 -632.428)"/>
      </g>
    </g>
    <g id="group-3" data-name="group" transform="translate(86.32 27.209)">
      <g id="group-4" data-name="group">
        <path id="path-34" data-name="path" class="cls-10" d="M171.822,92.866c2.091,6.354,4.243,12.707,6.333,19.061-2.152,2.406-4.3,4.811-6.395,7.279q4.7.833,9.408,1.851c2.214,6.785,4.489,13.509,6.7,20.295-2.029,2.344-4,4.688-5.964,7.094q-13.743,4.811-27.24,10.487-11.714-27.944-23.366-55.949Q146.519,96.6,161.922,91.2C165.242,91.693,168.5,92.249,171.822,92.866Zm-6.395,23.626c-1.906-5.367-3.874-10.733-5.78-16.038-1.107-.185-2.214-.308-3.259-.493-3.2,1.172-6.395,2.406-9.531,3.639,2.46,6.292,4.919,12.584,7.317,18.876l9.223-3.516C164.012,118.157,164.75,117.355,165.427,116.491ZM156.449,128.4c2.521,6.539,5.1,13.077,7.625,19.616,2.89-1.11,5.78-2.221,8.732-3.331.676-.8,1.291-1.6,1.968-2.406l-6.087-16.84-3.136-.555C162.475,126.114,159.462,127.224,156.449,128.4Z" transform="translate(-131.3 -60.234)"/>
        <path id="path-35" data-name="path" class="cls-10" d="M208.6,79.471c4.489-1.419,8.977-2.776,13.528-4.071q8.393,29.146,16.664,58.354c-4,1.172-8.055,2.344-11.991,3.639C220.713,118.025,214.687,98.779,208.6,79.471Z" transform="translate(-161.069 -54.18)"/>
        <path id="path-36" data-name="path" class="cls-10" d="M270.15,106.661c1.107,4.688,2.214,9.376,3.382,14.064-4.058.987-8.117,1.974-12.113,3.084q-7.84-29.331-15.618-58.6c4.55-1.234,9.1-2.344,13.651-3.454l7.563,31.46c2.583-11.72,5.473-23.379,8.732-35.1,4.612-.987,9.285-1.851,13.9-2.714q-5.073,14.619-9.408,29.239c7.317,9.993,14.266,20.048,20.968,30.288-4.243.74-8.547,1.6-12.79,2.467-4.673-7.464-9.469-14.928-14.389-22.268C272.671,98.95,271.441,102.774,270.15,106.661Z" transform="translate(-175.395 -46.517)"/>
        <path id="path-37" data-name="path" class="cls-10" d="M328,50.488q17.064-2.868,34.25-4.688c.246,2.159.43,4.318.676,6.539-6.7.679-13.466,1.542-20.169,2.467.922,6.662,1.906,13.262,2.828,19.924,5.657-.8,11.253-1.542,16.91-2.159.246,2.159.492,4.318.738,6.539-5.6.617-11.13,1.3-16.725,2.1l2.952,20.726c6.21-.864,12.421-1.666,18.631-2.282.246,2.159.43,4.318.676,6.539-10.269,1.049-20.538,2.467-30.745,4.195C334.7,90.337,331.382,70.413,328,50.488Z" transform="translate(-207.05 -42.839)"/>
        <path id="path-38" data-name="path" class="cls-10" d="M457.858,101.637q-4.981-23.78-10.884-47.436.646,23.78,1.168,47.56c-3.751.062-7.5.247-11.253.432-.984-20.233-1.906-40.4-2.89-60.575,6.764-.308,13.466-.493,20.23-.617q5.442,24.427,9.961,48.978,4.888-24.427,10.7-48.855,10.33.278,20.661.925-1.937,30.257-3.874,60.575c-3.935-.247-7.871-.432-11.806-.617.615-15.853,1.291-31.706,1.906-47.559q-6.272,23.595-11.621,47.251C466.036,101.637,461.978,101.637,457.858,101.637Z" transform="translate(-247.871 -41)"/>
        <path id="path-39" data-name="path" class="cls-10" d="M553.141,90.554c-1.414,5.12-2.767,10.178-4.12,15.3-4.12-.432-8.24-.8-12.421-1.11,5.411-19.863,11.375-39.664,17.709-59.341,6.7.679,13.343,1.48,19.984,2.406,1.783,20.665,3.013,41.329,3.813,61.932-4.3-.679-8.547-1.357-12.851-1.912-.123-5.3-.246-10.548-.431-15.853C560.95,91.417,557.015,90.924,553.141,90.554Zm10.146-36.209q-4.427,14.9-8.547,29.794c3.321.37,6.641.74,9.961,1.172C564.332,75.009,563.84,64.646,563.286,54.344Z" transform="translate(-287.383 -42.686)"/>
        <path id="path-40" data-name="path" class="cls-10" d="M622.17,59.746c3.136-1.049,6.272-2.159,9.469-3.146,7.5,1.419,15,3.023,22.505,4.75,2.521,2.221,4.981,4.441,7.379,6.724-1.045,4.133-2.091,8.328-3.074,12.46q-6.641-1.666-13.282-3.146l2.029-9.253c-.8-.74-1.66-1.48-2.46-2.159-2.152-.493-4.243-.925-6.395-1.357-1.045.308-2.091.679-3.136.987-2.89,14.5-5.719,29.054-8.608,43.55.738.679,1.537,1.419,2.275,2.1,1.968.37,3.874.8,5.841,1.234.984-.308,1.968-.679,2.951-.987,1.23-5.428,2.4-10.795,3.566-16.223-2.152-.493-4.3-.925-6.456-1.419.492-2.221.922-4.5,1.414-6.724,6.518,1.357,13.036,2.838,19.492,4.5-2.152,8.7-4.3,17.334-6.456,26.031-2.951.925-5.841,1.851-8.793,2.776-6.641-1.542-13.343-2.961-20.046-4.256-2.275-2.036-4.55-4.071-6.887-6.107Q617.927,84.914,622.17,59.746Z" transform="translate(-316.997 -46.977)"/>
        <path id="path-41" data-name="path" class="cls-10" d="M697.818,71.3c4.55,1.234,9.1,2.467,13.589,3.825q-8.486,29.146-17.094,58.231c-4-1.172-8.055-2.344-12.114-3.393Q690.04,100.631,697.818,71.3Z" transform="translate(-343.454 -52.609)"/>
        <path id="path-42" data-name="path" class="cls-10" d="M732.064,130.276c-1.537,4.565-3.136,9.129-4.673,13.694-4-1.357-7.994-2.714-11.99-3.948L733.478,82.1q6.733,2.128,13.466,4.441c-3.443,10.178-6.948,20.418-10.392,30.6,8.485-8.451,17.217-16.778,26.317-24.859,4.489,1.727,8.977,3.454,13.4,5.243q-12.175,9.53-23.735,19.554,1.383,18.506,1.722,36.95c-4.058-1.666-8.178-3.269-12.3-4.873.061-8.821-.061-17.7-.369-26.586C738.336,125.156,735.2,127.686,732.064,130.276Z" transform="translate(-356.24 -56.747)"/>
      </g>
    </g>
  </g>
</svg>
