<svg xmlns="http://www.w3.org/2000/svg" viewBox="7831 3311 46 46">
  <defs>
    <style>
      .cls-1 {
        fill: #959595;
      }
    </style>
  </defs>
  <path id="path-3" class="cls-1" d="M40.378,0H5.622A5.731,5.731,0,0,0,0,5.878v34.5A5.672,5.672,0,0,0,5.622,46H23V29.389H17.633V22.233H23V18.656a9.879,9.879,0,0,1,9.456-9.967h5.367v8.178h-4.6a1.431,1.431,0,0,0-1.533,1.278v4.344h6.133v7.156H31.689V46h8.689A5.672,5.672,0,0,0,46,40.378V5.622A5.672,5.672,0,0,0,40.378,0Z" transform="translate(7831 3311)"/>
</svg>
