<svg xmlns="http://www.w3.org/2000/svg" viewBox="7759 3311 46 46">
  <defs>
    <style>
      .cls-1 {
        fill: #959595;
      }
    </style>
  </defs>
  <g id="github-sign" transform="translate(7759 3311)">
    <g id="group">
      <path id="path" d="M154.536,352.52q-.48.089-.419.449t.539.239q.48-.12.419-.419Q155.016,352.46,154.536,352.52Z" transform="translate(-137.945 -315.534)"/>
      <path id="path-2" data-name="path" d="M137.809,354.816c-.32,0-.479.109-.479.329q0,.389.509.329.479,0,.479-.329Q138.318,354.757,137.809,354.816Z" transform="translate(-122.925 -317.591)"/>
      <path id="path-3" data-name="path" d="M119.435,351.961q-.12.33.389.449.449.179.569-.18.09-.329-.389-.479C119.7,351.672,119.515,351.741,119.435,351.961Z" transform="translate(-106.887 -314.826)"/>
      <path id="path-4" data-name="path" class="cls-1" d="M43.469,2.53A8.307,8.307,0,0,0,37.375,0H8.625A8.309,8.309,0,0,0,2.53,2.53,8.309,8.309,0,0,0,0,8.625v28.75a8.307,8.307,0,0,0,2.53,6.094A8.308,8.308,0,0,0,8.625,46h6.708a8.1,8.1,0,0,0,.988-.044,1.159,1.159,0,0,0,.659-.39,1.4,1.4,0,0,0,.329-1q0-.089-.015-2.037t-.015-3.085l-.689.12a8.814,8.814,0,0,1-1.662.1,12.789,12.789,0,0,1-2.081-.21,4.666,4.666,0,0,1-2.007-.9,3.8,3.8,0,0,1-1.317-1.842l-.3-.689A7.481,7.481,0,0,0,8.28,34.5a3.614,3.614,0,0,0-1.3-1.138l-.21-.15a2.2,2.2,0,0,1-.389-.36,1.664,1.664,0,0,1-.269-.419q-.09-.21.15-.345a1.947,1.947,0,0,1,.869-.134l.6.09a4.366,4.366,0,0,1,1.483.719,4.833,4.833,0,0,1,1.452,1.557,5.278,5.278,0,0,0,1.662,1.872,3.524,3.524,0,0,0,1.961.644,8.508,8.508,0,0,0,1.707-.149,5.963,5.963,0,0,0,1.348-.45,4.854,4.854,0,0,1,1.467-3.085,20.508,20.508,0,0,1-3.07-.539,12.234,12.234,0,0,1-2.815-1.168,8.06,8.06,0,0,1-2.411-2.007,9.647,9.647,0,0,1-1.572-3.145A14.957,14.957,0,0,1,8.325,21.8a8.735,8.735,0,0,1,2.366-6.169A8.051,8.051,0,0,1,10.9,9.522a4.2,4.2,0,0,1,2.576.4,18.061,18.061,0,0,1,2.5,1.153q.794.479,1.273.809a21.622,21.622,0,0,1,11.5,0l1.138-.719a16.11,16.11,0,0,1,2.755-1.318,3.923,3.923,0,0,1,2.426-.329,7.972,7.972,0,0,1,.239,6.109A8.736,8.736,0,0,1,37.675,21.8a15.1,15.1,0,0,1-.614,4.507,9.252,9.252,0,0,1-1.587,3.145,8.375,8.375,0,0,1-2.426,1.992,12.217,12.217,0,0,1-2.815,1.168,20.493,20.493,0,0,1-3.07.54A5.334,5.334,0,0,1,28.72,37.4v7.158a1.927,1.927,0,0,0,.149.824.827.827,0,0,0,.479.434,2.654,2.654,0,0,0,.584.149,6.724,6.724,0,0,0,.734.03h6.708A8.64,8.64,0,0,0,46,37.374V8.625A8.309,8.309,0,0,0,43.469,2.53Z"/>
      <path id="path-5" data-name="path" d="M86.011,318.579q-.209.149.06.479.3.3.479.09.209-.149-.06-.479Q86.191,318.4,86.011,318.579Z" transform="translate(-76.907 -285.097)"/>
      <path id="path-6" data-name="path" d="M77.2,311.255q-.09.21.21.359a.256.256,0,0,0,.389-.06q.09-.21-.21-.36Q77.287,311.1,77.2,311.255Z" transform="translate(-69.081 -278.522)"/>
      <path id="path-7" data-name="path" d="M94.495,329.7q-.27.149,0,.539t.509.21q.27-.21,0-.569C94.844,329.623,94.674,329.562,94.495,329.7Z" transform="translate(-84.462 -295.053)"/>
      <path id="path-8" data-name="path" d="M104.7,342.19c-.18.16-.14.349.12.569q.359.359.6.089.24-.239-.12-.569Q104.939,341.922,104.7,342.19Z" transform="translate(-93.618 -306.193)"/>
    </g>
  </g>
</svg>
