<?xml version="1.0" encoding="utf-8"?>
<!-- Generator: Adobe Illustrator 19.2.1, SVG Export Plug-In . SVG Version: 6.00 Build 0)  -->
<svg version="1.1" id="Capa_1" xmlns="http://www.w3.org/2000/svg" xmlns:xlink="http://www.w3.org/1999/xlink" x="0px" y="0px"
	 viewBox="0 0 53.2 48.4" style="enable-background:new 0 0 53.2 48.4;" xml:space="preserve">
<style type="text/css">
	.st0{fill:#666666;}
</style>
<title>hamburger-menu-white</title>
<path class="st0" d="M5,10.3h43.3c1.6,0,2.9-1,2.9-2.3s-1.4-2.3-3-2.3H5c-1.6,0-2.9,1-2.9,2.3S3.3,10.3,5,10.3z M48.1,22.7H5
	c-1.6,0-2.9,1-2.9,2.3s1.3,2.3,2.9,2.3h43.3c1.6,0,2.9-1,2.9-2.3l0,0c0.1-1.2-1.2-2.3-2.6-2.3C48.4,22.7,48.2,22.7,48.1,22.7
	L48.1,22.7z M48.1,39.8H5c-1.6,0-2.9,1-2.9,2.3c0,1.2,1.3,2.3,2.9,2.3h43.3c1.6,0,2.9-1,2.9-2.3l0,0C51.1,40.9,49.8,39.8,48.1,39.8
	C48.2,39.8,48.1,39.8,48.1,39.8L48.1,39.8z"/>
</svg>
