<svg xmlns="http://www.w3.org/2000/svg" viewBox="3876 670 303.902 189.093">
  <defs>
    <style>
      .cls-1 {
        opacity: 0.1;
      }

      .cls-2 {
        fill: #7c7877;
      }

      .cls-3 {
        opacity: 0.75;
      }

      .cls-4 {
        fill: #fbd14b;
      }
    </style>
  </defs>
  <g id="group-30" transform="translate(3847)">
    <g id="group-14" transform="translate(29 670)">
      <g id="_Group__1_" class="cls-1" transform="translate(95.814 0)">
        <path id="_Path__1_" class="cls-2" d="M206.338,59.432a17.152,17.152,0,0,1,2.158-1.054,25.81,25.81,0,0,1,9.886-1.857,36.815,36.815,0,0,1,5.771.5l-10.99-7.477,18.016,9.234c1.255.452,2.409.853,3.312,1.255v-.05c-1.2-4.717-4.567-14.854-12.7-19.672A25.084,25.084,0,0,0,209.048,37.2,42.826,42.826,0,0,0,196,39.358S198.007,52.255,206.338,59.432Z" transform="translate(-193.541 -18.582)"/>
        <path id="_Path_2_1_" class="cls-2" d="M209.568,96.048l11.944-5.872a49.518,49.518,0,0,1,7.176-5.771A37.742,37.742,0,0,0,215.991,82a22.4,22.4,0,0,0-8.682,1.606C195.767,88.42,191.1,103.727,191.1,103.727s8.08,4.266,17.012,4.266a22.955,22.955,0,0,0,4.165-.351,15.934,15.934,0,0,1,.3-2.158A27.59,27.59,0,0,1,219.1,92.736Z" transform="translate(-191.1 -40.896)"/>
        <path id="_Path_3_1_" class="cls-2" d="M251.442,116.188,254.5,92.3c-3.764,2.459-12.8,9.284-14.654,18.97-2.359,12.3,7.879,24.59,7.879,24.59s13.6-7.477,16.209-19.471c-5.169-5.52-7.126-12.947-7.829-18.367Z" transform="translate(-215.209 -46.03)"/>
        <path id="_Path_4_1_" class="cls-2" d="M303.192,98.761a8.219,8.219,0,0,0-1.3-1,29.027,29.027,0,0,1-8.029,1.154,39.516,39.516,0,0,1-8.431-1L296.919,109.7l-16.36-13.148c-.9-.3-1.756-.6-2.359-.853.251,5.069,1.706,15.156,8.431,21.278,6.022,5.47,14.754,6.424,20.174,6.424a40.426,40.426,0,0,0,4.918-.3C311.723,123.151,312.476,107.192,303.192,98.761Z" transform="translate(-234.49 -47.724)"/>
        <path id="_Path_5_1_" class="cls-2" d="M302.776,55.192,284.108,65.329A22.291,22.291,0,0,1,282,66.834a40.936,40.936,0,0,0,13.75,2.66,23.418,23.418,0,0,0,9.786-2.007c11.342-5.269,15.356-20.776,15.356-20.776A41.589,41.589,0,0,0,304.934,43.1,23.2,23.2,0,0,0,295.349,45a25.071,25.071,0,0,1-6.273,15.507Z" transform="translate(-236.383 -21.518)"/>
        <path id="_Path_6_1_" class="cls-2" d="M264.491,35.53l.953-15.457.853,14.052h0l-.05,1.556-.151,6.825c9.033-6.273,21.027-22.934-.7-42.405,0,0-10.539,8.732-12.094,19.973C259.172,24.088,262.584,30.461,264.491,35.53Z" transform="translate(-222.086 -0.1)"/>
      </g>
      <path id="path" class="cls-2" d="M41.438,14h.151c.05,0,.1.05.151.1v.05L41.99,14c.05,0,.1.05.151.1v.05L42.392,14h.251a32.5,32.5,0,0,1,4.918.4,3.458,3.458,0,0,1,.4-.151c0,.2.452.3,1.3.4l.251-.151c.6.05.9.2.9.552h1.054a.766.766,0,0,1,.552.552l.4-.251a2.7,2.7,0,0,1,1.054.4,3.458,3.458,0,0,1,.4-.151l2.007,1.606-.151.251a1.329,1.329,0,0,1,1.054.8.806.806,0,0,0,.552.251v.151H57.1a6.055,6.055,0,0,0,1.2,1.054l-.151.251v.151c.4,0,.7.452.953,1.3a.667.667,0,0,1,.4.151l-.151.552a3.761,3.761,0,0,0,.251.8c-.05,0-.1.05-.151.1v.05a.545.545,0,0,1,.4.4v.251c0,.05-.05.1-.1.151h-.05a9.047,9.047,0,0,0,.4,1.054l-.151.652.151,1.054.251-.151.151.251c0,.151-.05.251-.2.251h-.05v-.251c-.2,0-.351.2-.4.652a.777.777,0,0,1,.552.4v.151l-.4.8c.2,0,.251.05.251.151a3.458,3.458,0,0,0-.151.4h.151l-.251.652a.237.237,0,0,1,.251.251h0c0,.151-.151.251-.4.251l.151.652a.237.237,0,0,0-.251.251h0l.151.652a1.057,1.057,0,0,0-.8.652v.151l.151.251a.237.237,0,0,0-.251.251h0c.05,0,.1.05.151.1v.05c-.05,0-.1.05-.151.1v.05a.237.237,0,0,1,.251.251h0a1.62,1.62,0,0,1-.4,1.054H58.7v.652l-.652.8H58.3v.151a4.544,4.544,0,0,0-.652,1.3l.151.251a9.774,9.774,0,0,0-1.2,2.258,5.9,5.9,0,0,0-1.054,1.706,7.857,7.857,0,0,0-1.3,2.007c-.151,0-.552.552-1.3,1.606a1.45,1.45,0,0,1-1.054,1.3c0,.151-.251.351-.8.652,0,.151-.251.351-.8.652q0,.376-.9,1.054c0,.452-.251.652-.8.652l-.8.953a3.457,3.457,0,0,0-.4-.151l.151.251-.552.4-.251-.151c0,.351-.1.552-.251.552l-.251-.151c0,.5-.753,1.054-2.258,1.706a19.743,19.743,0,0,0,2.258,5.57,3.715,3.715,0,0,1,.8,2.007c.2,0,.953.953,2.258,2.911A24.952,24.952,0,0,0,52.83,67.6a41.8,41.8,0,0,0,5.821,5.721,29.634,29.634,0,0,1,4.366,3.463,2.866,2.866,0,0,1,1.054.652,2.918,2.918,0,0,1,1.3.652,26.32,26.32,0,0,0,4.517,2.108v.151l.652-.151-.151.251v.1h.151v-.251c.8.1,1.2.251,1.2.4.05,0,.1-.05.151-.1v-.05c1.405.151,2.108.251,2.108.4l.652-.151h1.3c.05,0,.1.05.151.1v.05a2.284,2.284,0,0,1,.953-.4v.151c2.409-.552,3.914-1.3,4.517-2.409a7.233,7.233,0,0,0,.953-2.509h.251c0-.151-.05-.251-.2-.251h-.05c.05-.552.151-.8.251-.8l-.151-.251V74.02c0-.05.05-.1.1-.151h.05l-.151-.251c0-.05.05-.1.1-.151h.05c0-2.258-.9-5.018-2.66-8.23a6.122,6.122,0,0,0-4.517-1.606h-.4c-2.007,0-3.463.552-4.366,1.706l-.953,1.2.151.251c-.251.753-.452,1.154-.652,1.2a1.516,1.516,0,0,1,.251.8c0,.05-.05.1-.1.151h-.05l.151.251-.151.652a7.658,7.658,0,0,1,.8,2.108,3.882,3.882,0,0,0,3.312,1.455c0,.1.151.151.4.151a9.4,9.4,0,0,0,1.606-.4c0,.05.05.1.1.151h.05l1.2-1.054-.251-.4-.251.151h-.151a2.981,2.981,0,0,1-1.706-1.857v.05h.151a3.456,3.456,0,0,1-.151-.4c.05-.4.552-.8,1.455-1.2a2.956,2.956,0,0,1,2.911,2.409,3.262,3.262,0,0,1-1.706,3.162,2.137,2.137,0,0,1-1.455.8c0-.05-.05-.1-.1-.151h-.05c0,.251-.6.452-1.857.552,0-.05-.05-.1-.1-.151h-.05c0,.151-.05.251-.2.251h-.05a3.641,3.641,0,0,1-1.857-.8,6.217,6.217,0,0,1-3.162-5.821c.1-.552.151-.8.251-.8l-.151-.251.251-.4a1.144,1.144,0,0,0-.151-.552A6.435,6.435,0,0,1,70.7,63.933a9.231,9.231,0,0,0,2.66-1.2.667.667,0,0,1,.4.151,15.365,15.365,0,0,1,1.606-.251,3.458,3.458,0,0,0,.4.151l.652-.251.8.4h.3l.652-.151.151.251c.05,0,.1-.05.151-.1v-.05a3.056,3.056,0,0,1,2.108.953c.652.251,1.506,1.3,2.509,3.162v.552l-.151.251a.545.545,0,0,1,.4.4c-.05,0-.1.05-.151.1v.05c.2,0,.552.9.953,2.66a.237.237,0,0,0-.251.251h0c.251,0,.4.1.4.251l-.151.552.251,1.054-.4.251a4.535,4.535,0,0,0,.4,1.054v.151c0,.2-.151.251-.4.251l.151.251v.953h-.251l-.251-.151v.151c0,.05.05.1.1.151h.05a16.183,16.183,0,0,1-2.509,5.32,9.518,9.518,0,0,1-3.312,2.66,5.4,5.4,0,0,1-1.455.652v-.151a10.642,10.642,0,0,1-2.81.8h-.151c-.05,0-.1-.05-.151-.1v-.05a4,4,0,0,1-1.857.552,3.82,3.82,0,0,0-1.054-.151l-.652.151a3.458,3.458,0,0,0-.4-.151,3.458,3.458,0,0,1-.4.151.512.512,0,0,1-.4-.251c-.05,0-.1.05-.151.1v.05a15.561,15.561,0,0,1-5.018-1.606l-.251.151A12.016,12.016,0,0,1,58.6,81.247a11.984,11.984,0,0,1-2.007-1.706v-.3c.251,0,.4.2.4.552h.251l-2.911-3.814v.151a3.458,3.458,0,0,1,.151.4h-.251a7.362,7.362,0,0,0-1.2-1.857c0-.05.05-.1.1-.151h.2v-.3a1.19,1.19,0,0,1-1.2-.8v-.151h.4a3.458,3.458,0,0,1-.151-.4l-.251.151h-.151c-.2,0-.452-.452-.8-1.3.05,0,.1-.05.151-.1v-.05c-.3,0-.853-1-1.706-3.061a113.782,113.782,0,0,1-7.176-13.9l-.251-.151c0,.2-.853.652-2.509,1.3l-.351-.1a17.666,17.666,0,0,1-3.714,1.2,3.457,3.457,0,0,0-.4-.151c0,.2-.351.3-1.054.4v.151l-.652-.1h-.3a1.144,1.144,0,0,0-.552.151l-.251-.151a2.487,2.487,0,0,0-1.3.4,3.458,3.458,0,0,1-.151-.4l-.4.251H30.4c-.05,0-.1-.05-.151-.1v-.05a1.012,1.012,0,0,1-.552.151l.151.251v.151c0,.05-.05.1-.1.151H29.7l.151.251a1.116,1.116,0,0,0-.4.652,3.457,3.457,0,0,1,.151.4,9.811,9.811,0,0,0-1.3,3.061,21.507,21.507,0,0,0-1.3,2.911c-1.255,1.857-1.857,3.061-1.857,3.563-.151,0-.251-.151-.251-.4h-.151a1.114,1.114,0,0,1-.251.552V69.1l.4-.251h.151V69l-1.054,1.2c.05,0,.1.05.151.1v.05c-.251.1-.652.753-1.2,1.857a.758.758,0,0,0-.8.552c.05,0,.1.05.151.1v.05a.758.758,0,0,0-.552.8l-.251-.151h-.1a2.631,2.631,0,0,1-.552.953c0,.4-.652,1-2.007,1.857v.151h-.151l-.251-.151c0,.351-.251.552-.8.652v-.3a16.074,16.074,0,0,1-3.162,1.706c0-.05-.05-.1-.1-.151h-.05a.545.545,0,0,1-.4.4h-.151l-.251-.151c0,.251-.1.4-.251.4h-.251l-.3-.1c-.05.251-.4.4-1.054.4l-.652-.151c0,.2-.151.251-.4.251a.667.667,0,0,1-.4-.151,5.657,5.657,0,0,1-.9.151l-.552-.151-.251.151a3.458,3.458,0,0,0-.4-.151c0,.05-.05.1-.1.151h-.05c0-.151-.652-.3-2.007-.552L3.8,77.583C1.391,75.777.237,74.221.237,72.966v-.251c0-.05.05-.1.1-.151h.05a3.535,3.535,0,0,1-.2-1.455v-.251a1.516,1.516,0,0,1,.251-.8c-.05,0-.1-.05-.151-.1V69.9l.251-.151L.388,69.2a6.9,6.9,0,0,1,.652-2.258c-.05,0-.1-.05-.151-.1v-.05q.376,0,1.2-2.409a.512.512,0,0,0,.251-.4c-.05,0-.1-.05-.151-.1v-.05a.777.777,0,0,0,.4-.552l.251.151H3v-.151H2.746V63.03H3l-.151-.251a.806.806,0,0,1,.552-.251l-.151-.251a3.067,3.067,0,0,1,1.2-1.054H4.6l.251.151a1.052,1.052,0,0,1,.4-.552c-.05,0-.1-.05-.151-.1v-.05a2.655,2.655,0,0,1,1.054-.552v.151a7.083,7.083,0,0,1,4.115-.953,3.458,3.458,0,0,0,.4.151.237.237,0,0,1,.251-.251h0a3.585,3.585,0,0,0,1.606.4.545.545,0,0,0,.4.4c0-.05.05-.1.1-.151h.05a8.444,8.444,0,0,1,1.2,1.455h.151a9.318,9.318,0,0,0,.251,1.706c0,1.154-.8,2.208-2.409,3.061-.05,0-.1-.05-.151-.1v-.05a1.516,1.516,0,0,1-.8.251l-.251-.151a5.657,5.657,0,0,1-.9.151,3.483,3.483,0,0,1-2.258-1.2l.151-.251c-.251,0-.4-.2-.4-.652l.151-.251a3.457,3.457,0,0,1-.151-.4q.3,0,1.2-1.054l.652-.151h.8a1.488,1.488,0,0,1,.8,1.2v.552l-.251.4c.2,0,.251.151.251.4h.652c.7,0,1.355-.552,2.007-1.606-.351-1.957-1.3-2.911-2.76-2.911h-.552c-2.61,0-4.968,1.455-7.026,4.366a17.381,17.381,0,0,0-1.706,4.115h-.2L1.693,69l-.4.652V69.8l.251.4v.151c0,.05-.05.1-.1.151h-.05l.151.251v.151H1.291c.4,1.154.753,1.706,1.054,1.706-.05.452-.151.652-.4.652v.151h.151a3.458,3.458,0,0,1,.4-.151,3.457,3.457,0,0,1,.151.4,3.457,3.457,0,0,0-.151.4,1.8,1.8,0,0,1,.953,1.606H3.7v-.151a3.457,3.457,0,0,1-.151-.4l.251-.151a.237.237,0,0,1,.251.251h0v.4c.6.6,1.054.953,1.3.953l-.151.251a3.458,3.458,0,0,1,.151.4l.4-.251a3.458,3.458,0,0,0,.4.151,3.458,3.458,0,0,1,.4-.151,3.457,3.457,0,0,1,.151.4,1.144,1.144,0,0,0,.552-.151,2.02,2.02,0,0,0,1.2.251c1.656,0,3.413-1.054,5.169-3.162.2,0,.853-.7,2.007-2.108a28.09,28.09,0,0,0,3.463-4.767l1.606-2.108c-.05,0-.1-.05-.151-.1v-.05a31.522,31.522,0,0,0,3.312-6.474c.151,0,.552-.8,1.3-2.409a3.794,3.794,0,0,0-.953-1.054l-.251.151c-3.463-2.81-5.219-4.567-5.32-5.32q-.376,0-1.054-2.108h.151l-.251-.953.151-.652-.151-.8h.151l-.151-.251a2.218,2.218,0,0,1,.552-1.2L17.9,43.86a1.922,1.922,0,0,1,.652-1.2,3.458,3.458,0,0,1-.151-.4,1.565,1.565,0,0,0,.8-1.2l.9-.8c.2,0,.251-.251.251-.8l.251.151.151-.251a1.312,1.312,0,0,1-.151-.4,4.079,4.079,0,0,0,.9-.953h.151l.251.151a.5.5,0,0,1,.4-.552h-.1a3.761,3.761,0,0,1,.251-.8,1.012,1.012,0,0,1-.151-.552h.251v-.151h-.552v-.552a.766.766,0,0,1,.552-.552v-.151c-.251,0-.4-.1-.4-.251h0a.237.237,0,0,1,.251-.251h0l-.151-.652v-.151l.251.151h.151v-.151h-.251v-.251l.151-.251c-.05,0-.1-.05-.151-.1v-.05c.151,0,.251-.05.251-.2v-.2a1.144,1.144,0,0,0-.151-.552L24.075,27.8c.552-.652,1.807-2.409,3.714-5.169a43.785,43.785,0,0,1,5.018-4.617,9.809,9.809,0,0,0,2.409-1.706A27.325,27.325,0,0,1,41.438,14ZM4.051,62.277v.251H4.2v-.251ZM7.765,77.784v.151h.251v-.151Zm.552,0v.151h.251v-.151Zm3.814-.652v.251h.151v-.251Zm1.857-1.756v.4h.151l-.151.251v.151h.151c0-.151.05-.251.2-.251h.05v-.151c-.151,0-.251-.151-.251-.4Zm1.054-.9v.251h.251a.23.23,0,0,0-.2-.251Zm.7-.552v.151c0,.2.151.251.4.251L16,74.572h.151a.777.777,0,0,0,.4-.552H16.4l-.251.151c0-.151-.05-.251-.2-.251h-.2Zm0,2.158v.251h.151v-.251Zm.351-3.061-.151.251.251.151.151-.251Zm.8-.652c0,.05-.05.1-.1.151h-.05a3.458,3.458,0,0,1,.151.4h.251c0-.2.151-.251.4-.251v-.251h-.1a3.458,3.458,0,0,1-.4.151c0-.151-.05-.2-.151-.2Zm-.1,1.556v.151h.251V73.92Zm.4-.1v.151h.251v-.151Zm0,1.054v.552h.151v-.552Zm.351-3.061c0,.151-.05.251-.2.251H17.3v.151h.251l.151-.251v-.151Zm-.1,1.2v.251H17.7v-.251Zm.1.753v.151H17.8v-.151Zm.3-2.61a.667.667,0,0,1-.151.4h.4a.667.667,0,0,1,.151-.4ZM17.7,74.622v.251h.151v-.251Zm.151-1.857a.237.237,0,0,0,.251.251h.151v-.251Zm.5-2.258v.151h.3v-.151Zm0,1.054v.1h.3v-.151l-.3.05Zm.8-2.509v.1h.251V69l-.251.05Zm.251,4.517v.251h.151v-.251Zm.4-33.423h.151V40.4h-.151Zm.151,10.238v.2h.151v-.251l-.151.05Zm.151,20.274v.4h.151v-.4Zm0,3.714v.151h.251v-.151Zm.1-24.64h.251V49.48c-.1-.05-.2.05-.251.251Zm.151-9.284V40.6h.3v-.151Zm0,27.15h.151c.151,0,.251-.05.251-.2v-.05h-.1a.281.281,0,0,0-.3.251Zm0,.8v.251h.3V68.4Zm.1,3.463v.151h.251v-.151Zm.3-29.458v.151h.552V42.3a2.59,2.59,0,0,1-.552.1Zm.1-3.162v.151h.3v-.151Zm.3,3.965v.251c.151,0,.251-.05.251-.2v-.05Zm0,.652a.237.237,0,0,0,.251.251h0v-.251Zm0,23.285a.777.777,0,0,0,.4.552v-.151a3.457,3.457,0,0,1-.151-.4Zm0,4.366a.237.237,0,0,0,.251.251h0v-.251Zm.3-33.121v.251h.2c.05-.1-.05-.2-.2-.251Zm.1,13.8a.237.237,0,0,0,.251.251h0l.151-.251Zm.1,16.159V68.6h.151v-.251Zm2.158-26.5c0,.251-.2.4-.552.4l.151.251-.8,1.455.151.251v.4c0,.2-.151.251-.4.251l.251.552a3.178,3.178,0,0,1-.8,1.3v.151l.251-.151a1.53,1.53,0,0,0,.151.8,1.012,1.012,0,0,0-.151.552c.05,0,.1.05.151.1v.05a.237.237,0,0,0-.251.251h0v.151h.251l-.251.4a.237.237,0,0,1,.251.251h0l-.151.251a16.676,16.676,0,0,1,2.007,3.463A9.5,9.5,0,0,0,25.931,54.6a27.478,27.478,0,0,0,2.409-5.57c.1-.452.251-.652.552-.652l-.2-.3,1.2-2.409a18.1,18.1,0,0,0-2.108-.8,3.458,3.458,0,0,1-.4.151,5.777,5.777,0,0,1-2.258-1.857,5.371,5.371,0,0,1-1.3-1.3ZM21.816,67.3h.251v-.251a.269.269,0,0,0-.251.251Zm.1-2.509v.151a.667.667,0,0,1,.4.151v-.251l-.4-.05Zm0,3.212v.4c.151,0,.251-.05.251-.2V68Zm.251-.953V67.3h.151v-.251Zm.151.652h.251a3.459,3.459,0,0,1,.4-.151V67.4h-.351a.452.452,0,0,0-.3.3Zm.251-30.311v.151h.251v-.151Zm0,3.714v.151h.251V41.1Zm0,29.659v.151h.251v-.151Zm.3-4.517v.251h.4c0-.151-.05-.251-.2-.251h-.2Zm0,2.509c0,.05.05.1.1.151h.05l-.151.251V69.3h.251a1.144,1.144,0,0,1,.151-.552h-.4Zm.1-2.911h.151l.652-.151v-.251c-.5.1-.753.251-.8.4Zm.151,1.054a.667.667,0,0,1-.151.4l.251.151a1.144,1.144,0,0,1,.151-.552Zm0-4.517v.151h.251v-.151Zm.4,3.864-.251-.151v.151c.05,0,.1.05.151.1v.05a3.82,3.82,0,0,1,1.054-.151v-.151a.23.23,0,0,1-.251-.2v-.05h-.1Zm.151-2.258.251.151h.251v-.552h-.1A.777.777,0,0,0,23.673,63.983ZM44.1,15.606c0-.05-.05-.1-.1-.151h-.05c0,.1-.5.351-1.455.652v-.1a10.735,10.735,0,0,0-4.115,2.108h-.8v.251h-.151l-.251-.151c-.351.552-1.706,1.506-4.115,2.911a9.769,9.769,0,0,1-1.3,1.2c0,.151-.452.5-1.3,1.054v.251H30.3l-.251-.151a.544.544,0,0,1-.552.4q0,.9-2.108,2.409a11.012,11.012,0,0,0-2.007,2.911,4.512,4.512,0,0,0-.8.9l.151.251q-.527.376-.9,3.463l.151.251v.8l-.151,1.3h.652l.4.251h.151l.8-.652h1.455l.4.251a.237.237,0,0,1,.251-.251h0a34.437,34.437,0,0,1,5.169,2.409,5.992,5.992,0,0,1,1.054-2.208,15.457,15.457,0,0,1,1.606-3.463,3.47,3.47,0,0,1,1.2-2.007l-.151-.251A14.852,14.852,0,0,1,38.829,26.8v.251h.151V26.5h.251v-.4l-.251.151v-.4h.552l-.151-.251a3.457,3.457,0,0,1,.4-.151v-.151h-.3V25.04c.1,0,.351-.251.652-.8,0,.05,0,.1.1.151h.05c0-.2.251-.5.8-.8a3.5,3.5,0,0,1,.652-1.2c0-.452.552-1,1.706-1.706v.351c.151,0,.251-.05.251-.2v-.05h-.251c.652-.9,1.2-1.3,1.606-1.3l-.3-.4v-.151q2.108-.452,2.108-1.054l.251.151,1.606-.5a7.245,7.245,0,0,1,2.007.9h.4a1.516,1.516,0,0,1,.251.8,41.642,41.642,0,0,0-5.42,3.965H45.7l.151.251c-1,1.355-1.556,2.007-1.706,2.007l-.8.9.151.251c0,.2-.151.251-.4.251l.151.251v.151h-.151l-.251-.151c0,.552-.2.8-.552.8l.151.652V28.7c-.351,0-.953.8-1.706,2.409l-.251.251.151.251v.151c-.351.552-.6.8-.8.8l.151.251v.151c-.251.7-.452,1.054-.552,1.054,0-.05-.05-.1-.1-.151h-.05v.251h.251a8.2,8.2,0,0,1-1.054,2.66,8.021,8.021,0,0,1-.251,1.054c-.2,0-.351-.2-.4-.552a.545.545,0,0,0-.4.4,1.057,1.057,0,0,0,.652.251,8.022,8.022,0,0,0-.251,1.054h-.3l.151-.251h-.151a1.012,1.012,0,0,1-.552.151v.151c.351.05.552.151.552.4a9.6,9.6,0,0,1-.8,1.606V41.2a.237.237,0,0,0,.251.251h0a.237.237,0,0,1,.251-.251h.151v.652l.251-.151.9.652c0-.151.3-.4.9-.8h.652a2.333,2.333,0,0,1,.652-1.054,1.17,1.17,0,0,1,.652-1.054l-.151-.251v-.151l.151-.251c-1.355-.3-2.007-.753-2.007-1.3.05-.8.151-1.2.4-1.2,0,.05.05.1.1.151h.05l-.151-.652v-.151a2.866,2.866,0,0,0,1.054-.652l.151.251.251-.151h.151c.9,0,1.656.652,2.258,2.007a.237.237,0,0,0-.251.251h0a1.47,1.47,0,0,1,.652.8,11.277,11.277,0,0,1-1.3,2.509l.151.251a3.459,3.459,0,0,0-.151.4h.151a.5.5,0,0,1-.4.552h-.151l.151.251v.151l-.4-.251H41.94l.151.251a.667.667,0,0,0-.4.151,3.458,3.458,0,0,0-.4-.151V42.5l.151.251a4.186,4.186,0,0,1-.8,1.054h-.1c-.05,0-.1-.05-.151-.1v-.05a3.457,3.457,0,0,1-.4.151l.151.251v.251l-.151.3a1.019,1.019,0,0,1,.652.552l-.251.151h-.4v-.251l-.251.1a.919.919,0,0,0,.9.8h.151l-.251-.351v-.151h.151c.2,0,.351.3.552.953h.151v.4h-.151l-.4-.251v.05c0,.251.2.4.652.4v.151l-.251.4a2.164,2.164,0,0,1,.652.953h.151v.1l-.151.251a5.925,5.925,0,0,1,.9,1.857h.151c1.2-.5,2.86-2.058,5.018-4.617a7.912,7.912,0,0,1,1.706-2.509,31.83,31.83,0,0,0,4.366-11.542,23.306,23.306,0,0,1,.8-3.714l-.151-.251c0-.151.05-.251.151-.251l-.151-1.3v-1c0-.05.05-.1.1-.151h.05l-.151-.251V24.99a12.522,12.522,0,0,0-2.258-6.775l.151-.251c-.2,0-.552-.3-.9-.9a1.739,1.739,0,0,1-.8-.4l.151-.251v-.1l-.251.151-.753-.452c0,.05-.05.1-.1.151h-.05c-.1-.4-1.3-.7-3.714-.8h-.4a6.31,6.31,0,0,0-1.656.251ZM23.924,54.047V54.2h.251v-.151Zm0,11.04a.237.237,0,0,0,.251.251h.151c0-.151-.05-.251-.2-.251h-.2Zm.151-1.756h.251V63.08a.237.237,0,0,0-.251.251Zm0,1.355v.251h.251v-.3l-.251.05ZM24.727,41.6v.151h.251V41.6Zm.151-2.81v.151h.251v-.151Zm0,24.64v.151h.251v-.151Zm.251-23.988v.151h.251v-.151Zm.251,1.355c1.656,2.108,3.061,3.162,4.115,3.162a2.5,2.5,0,0,1,1.054.251,29.582,29.582,0,0,1,2.108-4.617v-.4a2.213,2.213,0,0,0-1.857-.8,12.119,12.119,0,0,0-5.169,1.857Zm.151,21.077v.151h.251v-.151Zm.5-1.857a3.458,3.458,0,0,1,.151.4h.151v-.4Zm.8-1.054v.251h.151v-.251Zm.151-14.854v.151h.251V44.11Zm.652,13.1v.251h.151v-.251ZM28.29,53.9v.251h.151V53.9Zm0,1.355v.4a1.057,1.057,0,0,1,.652-.251v-.151Zm.151-4.767v.151h.4v-.151Zm0,3.011v.251h.151v-.251Zm.151-31.014v.251h.1v-.251Zm.1,29.307v.151h.251v-.151Zm0,5.972v.151h.4l.151-.251h-.1a1.465,1.465,0,0,1-.452.1Zm.151-3.061v.151h.251V54.7Zm.5-3.312v.251h.151v-.251Zm0,1.2v.4h.251v-.4Zm.7-1.3v.151a1.012,1.012,0,0,1,.151.552.237.237,0,0,0-.251.251h0l.552.151V52.24a1.012,1.012,0,0,1-.151-.552c.05,0,.1-.05.151-.1v-.05Zm.1-6.925v.151h.4v-.151Zm0,6.624v.151H30.4v-.151Zm7.327-5.821c0,.251-.3.4-.9.4v-.151a2.875,2.875,0,0,1-1.706.4c0-.05-.05-.1-.1-.151h-.05a8.873,8.873,0,0,1-1.054,2.258l.151.251a.777.777,0,0,1-.552.4l.151.251v.151h-.251l.151.251a.818.818,0,0,1-.652.552v.3a.667.667,0,0,1,.4.151c0,.151-.251.452-.8.953v.151h.251v.151a.926.926,0,0,0-.251.8l-.4-.251v.251H32.1v.251h-.251c0,.05.05.1.1.151H32A4.133,4.133,0,0,1,30.8,55.1l.151.8a.237.237,0,0,0-.251.251h0c.05,0,.1.05.151.1v.05a27.538,27.538,0,0,0,8.632-2.81c1.606-.953,2.409-1.706,2.509-2.258-.151,0-.251-.05-.251-.2v-.05c.05,0,.1-.05.151-.1v-.05a1.187,1.187,0,0,1-.652-.552v-.552l.151-.251a.667.667,0,0,1-.4-.151l.151-.251a1.7,1.7,0,0,0-.652-.9l.151-.251c0-.05-.552-.853-1.606-2.409v-.251h-.251a1.144,1.144,0,0,0-.552.151,1.76,1.76,0,0,0-.753-.251ZM31.1,49.681c0,.251-.1.4-.251.4v.151H31.2c0-.05.05-.1.1-.151h.05a3.458,3.458,0,0,1-.151-.4Zm-.151.8v.251H31.2c0-.151-.05-.251-.2-.251Zm.151.4v.151a.237.237,0,0,0,.251.251h0c.151,0,.251-.05.251-.2v-.05a.968.968,0,0,1-.5-.151Zm.1-1.455v.151h.251V49.43Zm0,2.007v.251h.151v-.3l-.151.05Zm.3-2.66v.151h.251v-.151Zm.652-29.057v.151h.251v-.151Zm.9,19.522v.251h.151v-.3l-.151.05Zm1.355-1.355-.151.251v.151a.237.237,0,0,0,.251.251h0l.151-.251v-.151c.05-.151-.05-.251-.2-.3a.049.049,0,0,1-.05.05Zm.5,6.223v.251h.3V44.11Zm.652-.753.151.251v.251h-.251v.251c.151,0,.251.05.251.151a3.08,3.08,0,0,0,1.455-.953v-.151c-.3-.552-.552-.9-.8-.953h-.151c-.151,0-.3.351-.552,1.054l-.1.1Zm.4-11.04v.151h.251v-.151Zm.4,7.327v.151c.151,0,.251-.05.251-.2v-.2c-.1-.05-.2.1-.251.251Zm0,.5.251.151v-.4c-.1,0-.2.1-.251.251Zm.4-.4V40h.151v-.251Zm.151-.4v.251c.151,0,.251-.05.251-.2v-.05Zm.251-8.883v.251h.151V30.46Zm.8,5.972a1.012,1.012,0,0,0-.151.552l-.251-.151h-.1v.151a1.052,1.052,0,0,1,.552.4h.151v-.151l-.151-.251a.277.277,0,1,0-.05-.552Zm0-7.829v.251h.151V28.6Zm.4,6.775v.251c.151,0,.251-.05.251-.2v-.05Zm.4-.8v.251h.151v-.251Zm.5-6.624V28.2a3.458,3.458,0,0,1,.4-.151V27.9l-.4.05Zm.3,16.31v.251c.151,0,.251-.05.251-.2v-.05Zm.251-12.446-.151.251h.4a.244.244,0,0,0-.151-.3c-.05,0-.05,0-.1.05Zm.4,3.965v.151h.251V35.78Zm.3-9.284v.151h.251V26.5Zm0,.4v.151h.4V26.9Zm1.857,10.99v.151h.251v-.151Zm0,3.563V41.7h.151v-.251Zm.652-18.418v.251h.151v-.251Zm0,.652v.151H43.3v-.151Zm1.3-.4v.251a3.458,3.458,0,0,1,.4-.151,3.459,3.459,0,0,1-.151-.4c-.1.05-.251.151-.251.3ZM44.6,50.735v.151h.552L45,50.634a.945.945,0,0,1-.4.1Zm.652-31.566H45.4c.151,0,.251-.05.251-.2v-.05H45.5a.269.269,0,0,0-.251.251Zm5.169,23.988v.151h.4v-.151Zm1.054,28.806v.151a1.187,1.187,0,0,0,.552.652v-.151c-.2-.452-.4-.652-.552-.652Zm.3-25.443v.1h.5v-.151h-.5Zm.3-31.465a.237.237,0,0,1,.251.251h-.251Zm.351,52.794V68.1h.151v-.251Zm.151,5.671v.151h.251v-.151Zm1.2-55.654v.251h.151v-.251Zm.251,15.758v.251h.151v-.251Zm.151-16.059v.151h.251v-.151Zm.251,15.105v.251c.151,0,.251-.05.251-.2v-.05Zm0,10.388v.251c.151,0,.251-.05.251-.2v-.05Zm.151,33.673a.237.237,0,0,1,.251.251h0v.151c-.151,0-.251-.05-.251-.2v-.2Zm.251.5h.151c.5.552,1,1.1,1.455,1.706v.251h-.151c-.953-1-1.455-1.656-1.455-1.957Zm2.007-40.7v.151H57.1v-.1l-.251-.05ZM57,30.862v.151h.251v-.151Zm0,5.169v.151h.251v-.1L57,36.031Zm.351-12.044v.151H57.6v-.151Zm.552.251v.151h.4v-.251a1.551,1.551,0,0,1-.4.1Zm.8-.4v.251h.1v-.251Zm2.108,53.145v.151h.251v-.151Zm0,.4v.251h.151v-.251Zm8.08,3.965V81.5h.251v-.151Zm.4-11.141v.251h.151v-.251Zm.151,14.453v.251h.151v-.251Zm1.054-3.413V81.4h.251v-.151Zm1.2.251v.151h.251V81.5Zm1.857.251V82h.151v-.251Zm8.331-15.758-.151.251h.4c0-.151-.05-.251-.2-.251Zm1.857,6.223v.251h.151v-.251Z" transform="translate(-0.174 -7.024)"/>
      <path id="path-2" data-name="path" class="cls-2" d="M115.69,63.4c2.409,0,3.563.7,3.563,2.108a.237.237,0,0,1,.251.251h0c0,.05-.05.1-.1.151h-.05l.151.251c-.151.552-.251.8-.4.8l.151.251a6.343,6.343,0,0,1-.652,1.3l-.251-.151H118.1l.151.652c-.9.9-1.3,1.455-1.3,1.706-.953.5-1.455.853-1.455,1.054l-.251-.151h-.151c0,.351-.552.652-1.606.954a1.527,1.527,0,0,1-.4.4l-.251-.151a2.218,2.218,0,0,0-1.2.552c-.151,0-.251-.05-.251-.2v-.05c-1.656.351-2.509,1.1-2.509,2.258a2.284,2.284,0,0,1-.4.953l.151.251c-.05.6-.151.953-.251.953l.251.652a.237.237,0,0,0-.251.251h0c.1,0,.3.3.552.954v.151l-.151.251c.251,0,.4.1.4.251v.4l1.606,1.054c0-.05.05-.1.1-.151h.05c0,.151.3.3.953.552a.237.237,0,0,1,.251-.251h0l.151.251a7.729,7.729,0,0,1,.8-.151,7.729,7.729,0,0,1,.8.151c1.556,0,3.262-1.2,5.169-3.563a9.248,9.248,0,0,0,1.455-2.409,7.735,7.735,0,0,0,1.2-2.509l.251-.151h.4a.954.954,0,0,0,.251.652c-.251,0-.4.452-.4,1.3h-.3l-.251-.151v.652a5,5,0,0,1-1.054,1.606l.151.251a4.337,4.337,0,0,0-1.054,1.455.512.512,0,0,0-.4.251l.151.251a1.316,1.316,0,0,0-.652.8,1.884,1.884,0,0,0-.8.953l-3.312,2.108a3.458,3.458,0,0,0-.4-.151c0,.151-.05.251-.2.251h-.3c-.05,0-.1-.05-.151-.1v-.05a3.207,3.207,0,0,0-.953.4h-.151c-.05,0-.1-.05-.151-.1v-.05a1.516,1.516,0,0,1-.8.251h-.251c-.05,0-.1-.05-.151-.1v-.05c-.05,0-.1.05-.151.1v.05c-.9-.1-1.3-.3-1.3-.552l-.652.151h-.4l-2.258-1.706v-.3l.151-.251q-.527,0-1.054-1.054h-.151l.151-.251c-.4,0-.7-1.054-.8-3.162h.151c0-.05-.05-.1-.1-.151h-.05c.2-1.355.351-2.007.552-2.007l-.151-.251a17.739,17.739,0,0,1,3.061-5.972,3.048,3.048,0,0,1,1.455-1.3,5.582,5.582,0,0,1,2.66-2.258c0,.05.05.1.1.151h.05c0-.3.953-.753,2.81-1.455v.151Zm-9.133,9.033v.151h.251v-.151Zm0,2.409v.151h.251v-.151Zm.953,4.517v.151h.251v-.151Zm2.007-9.936v.151h.251v-.151Zm0,1.857v.251h.151v-.251Zm.251-.4v.251h.1v-.3l-.1.05Zm.251,1.606v.151a14.036,14.036,0,0,0,5.972-3.463q0-.6,1.054-1.2l-.151-.251a3.5,3.5,0,0,0,.652-1.2l-.151-.251.151-.251c-.05-.6-.3-.953-.652-.953-1.556.6-2.459,1.255-2.81,2.007a6.14,6.14,0,0,0-2.258,2.66,9.166,9.166,0,0,0-1.606,2.509c-.1-.05-.2.05-.2.251Zm2.007-5.018v.251h.151v-.251Zm0,4.617v.251c.151,0,.251-.05.251-.2v-.05Zm.151-5.42v.251h.151v-.251Zm1.054-.3v.151h.251v-.151Zm.251-.351v.251h.151V66.01Zm1.606,5.018v.151h.251v-.151Zm.652-.552v.151h.151a3.457,3.457,0,0,1,.4-.151v-.151h-.151a2.066,2.066,0,0,1-.4.151Zm.151.4v.251h.251c.05-.1-.05-.251-.151-.3-.05,0-.1,0-.1.05Zm2.66-2.81v.251h.151v-.251Zm.1-3.162v.251h.151v-.251Zm2.76,10.438v.251h.151v-.251Z" transform="translate(-52.245 -31.634)"/>
      <path id="path-3" data-name="path" class="cls-2" d="M141.663,59.7a.777.777,0,0,0,.552.4,2.5,2.5,0,0,1,1.054-.251h.251a.944.944,0,0,1,.552.953c0,.05-.05.1-.1.151h-.05a3.455,3.455,0,0,1,.151.4c-.251.953-.4,1.455-.552,1.455,0,.05.05.1.1.151h.05l-.4,3.162a1.545,1.545,0,0,1,.151.652h-.151a2.076,2.076,0,0,1,.251.953h-.151a3.458,3.458,0,0,1,.151.4l-.151.251.251.552c0,.452-.1.652-.251.652l.151.251c0,.05-.05.1-.1.151h-.05a2.887,2.887,0,0,1,.251,1.3l-.151.251.151.8V72.9l-.151.251a.237.237,0,0,1,.251.251h0v1.606a17.763,17.763,0,0,1,.4,2.258,3.456,3.456,0,0,0-.151.4l.251.151c.2,0,.4-.251.652-.8A15.941,15.941,0,0,0,148.588,72a16.092,16.092,0,0,0,1.706-2.409,1.438,1.438,0,0,1,.954-.552v-.251H151v-.251a.237.237,0,0,1,.251-.251h0l.4.1.151-.251-.151-.652.251-.151.251.151c0-.452.1-.652.251-.652l-.151-.251a6.055,6.055,0,0,0,1.2-1.054h.151V65.27l-.151-.251c.251,0,.6-.552,1.054-1.706h.4l-.151-.652h.151l.251.151v-.151a3.455,3.455,0,0,1-.151-.4,1.84,1.84,0,0,1,1.857-1.3.545.545,0,0,0,.4.4q-.226,2.409-1.054,2.409l.151.251v.151a1.772,1.772,0,0,1-.953.953l.151.251c-.5.3-1.1,1.355-1.857,3.162a9.219,9.219,0,0,0-2.007,3.312.746.746,0,0,1-.652.652,3.461,3.461,0,0,1,.151.4,7.525,7.525,0,0,1-.953,1.606l.151.251a35.907,35.907,0,0,0-2.409,3.061h-.151l.151.251a7.753,7.753,0,0,0-.953,1.2l-3.061,2.81a3.449,3.449,0,0,1-1.2.251h-.552c-1.656-.552-2.509-1.054-2.509-1.606l-.8-3.463c0-.05.05-.1.1-.151h.05c-.251-1.556-.452-3.162-.552-4.767v-.552a1.144,1.144,0,0,0-.151-.552,1.012,1.012,0,0,0,.151-.552l-.151-.251c0-.05.05-.1.1-.151h.05l-.151-.953V67.579c0-.05.05-.1.1-.151h.05l-.151-.251c0-.05.05-.1.1-.151h.05a1.516,1.516,0,0,1-.251-.8q.151-1.581.151-2.409l-.151-.652a3.82,3.82,0,0,0,.151-1.054v-.151l-.1-.652c.05,0,.1-.05.151-.1v-.05c-.151,0-.251-.05-.251-.2V60.9c0-.351.3-.7.953-1.054a1.516,1.516,0,0,0,.8.251h.251A9.591,9.591,0,0,0,141.663,59.7Zm.953,1.2a.237.237,0,0,0,.251.251h0V60.9Z" transform="translate(-68.933 -29.79)"/>
      <path id="path-4" data-name="path" class="cls-2" d="M179.29,63.4c2.409,0,3.563.7,3.563,2.108a.237.237,0,0,1,.251.251h0c0,.05-.05.1-.1.151h-.05l.151.251c-.151.552-.251.8-.4.8l.151.251a6.341,6.341,0,0,1-.652,1.3l-.251-.151H181.7l.151.652c-.9.9-1.3,1.455-1.3,1.706-.953.5-1.455.853-1.455,1.054l-.251-.151h-.151c0,.351-.552.652-1.606.954a1.527,1.527,0,0,1-.4.4l-.251-.151a2.218,2.218,0,0,0-1.2.552c-.151,0-.251-.05-.251-.2v-.05c-1.656.351-2.509,1.1-2.509,2.258a2.284,2.284,0,0,1-.4.953l.151.251c-.05.6-.151.953-.251.953l.2.7a.237.237,0,0,0-.251.251h0c.1,0,.3.3.552.953v.151l-.151.251c.251,0,.4.1.4.251v.4l1.606,1.054c0-.05.05-.1.1-.151h.05c0,.151.3.3.953.552a.237.237,0,0,1,.251-.251h0l.151.251a7.73,7.73,0,0,1,.8-.151,7.728,7.728,0,0,1,.8.151c1.556,0,3.262-1.2,5.169-3.563A9.248,9.248,0,0,0,184.058,76a7.735,7.735,0,0,0,1.2-2.509l.251-.151h.4a.954.954,0,0,0,.251.652c-.251,0-.4.452-.4,1.3h-.151l-.251-.151v.6a5,5,0,0,1-1.054,1.606l.151.251a4.337,4.337,0,0,0-1.054,1.455.512.512,0,0,0-.4.251l.151.251a1.316,1.316,0,0,0-.652.8,1.884,1.884,0,0,0-.8.953l-3.312,2.108a3.457,3.457,0,0,0-.4-.151c0,.151-.05.251-.2.251h-.3c-.05,0-.1-.05-.151-.1v-.05a3.207,3.207,0,0,0-.953.4h-.2c-.05,0-.1-.05-.151-.1v-.05a1.517,1.517,0,0,1-.8.251h-.3c-.05,0-.1-.05-.151-.1v-.05c-.05,0-.1.05-.151.1v.05c-.9-.1-1.3-.3-1.3-.552l-.652.151h-.4l-2.258-1.706v-.3l.151-.251q-.527,0-1.054-1.054h-.151l.151-.251c-.4,0-.7-1.054-.8-3.162h.151c0-.05-.05-.1-.1-.151h-.05c.2-1.355.351-2.007.552-2.007l-.151-.251a17.739,17.739,0,0,1,3.061-5.972,3.048,3.048,0,0,1,1.455-1.3,5.582,5.582,0,0,1,2.66-2.258c0,.05.05.1.1.151h.05c0-.3.9-.753,2.81-1.455v.151Zm-9.133,9.033v.151h.251v-.151Zm0,2.409v.151h.251v-.151Zm.953,4.517v.151h.251v-.151Zm2.007-9.936v.151h.251v-.151Zm0,1.857v.251h.151v-.251Zm.251-.4v.251h.151v-.3l-.151.05Zm.251,1.606v.151a14.036,14.036,0,0,0,5.972-3.463q0-.6,1.054-1.2l-.151-.251a3.5,3.5,0,0,0,.652-1.2L181,66.26l.151-.251c-.05-.6-.3-.953-.652-.953-1.556.6-2.459,1.255-2.81,2.007a6.139,6.139,0,0,0-2.258,2.66,9.166,9.166,0,0,0-1.606,2.509c-.1-.05-.2.05-.2.251Zm2.007-5.018v.251h.151v-.251Zm0,4.617v.251c.151,0,.251-.05.251-.2v-.05Zm.151-5.42v.251h.151v-.251Zm1.054-.3v.151h.251v-.151Zm.251-.351v.251h.1V66.01Zm1.606,5.018v.151h.251v-.151Zm.652-.552v.151h.151a3.457,3.457,0,0,1,.4-.151v-.151h-.2c-.1.1-.251.1-.351.151Zm.151.4v.251h.2a.244.244,0,0,0-.151-.3c-.05,0-.05,0-.05.05Zm2.66-2.81v.251h.1v-.251Zm.1-3.162v.251h.151v-.251Zm2.81,10.488v.251h.151v-.251Z" transform="translate(-83.928 -31.634)"/>
      <path id="path-5" data-name="path" class="cls-2" d="M187.355,75.543a3.448,3.448,0,0,1,.953-.953,4.046,4.046,0,0,1,1.455-1.455c0-.351.4-.753,1.2-1.3l2.108-3.061A17.056,17.056,0,0,0,195.485,64a2.572,2.572,0,0,0,.953-2.007,3.459,3.459,0,0,1,.4-.151l-.151-.251a3.449,3.449,0,0,0,.251-1.2v-.151a24.738,24.738,0,0,1-4.517-2.509c-.2,0-.351-.2-.552-.652.05,0,.1-.05.151-.1v-.05c-.1,0-.351-.351-.8-1.054,0-.05.05-.1.1-.151h.05a5.632,5.632,0,0,1-.4-1.3v-1.3c.151-1.405.552-2.108,1.3-2.108,0,.05.05.1.1.151h.05a1.958,1.958,0,0,1,1.706-.953,6.487,6.487,0,0,1,4.517,2.007,8.757,8.757,0,0,1,.953,3.563,20.735,20.735,0,0,1-.652,3.061v.652h.652a1.389,1.389,0,0,0,.652-.151,5.417,5.417,0,0,0,.953.151c1.355,0,3.663-.652,6.875-2.007a.237.237,0,0,0,.251.251h0a.237.237,0,0,1,.251-.251h0c1.506,1.1,2.258,1.807,2.258,2.007a92.767,92.767,0,0,0-4.918,9.936c0,.05.05.1.1.151h.05a12.344,12.344,0,0,1-.552,2.258l.151.251v.151l-.151.251a.237.237,0,0,1,.251.251h0a.237.237,0,0,0-.251.251h0q0,1.656,2.258,3.463l1.3.151c1.2,0,2.509-1.054,3.965-3.162l2.76-5.169h.151c.251,0,.4.351.552,1.054-.2,0-.552.9-1.2,2.66a8.733,8.733,0,0,0-1.3,2.108c-1.807,2.308-3.563,3.463-5.319,3.463h-.552c-2.459,0-4.115-.8-5.018-2.409-.2,0-.5-1.054-.8-3.162q0-2.785,4.366-12.195v-.151c-1.154.953-3.162,1.455-5.972,1.455-.552-.2-.8-.3-.8-.4l-.251.151h-.4l-.4-.251H198.7c-.151,0-.4.8-.8,2.409-.351.853-.6,1.3-.8,1.3l.151.251-.953,1.706.151.251-3.563,5.018a18.2,18.2,0,0,1-2.409,2.409c0,.3-.251.6-.8.953-.452.6-.853.953-1.2.953l.151.251v.151a8.3,8.3,0,0,0-1.807,1.1L186,76.9A2.513,2.513,0,0,1,187.355,75.543Zm7.026-21.228-.251.4v.552a6.582,6.582,0,0,0,3.312,3.563,1.144,1.144,0,0,1,.151-.552c-.05-1.857-1.1-3.162-3.212-3.965Zm3.011-.652h.151c.151,0,.251-.05.251-.2v-.05h-.151c-.1-.05-.2.05-.251.251Zm5.872,16.812v.251h.251v-.251Zm1.154-3.563v.151h.251v-.151Zm.3,3.965h.251v-.251a.237.237,0,0,0-.251.251Zm.4-5.57v.251h.151v-.251Zm.351.3v.251c.151,0,.251-.05.251-.2v-.05Zm.4,1.706v.151h.251v-.151Z" transform="translate(-92.745 -25.058)"/>
      <path id="path-6" data-name="path" class="cls-2" d="M248.773,53.036l.652.151c0-.05.05-.1.1-.151h.05c0,.2.151.251.4.251a7.166,7.166,0,0,0,1.455-.151c.6.05.953.151.953.251l.251-.151a.545.545,0,0,1,.4.4c-1,1.154-2.66,4.165-4.918,9.033.05,0,.1.05.151.1v.05c-.151,0-.652,1.3-1.455,3.864-.1,0-.251.552-.4,1.606v.652l.251.4V69.5c0,.05-.05.1-.1.151h-.05c.9,1.857,1.656,2.81,2.258,2.81,0-.151.4-.351,1.2-.652a6.551,6.551,0,0,0,2.509-3.162,9.809,9.809,0,0,0,1.2-2.81c.251-.953.552-1.455.953-1.455V63.324a.237.237,0,0,1,.251-.251h.251a6.685,6.685,0,0,0,.251.953h-.1c0,.05.05.1.1.151h.05A44.131,44.131,0,0,1,252.938,70a8.1,8.1,0,0,1-1.455,1.857,7.313,7.313,0,0,1-4.517,2.108l-.251-.151-.251.151c-1.756-.452-2.66-.853-2.66-1.2a4.965,4.965,0,0,1-1.054-2.007V70.6c0-.05.05-.1.1-.151h.05l-.251-.552c.151,0,.251-.05.251-.2v-.05c-.2.05-.351-.1-.4-.3v-.1c.151-1.506.4-2.258.8-2.258l-.151-.251v-.4a4.444,4.444,0,0,0,.8-1.706l.4-.251-.151-.251c.953-3.011,1.556-4.517,1.857-4.517l-.151-.251v-.151c0-.2.151-.251.4-.251l-.151-.251,1.2-2.81C247.87,53.99,248.372,53.036,248.773,53.036Zm-4.366,17.514V70.7h.251v-.151Zm1.2-10.187v.251c.151,0,.251-.05.251-.2v-.05Zm.1-.3v.151h.251v-.151Zm0,2.409v.1h.251v-.151l-.251.05Zm.4,10.338v.151h.251v-.151ZM250.379,43.1h.4c.953,0,1.556.8,1.857,2.409v.8a3.182,3.182,0,0,1-2.911,1.455,2.31,2.31,0,0,1-1.054-1.857,3.414,3.414,0,0,1,1.706-2.81Zm.1,10.89v.251c.151,0,.251-.05.251-.2v-.05Z" transform="translate(-120.891 -21.521)"/>
      <path id="path-7" data-name="path" class="cls-2" d="M275.39,63.4c2.409,0,3.563.7,3.563,2.108a.237.237,0,0,1,.251.251h0c0,.05-.05.1-.1.151h-.05l.2.3c-.151.552-.251.8-.4.8l.151.251a6.341,6.341,0,0,1-.652,1.3l-.251-.151h-.251l.151.652c-.9.9-1.3,1.455-1.3,1.706-.953.5-1.455.853-1.455,1.054l-.251-.151h-.251c0,.351-.552.652-1.606.953a1.528,1.528,0,0,1-.4.4l-.251-.151a2.218,2.218,0,0,0-1.2.552c-.151,0-.251-.05-.251-.2v-.05c-1.656.351-2.509,1.1-2.509,2.258a2.284,2.284,0,0,1-.4.953l.151.251c-.05.6-.151.953-.251.953l.2.652a.237.237,0,0,0-.251.251h0c.1,0,.3.3.552.953v.151l-.151.251c.251,0,.4.1.4.251v.4l1.606,1.054c0-.05.05-.1.1-.151h.05c0,.151.3.3.953.552a.237.237,0,0,1,.251-.251h0l.151.251a2.216,2.216,0,0,1,1.606,0c1.556,0,3.262-1.2,5.169-3.563A9.248,9.248,0,0,0,280.108,76a7.735,7.735,0,0,0,1.2-2.509l.251-.151h.4a.954.954,0,0,0,.251.652c-.251,0-.4.452-.4,1.3h-.151l-.251-.151v.6a5,5,0,0,1-1.054,1.606l.151.251a4.337,4.337,0,0,0-1.054,1.455.512.512,0,0,0-.4.251l.151.251a1.316,1.316,0,0,0-.652.8,1.884,1.884,0,0,0-.8.953l-3.312,2.108a3.46,3.46,0,0,0-.4-.151c0,.151-.05.251-.2.251h-.3c-.05,0-.1-.05-.151-.1v-.05a3.207,3.207,0,0,0-.953.4h-.2c-.05,0-.1-.05-.151-.1v-.05a1.517,1.517,0,0,1-.8.251h-.251c-.05,0-.1-.05-.151-.1v-.05c-.05,0-.1.05-.151.1v.05c-.9-.1-1.3-.3-1.3-.552l-.652.151h-.4l-2.258-1.706v-.251l.151-.251q-.527,0-1.054-1.054h-.151l.151-.251c-.4,0-.7-1.054-.8-3.162h.151c0-.05-.05-.1-.1-.151h-.05c.2-1.355.351-2.007.552-2.007l-.151-.251a17.739,17.739,0,0,1,3.061-5.972,3.048,3.048,0,0,1,1.455-1.3,5.582,5.582,0,0,1,2.66-2.258c0,.05.05.1.1.151h.05c0-.3.953-.753,2.76-1.455V63.7Zm-9.133,9.033v.151h.251v-.151Zm0,2.409v.151h.251v-.151Zm.953,4.517v.151h.251v-.151Zm2.007-9.936v.151h.251v-.151Zm0,1.857v.251h.151v-.251Zm.251-.4v.251h.151v-.3l-.151.05Zm.251,1.606v.151a14.036,14.036,0,0,0,5.972-3.463q0-.6,1.054-1.2l-.151-.251a3.5,3.5,0,0,0,.652-1.2l-.151-.251.151-.251c-.05-.6-.3-.953-.652-.953-1.556.6-2.459,1.255-2.76,2.007a6.14,6.14,0,0,0-2.258,2.66,9.167,9.167,0,0,0-1.606,2.509c-.1-.05-.251.05-.251.251Zm2.007-5.018v.251h.151v-.251Zm0,4.617v.251c.151,0,.251-.05.251-.2v-.05Zm.151-5.42v.251h.151v-.251Zm1.054-.3v.151h.251v-.151Zm.251-.351v.251h.151V66.01Zm1.606,5.018v.151h.251v-.151Zm.652-.552v.151h.151a3.459,3.459,0,0,1,.4-.151v-.151h-.151a2.065,2.065,0,0,1-.4.151Zm.151.4v.251h.251c.05-.1-.05-.251-.151-.3-.05,0-.1,0-.1.05Zm2.61-2.81v.251h.151v-.251Zm.151-3.162v.251h.151v-.251Zm2.81,10.488v.251h.151v-.251Z" transform="translate(-131.801 -31.634)"/>
      <path id="path-8" data-name="path" class="cls-2" d="M179.055,113.4a.376.376,0,0,0,.05.251c.05.151.05.251.1.452l.151.5a4.742,4.742,0,0,0,.151.452l.1.351c0,.05.05.1.05.151h.05l1.154-1.807a.809.809,0,0,0,.151-.452c0-.151-.151-.2-.452-.251V113l.1-.3.3.05h1.3v.05l-.1.3a.93.93,0,0,0-.351.1c-.1.05-.151.1-.251.151-.1.1-.151.2-.251.3l-.3.5-.953,1.455a1.1,1.1,0,0,0-.151.251c-.05.1-.05.2-.1.3,0,.1-.05.251-.05.4l-.1.6a.7.7,0,0,0,0,.452.183.183,0,0,0,.251.1h.351v.05l-.1.351H178.9l-.3.05-.3.05.1-.351a.93.93,0,0,0,.351-.1.693.693,0,0,0,.2-.151c.05-.1.1-.151.1-.251a1.1,1.1,0,0,0,.05-.4l.05-.351v-.452a1.783,1.783,0,0,0-.1-.5l-.5-1.506-.151-.452-.151-.3c-.05-.05-.151-.151-.2-.151-.1-.05-.251-.05-.351-.1v-.05l.1-.3h1.556l.4-.05v.05l-.05.251a.637.637,0,0,0-.3.05c-.05,0-.151.05-.2.05s-.05.05-.1.1C179,113.352,179,113.352,179.055,113.4Z" transform="translate(-88.61 -56.193)"/>
      <path id="path-9" data-name="path" class="cls-2" d="M188.54,119.062h.05l.1-.05.2-.151.3-.251h.1l.1.2c-.351.3-.6.552-.753.652a1.009,1.009,0,0,1-.4.2c-.151.05-.251-.05-.3-.2v-.151a.3.3,0,0,1,.05-.2c.05-.05.05-.2.05-.3l.05-.3.2-.8h-.05a9.737,9.737,0,0,1-.753,1.2,2.688,2.688,0,0,1-.753.753.552.552,0,0,1-.5-.3,1.163,1.163,0,0,1-.151-.8,3.236,3.236,0,0,1,.151-1,3.8,3.8,0,0,1,.452-.9,2.456,2.456,0,0,1,.6-.652,1.2,1.2,0,0,1,.7-.251l.8.151.05-.2h.05l.251.1.05.1a5.871,5.871,0,0,0-.251,1c-.05.351-.151.7-.2,1-.05.351-.151.753-.2,1.1Zm-1.656-.1c.1-.05.251-.1.3-.2a2.228,2.228,0,0,0,.4-.552c.151-.251.3-.5.452-.8s.3-.6.452-.953a1.783,1.783,0,0,0-.452-.2,1.1,1.1,0,0,0-.4-.05.57.57,0,0,0-.4.151,1.093,1.093,0,0,0-.351.452,3.071,3.071,0,0,0-.251.6,3.39,3.39,0,0,0-.1.7,2.443,2.443,0,0,0,.05.6c.151.1.2.2.3.251Z" transform="translate(-92.776 -57.687)"/>
      <path id="path-10" data-name="path" class="cls-2" d="M193.952,118.259l.1-.5.05-.5c0-.151.05-.251.05-.4v-.2a.369.369,0,0,0-.1-.3.713.713,0,0,0-.3-.1H193.4l.05-.3h1.3l.05.1c-.05.151-.1.351-.151.552s-.1.351-.151.552l-.151.6h.05c.1-.251.251-.5.351-.7a4.187,4.187,0,0,1,.4-.6,1.527,1.527,0,0,1,.4-.4.434.434,0,0,1,.3-.151.806.806,0,0,1,.251.552v.151l-.05.151h-.251a.456.456,0,0,0-.351.151,1.527,1.527,0,0,0-.4.4c-.151.2-.251.4-.4.6a3.885,3.885,0,0,0-.351.8l-.1.953-.05.05-.151.05-.151.05H193.7l-.05-.05A6.626,6.626,0,0,0,193.952,118.259Z" transform="translate(-96.431 -57.787)"/>
      <path id="path-11" data-name="path" class="cls-2" d="M201.81,119.013h.05l.1-.05.2-.151.3-.251h.1l.1.2c-.6.6-.953.853-1.154.853-.1,0-.251-.05-.251-.151v-.05a2.134,2.134,0,0,1,.1-.552c.05-.251.151-.452.2-.7s.151-.5.2-.753a2.135,2.135,0,0,0,.1-.552c0-.1-.05-.151-.1-.251a.261.261,0,0,0-.2-.1c-.1,0-.2.1-.3.151a2.757,2.757,0,0,0-.351.452,5.014,5.014,0,0,0-.4.7l-.452.9-.1.652-.05.05-.151.05-.151.05h-.151l-.05-.05.2-1.405.1-.552.05-.5c0-.151.05-.251.05-.4v-.2c0-.1,0-.2-.1-.251s-.151-.1-.251-.05H199.1l.05-.3h1.3l.05.1c-.05.2-.151.4-.2.6s-.1.452-.151.6c-.05.251-.1.452-.151.7h.05a13.08,13.08,0,0,1,.853-1.405,4.055,4.055,0,0,1,.8-.8.747.747,0,0,1,.452.2,1.052,1.052,0,0,1,.2.552,2.135,2.135,0,0,1-.1.552,3.247,3.247,0,0,1-.2.652l-.251.7a3.688,3.688,0,0,1,0,.753Z" transform="translate(-99.271 -57.637)"/>
      <path id="path-12" data-name="path" class="cls-2" d="M207.052,121.98c.05-.05.151-.1.2-.151.1-.05.151-.1.251-.05a.358.358,0,0,1,.3.151.512.512,0,0,1,.1.452,1.466,1.466,0,0,1-.1.452.781.781,0,0,1-.3.4,2.318,2.318,0,0,1-.351.351,1.093,1.093,0,0,1-.4.251l-.151-.1v-.1a1.3,1.3,0,0,0,.452-.452,1.052,1.052,0,0,0,.2-.552.713.713,0,0,0-.1-.3.5.5,0,0,0-.2-.251Z" transform="translate(-103.007 -60.705)"/>
      <path id="path-13" data-name="path" class="cls-2" d="M216.308,118.17l-.452-.05-.4-.05H214.8l-.3.05-.3.05.1-.351a1.5,1.5,0,0,0,.5-.2.892.892,0,0,0,.2-.5l.452-3.463a.429.429,0,0,0,0-.351.38.38,0,0,0-.2-.1h-.3v-.05l.1-.351h1.957a2.922,2.922,0,0,1,.953.151,1.89,1.89,0,0,1,.753.452,1.8,1.8,0,0,1,.5.7,2.931,2.931,0,0,1,.2.9,3.23,3.23,0,0,1-.251,1.2,3.137,3.137,0,0,1-.652,1,3.358,3.358,0,0,1-.953.7A3.723,3.723,0,0,1,216.308,118.17Zm.1-4.968a.3.3,0,0,0-.2.05.184.184,0,0,0-.05.151c-.2,1.154-.3,2.007-.452,2.66-.05.4-.1.8-.151,1.154a.636.636,0,0,0,.05.3.693.693,0,0,0,.151.2.713.713,0,0,0,.3.1h.452a1.88,1.88,0,0,0,1.556-.753,2.79,2.79,0,0,0,.452-.853,3.821,3.821,0,0,0,.151-1.054,1.787,1.787,0,0,0-.552-1.455A2.628,2.628,0,0,0,216.408,113.2Z" transform="translate(-106.793 -56.243)"/>
      <path id="path-14" data-name="path" class="cls-2" d="M227.747,116.352a1.783,1.783,0,0,1-.1.5,1.353,1.353,0,0,1-.351.4,3.743,3.743,0,0,1-.6.351,6.7,6.7,0,0,1-.9.351,1.611,1.611,0,0,0,.1.853.439.439,0,0,0,.452.3.644.644,0,0,0,.5-.2,1.965,1.965,0,0,0,.4-.5h.1l.1.2a2.043,2.043,0,0,1-.6.7,1.76,1.76,0,0,1-.7.3.878.878,0,0,1-.7-.351,1.444,1.444,0,0,1-.251-1,3.151,3.151,0,0,1,.151-.953,2.545,2.545,0,0,1,.452-.8,2.289,2.289,0,0,1,.6-.6,1.152,1.152,0,0,1,.7-.2.848.848,0,0,1,.5.151A.538.538,0,0,1,227.747,116.352Zm-.9-.151a.538.538,0,0,0-.3.1l-.3.3c-.1.151-.151.3-.251.452-.05.2-.1.351-.151.552a3.623,3.623,0,0,0,1-.452.715.715,0,0,0,.3-.6.267.267,0,0,0-.251-.351Z" transform="translate(-112.26 -57.687)"/>
      <path id="path-15" data-name="path" class="cls-2" d="M232.743,116.252a.57.57,0,0,0-.4.151.78.78,0,0,0-.3.4,3.07,3.07,0,0,0-.251.6,2.937,2.937,0,0,0-.1.652,2.08,2.08,0,0,0,.151.8.5.5,0,0,0,.4.3.892.892,0,0,0,.5-.2,1.965,1.965,0,0,0,.4-.5h.1l.1.2a2.043,2.043,0,0,1-.6.7,1.759,1.759,0,0,1-.7.3.878.878,0,0,1-.7-.351,1.444,1.444,0,0,1-.251-1,3.151,3.151,0,0,1,.151-.953,4,4,0,0,1,.4-.8,2.139,2.139,0,0,1,.6-.552,1.152,1.152,0,0,1,.7-.2,1.1,1.1,0,0,1,.4.05.713.713,0,0,1,.3.1l.05.1-.3.552h-.1A.617.617,0,0,0,232.743,116.252Z" transform="translate(-115.199 -57.737)"/>
      <path id="path-16" data-name="path" class="cls-2" d="M237.791,119.664a.858.858,0,0,1-.652-.351,1.444,1.444,0,0,1-.251-1,2.922,2.922,0,0,1,.151-.953,4,4,0,0,1,.4-.8,1.6,1.6,0,0,1,.6-.552,1.152,1.152,0,0,1,.7-.2.991.991,0,0,1,.7.3,1.455,1.455,0,0,1,.251.9,3.236,3.236,0,0,1-.151,1,2.663,2.663,0,0,1-.4.853,1.73,1.73,0,0,1-.6.6A2.1,2.1,0,0,1,237.791,119.664Zm.3-.452a.667.667,0,0,0,.4-.151c.1-.1.2-.251.3-.351a2.446,2.446,0,0,0,.2-.552,3.312,3.312,0,0,0,.05-.7,1.65,1.65,0,0,0-.2-.853.552.552,0,0,0-.5-.3.725.725,0,0,0-.351.1,2.183,2.183,0,0,0-.3.351,2.1,2.1,0,0,0-.2.5,2.861,2.861,0,0,0-.05.652,2.059,2.059,0,0,0,.05.552c.05.151.05.3.151.4a.5.5,0,0,0,.2.251c.05.1.151.1.251.1Z" transform="translate(-118.089 -57.737)"/>
      <path id="path-17" data-name="path" class="cls-2" d="M243.9,118.259l.1-.5.05-.5c0-.151.05-.251.05-.4v-.2a.369.369,0,0,0-.1-.3.848.848,0,0,0-.251-.1H243.4l.05-.3h1.355l.05.1c-.05.151-.1.351-.151.552s-.1.351-.151.552l-.151.6h.05c.1-.251.251-.5.351-.7a4.186,4.186,0,0,1,.4-.6,1.528,1.528,0,0,1,.4-.4.434.434,0,0,1,.3-.151.854.854,0,0,1,.3.5v.151l-.05.151h-.251a.456.456,0,0,0-.351.151,1.527,1.527,0,0,0-.4.4c-.151.2-.251.4-.4.6a3.885,3.885,0,0,0-.351.8l-.2.953-.05.05-.151.05-.151.05H243.7l-.05-.05C243.751,119.112,243.852,118.71,243.9,118.259Z" transform="translate(-121.339 -57.787)"/>
      <path id="path-18" data-name="path" class="cls-2" d="M253.5,113.956a1.181,1.181,0,0,0,.1.4.738.738,0,0,0,.251.3.809.809,0,0,0,.351.2.709.709,0,0,0,.452.05l2.158-.151a.945.945,0,0,0,.4-.1.675.675,0,0,0,.351-.3l.151.1-.251.452a.5.5,0,0,1-.2.251.441.441,0,0,1-.351.05h-.8l-.05.05.151.3a.854.854,0,0,1,.05.351,1.416,1.416,0,0,1-.2.753,1.475,1.475,0,0,1-.5.6,2.121,2.121,0,0,1-1.556.552,2.519,2.519,0,0,1-.6-.1,1.57,1.57,0,0,1-.5-.251.78.78,0,0,1-.3-.4.9.9,0,0,1-.1-.5,1.443,1.443,0,0,1,.351-.9,1.94,1.94,0,0,1,.953-.6,1.528,1.528,0,0,1-.652-.452,1.2,1.2,0,0,1-.251-.7,1.336,1.336,0,0,1,.151-.6,1.965,1.965,0,0,1,.4-.5,1.145,1.145,0,0,1,.6-.3,1.6,1.6,0,0,1,.7-.1,2.443,2.443,0,0,1,.6.05c.2.05.4.1.652.151v.05c-.05.1-.05.151-.1.251s-.05.2-.1.3-.05.2-.1.3a.636.636,0,0,0-.05.3l-.4.05.05-.151a.184.184,0,0,1,.05-.151V113.4a.456.456,0,0,0-.2-.4,1.012,1.012,0,0,0-.552-.151,1.105,1.105,0,0,0-.8.251A1.6,1.6,0,0,0,253.5,113.956Zm2.208,2.208a1.336,1.336,0,0,0-.151-.6.512.512,0,0,0-.4-.251h-.953c-.151.1-.351.2-.5.3a1.021,1.021,0,0,0-.351.3,1.05,1.05,0,0,0-.2.3.854.854,0,0,0-.05.351,1.181,1.181,0,0,0,.1.4.912.912,0,0,0,.552.5.709.709,0,0,0,.452.05,2.519,2.519,0,0,0,.6-.1,1.041,1.041,0,0,0,.5-.3.731.731,0,0,0,.3-.452.905.905,0,0,0,.1-.5Z" transform="translate(-125.873 -56.043)"/>
      <path id="path-19" data-name="path" class="cls-2" d="M266.908,118.07a2.842,2.842,0,0,1-.9-.151,1.966,1.966,0,0,1-1.154-1.154,2.842,2.842,0,0,1-.151-.9,3.021,3.021,0,0,1,.251-1.3,3.137,3.137,0,0,1,.652-1,2.967,2.967,0,0,1,2.158-.953,1.707,1.707,0,0,1,.5.05c.151,0,.3.05.452.05l.452.1v.05a3.459,3.459,0,0,0-.151.4,1.466,1.466,0,0,0-.1.452,1.783,1.783,0,0,0-.1.5l-.351.05.05-.2a.184.184,0,0,1,.05-.151v-.151c0-.452-.351-.7-1.054-.7a1.473,1.473,0,0,0-.8.2,2.07,2.07,0,0,0-.652.5,2.544,2.544,0,0,0-.452.8,3.82,3.82,0,0,0-.151,1.054,4.946,4.946,0,0,0,.1.853,1.555,1.555,0,0,0,.3.652,1.428,1.428,0,0,0,1.154.552,1.389,1.389,0,0,0,.452-.05.931.931,0,0,0,.351-.1l.3-.151.1-1.054a.441.441,0,0,0-.05-.351.725.725,0,0,0-.351-.1h-.552v-.05l.1-.4h1.606v.151a.991.991,0,0,0-.3.7l-.05.251a.637.637,0,0,1-.05.3c-.05.1,0,.2-.05.251s0,.151,0,.2v.251l-.05.05a2.1,2.1,0,0,1-.5.2c-.2.05-.351.1-.552.151C267.36,118.07,267.109,118.07,266.908,118.07Z" transform="translate(-131.95 -56.143)"/>
      <path id="path-20" data-name="path" class="cls-2" d="M275.853,117.169h.05c.05,0,.05-.05.1-.05l.2-.151.3-.251h.1l.1.2a4.334,4.334,0,0,1-.7.652.636.636,0,0,1-.452.2.2.2,0,0,1-.251-.251c.1-.452.151-.9.2-1.3a1.708,1.708,0,0,0,.05-.5c0-.151.05-.3.05-.452s.05-.251.05-.351v-.2a.285.285,0,0,0-.2-.351H275l.05-.3h1.355l.05.1a6.683,6.683,0,0,0-.251.953c-.1.351-.151.652-.251,1,0,.3-.1.7-.1,1.054Zm.351-4.366a.343.343,0,0,1-.351-.351.667.667,0,0,1,.151-.4.57.57,0,0,1,.4-.151.343.343,0,0,1,.351.351.668.668,0,0,1-.151.4.57.57,0,0,1-.4.151Z" transform="translate(-137.081 -55.794)"/>
      <path id="path-21" data-name="path" class="cls-2" d="M278.3,113.96l.05-.251.652-.1.05-.652a3.7,3.7,0,0,1,.2-.7,1.423,1.423,0,0,1,.4-.552,1.8,1.8,0,0,1,.5-.351,1.336,1.336,0,0,1,.6-.151,1.389,1.389,0,0,1,.452.05,1.181,1.181,0,0,1,.4.1l.05.1-.251.5h-.151a1.516,1.516,0,0,0-.8-.251c-.452,0-.7.3-.753.953l-.1,1h1.907l-.05.3h-1.756l-.1.05-.452,3.864a1.594,1.594,0,0,1-.4,1,1.1,1.1,0,0,1-.853.351,1.465,1.465,0,0,1-.452-.1.6.6,0,0,1-.251-.251c0-.05.05-.1.05-.151s.05-.1.05-.2l.1-.2c0-.05.05-.1.05-.151h.1a.848.848,0,0,0,.151.5.619.619,0,0,0,.4.2.456.456,0,0,0,.4-.2.9.9,0,0,0,.2-.452,3.8,3.8,0,0,0,.05-.753,3.314,3.314,0,0,1,.05-.7l.251-2.81-.05-.05-.7.05Z" transform="translate(-138.177 -55.446)"/>
      <path id="path-22" data-name="path" class="cls-2" d="M285.407,117.365l.1.2a2.32,2.32,0,0,1-.351.351,2.184,2.184,0,0,1-.351.3,1.05,1.05,0,0,1-.3.2c-.05.05-.151.05-.251.1a.489.489,0,0,1-.5-.4v-.151l.452-2.81-.05-.05H283.6v-.05l.05-.251.652-.151.05-.351c0-.1.05-.2.05-.3s.05-.2.05-.3l.753-.3.05.1-.1.351c-.05.1-.05.251-.1.4s-.05.3-.1.452h1.054l-.05.3h-.953l-.1.05-.5,2.509c-.05.2.05.3.2.3a.713.713,0,0,0,.3-.1c.151-.151.351-.3.5-.452Z" transform="translate(-141.365 -56.542)"/>
      <path id="path-23" data-name="path" class="cls-2" d="M288.152,118.46a1.008,1.008,0,0,0,.2.652.645.645,0,0,0,.6.2.57.57,0,0,0,.4-.151.542.542,0,0,0,.151-.351.57.57,0,0,0-.151-.4,2.317,2.317,0,0,0-.351-.351l-.251-.251-.251-.251c-.05-.1-.151-.2-.2-.3a.636.636,0,0,1-.05-.3,1.465,1.465,0,0,1,.1-.452.9.9,0,0,1,.251-.351,1.093,1.093,0,0,1,.4-.251,1.3,1.3,0,0,1,1,0,.9.9,0,0,1,.351.251c-.05.1-.1.251-.151.351l-.151.3h-.1a1.093,1.093,0,0,0-.251-.4.7.7,0,0,0-.452-.151.93.93,0,0,0-.351.1.434.434,0,0,0-.151.3.376.376,0,0,0,.05.251.881.881,0,0,0,.2.251l.3.3c.1.1.251.2.351.3a.9.9,0,0,1,.251.351.946.946,0,0,1,.1.4,1.466,1.466,0,0,1-.1.452,1.208,1.208,0,0,1-.3.4,2.034,2.034,0,0,1-.452.251,1.783,1.783,0,0,1-.5.1,2.937,2.937,0,0,1-.652-.1.531.531,0,0,1-.3-.351c0-.05.05-.1.05-.2a.261.261,0,0,1,.1-.2l.1-.2c0-.05.05-.1.05-.151l.151-.05Z" transform="translate(-143.408 -57.737)"/>
    </g>
    <g id="group-15" transform="translate(155 764.848)">
      <g id="XMLID_1_" class="cls-3" transform="translate(89.227)">
        <path id="XMLID_7_" class="cls-4" d="M192.69,62.385c.753-.4,1.506-.753,2.258-1.1a26.79,26.79,0,0,1,10.388-1.957,34.155,34.155,0,0,1,6.072.552l-11.542-7.829,18.869,9.686c1.355.452,2.509.9,3.463,1.3v-.05c-1.255-4.918-4.818-15.607-13.349-20.626A26.281,26.281,0,0,0,195.5,39.1a44.766,44.766,0,0,0-13.7,2.258S183.958,54.858,192.69,62.385Z" transform="translate(-179.241 -19.478)"/>
        <path id="XMLID_6_" class="cls-4" d="M196.071,100.9l12.5-6.122a47.9,47.9,0,0,1,7.528-6.022A40.374,40.374,0,0,0,202.8,86.2a23.147,23.147,0,0,0-9.083,1.706c-12.145,5.069-17.012,21.077-17.012,21.077s8.481,4.466,17.866,4.466a25.615,25.615,0,0,0,4.366-.351,17.411,17.411,0,0,1,.3-2.258,29.621,29.621,0,0,1,6.825-13.4Z" transform="translate(-176.7 -42.941)"/>
        <path id="XMLID_5_" class="cls-4" d="M240.081,121.892,243.293,96.8c-3.965,2.61-13.449,9.736-15.356,19.873-2.459,12.9,8.28,25.795,8.28,25.795s14.252-7.829,17.012-20.425c-5.42-5.771-7.477-13.6-8.23-19.321Z" transform="translate(-202.042 -48.222)"/>
        <path id="XMLID_4_" class="cls-4" d="M294.3,103.612c-.452-.4-.9-.7-1.355-1.054a28.531,28.531,0,0,1-8.431,1.2,40.188,40.188,0,0,1-8.832-1.054l12.044,12.4-17.213-13.8c-.953-.3-1.807-.652-2.509-.9.3,5.32,1.756,15.908,8.883,22.332,6.323,5.721,15.457,6.725,21.178,6.725a39.44,39.44,0,0,0,5.169-.3S304.032,112.444,294.3,103.612Z" transform="translate(-222.182 -50.015)"/>
        <path id="XMLID_3_" class="cls-4" d="M293.88,58,274.308,68.635c-.853.652-1.606,1.2-2.208,1.606a42.707,42.707,0,0,0,14.4,2.81,24.089,24.089,0,0,0,10.288-2.108c11.944-5.57,16.109-21.78,16.109-21.78A43.8,43.8,0,0,0,296.138,45.4a24.635,24.635,0,0,0-10.087,2.007,26.385,26.385,0,0,1-6.574,16.26Z" transform="translate(-224.224 -22.616)"/>
        <path id="XMLID_2_" class="cls-4" d="M253.893,37.237l1-16.26.9,14.754h0l-.05,1.606-.151,7.176c9.485-6.574,22.031-24.088-.7-44.513,0,0-11.091,9.133-12.7,20.977C248.272,25.192,251.885,31.867,253.893,37.237Z" transform="translate(-209.329)"/>
      </g>
      <g id="group" transform="translate(0 12.145)">
        <path id="path-24" data-name="path" class="cls-2" d="M42.861,24.2h.151a.133.133,0,0,1,.151.151l.3-.151a.133.133,0,0,1,.151.151l.3-.151h.2a34.257,34.257,0,0,1,5.169.4,1,1,0,0,1,.4-.151c0,.2.452.3,1.405.4l.3-.151c.652.05.953.251.953.552h1.1c.351.151.552.351.552.552l.4-.3a3.719,3.719,0,0,1,1.1.4,1,1,0,0,1,.4-.151l2.108,1.656-.151.3c.4,0,.753.3,1.1.853.251.2.4.3.552.3v.151h-.3a9.715,9.715,0,0,0,1.255,1.1l-.151.3v.151c.4,0,.753.452.953,1.405a.8.8,0,0,1,.4.151l-.151.552a2.438,2.438,0,0,0,.3.853.133.133,0,0,0-.151.151c.151,0,.3.151.4.4v.3a.133.133,0,0,1-.151.151c0,.05.151.452.4,1.1l-.151.7a6.745,6.745,0,0,1,.151,1.1l.3-.151.151.3a.266.266,0,0,1-.3.3v-.3c-.2,0-.351.251-.4.7.351.151.552.3.552.4v.151l-.4.853q.3,0,.3.151a1,1,0,0,0-.151.4h.151l-.3.7a.266.266,0,0,1,.3.3c0,.2-.151.3-.4.3l.151.7a.266.266,0,0,0-.3.3l.151.7c-.3,0-.552.251-.853.7v.151l.151.3a.266.266,0,0,0-.3.3.133.133,0,0,1,.151.151.133.133,0,0,0-.151.151.266.266,0,0,1,.3.3,1.989,1.989,0,0,1-.4,1.1h-.151v.7l-.7.853h.3v.151a4.924,4.924,0,0,0-.7,1.405l.151.3A14.654,14.654,0,0,0,58.669,52.2a5.975,5.975,0,0,0-1.1,1.807,8.7,8.7,0,0,0-1.405,2.108c-.151,0-.6.552-1.405,1.656,0,.6-.351,1.054-1.1,1.405,0,.151-.3.351-.853.7,0,.151-.3.4-.853.7,0,.251-.3.6-.953,1.1,0,.452-.3.7-.853.7l-.853.953a1,1,0,0,0-.4-.151l.151.3-.552.4-.3-.151c0,.351-.1.552-.3.552l-.3-.151c0,.5-.8,1.1-2.359,1.807.853,2.911,1.606,4.868,2.359,5.821a4.18,4.18,0,0,1,.853,2.108c.2,0,1,1,2.359,3.061a28.076,28.076,0,0,0,3.764,3.914,41.718,41.718,0,0,0,6.122,5.972,30.962,30.962,0,0,1,4.567,3.613,3.105,3.105,0,0,1,1.1.7,3.777,3.777,0,0,1,1.405.7,26.817,26.817,0,0,0,4.717,2.208v.151l.7-.151-.151.3v.151h.151v-.3c.853.1,1.255.251,1.255.4a.133.133,0,0,0,.151-.151c1.506.151,2.208.3,2.208.4l.7-.151h1.405a.133.133,0,0,1,.151.151,2.075,2.075,0,0,1,.953-.4v.151c2.509-.552,4.115-1.405,4.717-2.509a7.088,7.088,0,0,0,.953-2.66h.3a.266.266,0,0,0-.3-.3c.05-.552.151-.853.3-.853l-.151-.3v-.4a.133.133,0,0,1,.151-.151l-.151-.3a.133.133,0,0,1,.151-.151c0-2.409-.9-5.269-2.76-8.632a6.356,6.356,0,0,0-4.717-1.656h-.4c-2.108,0-3.663.6-4.567,1.807l-.953,1.255.151.3c-.251.8-.5,1.2-.7,1.255a1.6,1.6,0,0,1,.3.853.133.133,0,0,1-.151.151l.151.3-.151.7a7.449,7.449,0,0,1,.853,2.208,4.175,4.175,0,0,0,3.463,1.506c0,.1.151.151.4.151a11.059,11.059,0,0,0,1.656-.4.133.133,0,0,0,.151.151l1.255-1.1-.3-.4-.3.151h-.151a2.938,2.938,0,0,1-1.807-1.957v-.151h.151a1,1,0,0,1-.151-.4c.05-.452.552-.853,1.506-1.255,1.506,0,2.509.853,3.061,2.509a3.587,3.587,0,0,1-1.807,3.362,2.142,2.142,0,0,1-1.506.853.133.133,0,0,0-.151-.151c0,.3-.652.452-1.957.552a.133.133,0,0,0-.151-.151.266.266,0,0,1-.3.3,3.661,3.661,0,0,1-1.957-.853,6.557,6.557,0,0,1-3.362-6.122c.1-.552.2-.853.3-.853l-.151-.3.3-.4A1.012,1.012,0,0,0,71.065,80a7.085,7.085,0,0,1,2.208-3.061c1.807-.652,2.76-1.1,2.76-1.255a.8.8,0,0,1,.4.151,13.245,13.245,0,0,1,1.656-.3,1,1,0,0,0,.4.151l.7-.3.853.4h.3l.7-.151.151.3a.133.133,0,0,0,.151-.151,3.219,3.219,0,0,1,2.208.953c.7.251,1.556,1.355,2.66,3.362v.552l-.151.3c.151,0,.3.151.4.4a.133.133,0,0,0-.151.151c.251,0,.552.9.953,2.76a.266.266,0,0,0-.3.3c.3,0,.4.1.4.3l-.151.552.3,1.1-.4.3a7.962,7.962,0,0,0,.4,1.1v.151c0,.2-.151.3-.4.3l.151.3v.953h-.151l-.3-.151v.151a.133.133,0,0,0,.151.151,15.425,15.425,0,0,1-2.66,5.57c-.4.753-1.556,1.656-3.463,2.76a6.724,6.724,0,0,1-1.506.7v-.452a12.1,12.1,0,0,1-2.911.853h-.151a.133.133,0,0,1-.151-.151,3.792,3.792,0,0,1-1.957.552,3.914,3.914,0,0,0-1.1-.151l-.7.151a1,1,0,0,0-.4-.151,1,1,0,0,1-.4.151c-.3-.1-.4-.2-.4-.3a.133.133,0,0,0-.151.151,17.859,17.859,0,0,1-5.269-1.656l-.3.151a12.293,12.293,0,0,1-4.868-3.212,13.258,13.258,0,0,1-2.108-1.807v-.3c.3,0,.4.2.4.552h.3L56.11,89.188v.151a1,1,0,0,1,.151.4h-.3A8.44,8.44,0,0,0,54.7,87.783a.133.133,0,0,1,.151-.151h.151v-.3a1.3,1.3,0,0,1-1.255-.853v-.151h.4a1,1,0,0,1-.151-.4l-.3.151H53.55c-.2,0-.452-.452-.853-1.405a.133.133,0,0,0,.151-.151c-.3,0-.9-1.054-1.807-3.212a112.5,112.5,0,0,1-7.528-14.6l-.3-.151c0,.251-.9.7-2.66,1.405l-.3-.151a14.539,14.539,0,0,1-3.914,1.255,1,1,0,0,0-.4-.151c0,.2-.351.3-1.1.4v.151l-.7-.151h-.3a1.012,1.012,0,0,0-.552.151l-.3-.151a3.974,3.974,0,0,0-1.405.4,1,1,0,0,1-.151-.4l-.4.3h-.151a.133.133,0,0,1-.151-.151,1.012,1.012,0,0,1-.552.151l.151.3v.151a.133.133,0,0,1-.151.151l.151.3a1.13,1.13,0,0,0-.4.7,1,1,0,0,1,.151.4c-.3.2-.753,1.255-1.405,3.212A28.292,28.292,0,0,0,27.254,77.9Q25.3,80.833,25.3,81.661c-.2,0-.3-.151-.3-.4h-.151c0,.151-.1.3-.3.552v.151l.4-.3H25.1v.151l-1.1,1.255a.133.133,0,0,1,.151.151c-.3.1-.7.753-1.255,1.957a.835.835,0,0,0-.853.552.133.133,0,0,1,.151.151.8.8,0,0,0-.552.853l-.3-.151h-.151a2.443,2.443,0,0,1-.552.953q0,.6-2.108,1.957v.151h-.151l-.3-.151c0,.351-.3.6-.853.7v-.151a16.475,16.475,0,0,1-3.362,1.807A.133.133,0,0,0,13.7,91.7c0,.151-.151.3-.4.4h-.151l-.3-.151c0,.3-.1.4-.3.4h-.3l-.3-.151c-.05.3-.4.4-1.1.4l-.7-.151c0,.2-.151.3-.4.3a.8.8,0,0,1-.4-.151,3.707,3.707,0,0,1-.953.151L7.833,92.6l-.3.151a1,1,0,0,0-.4-.151.133.133,0,0,1-.151.151c0-.151-.7-.3-2.108-.552L2.664,90.945C.155,89.038-1.1,87.432-1.1,86.077v-.251a.133.133,0,0,1,.151-.151c.5-.351.4-.853.4-1.506v-.3a1.6,1.6,0,0,1,.3-.853A.133.133,0,0,1-.4,82.865l.3-.151-.151-.552a7.1,7.1,0,0,1,.7-2.359.133.133,0,0,1-.151-.151c.251,0,.652-.853,1.255-2.509.1,0,.2-.151.3-.4a.133.133,0,0,1-.151-.151c.151,0,.3-.2.4-.552l.3.151h.151V76.04H2.212v-.251h.3l-.151-.3c.251-.2.4-.3.552-.3l-.151-.3a3.8,3.8,0,0,1,1.255-1.1h.151l.3.151c0-.151.151-.3.4-.552a.133.133,0,0,1-.151-.151,3,3,0,0,1,1.1-.552v.151a7.319,7.319,0,0,1,4.316-.953,1,1,0,0,0,.4.151.266.266,0,0,1,.3-.3,3.658,3.658,0,0,0,1.656.4c0,.151.151.3.4.4a.133.133,0,0,1,.151-.151,8.867,8.867,0,0,1,1.255,1.506h.151a9.252,9.252,0,0,0,.3,1.807c0,1.2-.853,2.308-2.509,3.212a.133.133,0,0,1-.151-.151,1.929,1.929,0,0,1-.853.3l-.3-.151a3.707,3.707,0,0,1-.953.151A3.474,3.474,0,0,1,7.632,77.8l.151-.3c-.3,0-.4-.251-.4-.7l.151-.3a1,1,0,0,1-.151-.4c.2,0,.6-.351,1.255-1.1l.7-.151h.853a1.449,1.449,0,0,1,.853,1.255v.552l-.3.4c.2,0,.3.151.3.4h.7q1.129,0,2.108-1.656c-.4-2.058-1.355-3.061-2.911-3.061h-.552c-2.76,0-5.219,1.506-7.377,4.567a21.861,21.861,0,0,0-1.807,4.316H.958l.151.3-.4.7v.151l.251.552v.151a.133.133,0,0,1-.151.151l.151.3v.151H.707c.4,1.2.8,1.807,1.1,1.807-.05.452-.2.7-.4.7v.151H1.56a1,1,0,0,1,.4-.151,1,1,0,0,1,.151.4,1,1,0,0,0-.151.4,1.834,1.834,0,0,1,.953,1.656h.3v-.151a1,1,0,0,1-.151-.4l.3-.151a.266.266,0,0,1,.3.3v.4c.652.652,1.1.953,1.405.953l-.151.3a1,1,0,0,1,.151.4l.4-.3a1,1,0,0,0,.4.151,1,1,0,0,1,.4-.151,1,1,0,0,1,.151.4,1.012,1.012,0,0,0,.552-.151,2.445,2.445,0,0,0,1.255.3c1.756,0,3.563-1.1,5.42-3.362.2,0,.9-.753,2.108-2.208a27.472,27.472,0,0,0,3.613-5.018l1.656-2.208A.133.133,0,0,1,20.881,78a30.063,30.063,0,0,0,3.463-6.825,9.128,9.128,0,0,0,1.405-2.509,3.589,3.589,0,0,0-.953-1.1l-.3.151q-5.42-4.441-5.57-5.57c-.3,0-.652-.753-1.1-2.208h.151l-.3-.953.151-.7-.151-.853h.151l-.151-.3a2,2,0,0,1,.552-1.255l-.151-.3a1.823,1.823,0,0,1,.7-1.255,1,1,0,0,1-.151-.4,1.575,1.575,0,0,0,.853-1.255l.953-.853c.2,0,.3-.3.3-.853l.3.251.151-.3a1,1,0,0,1-.151-.4,4.551,4.551,0,0,0,.953-.953h.151l.3.151a.5.5,0,0,1,.552-.552v-.151h-.3a2.439,2.439,0,0,1,.3-.853,1.012,1.012,0,0,1-.151-.552h.3v-.151h-.6v-.552c.151-.351.351-.552.552-.552v-.151c-.3,0-.4-.1-.4-.3v-.151a.266.266,0,0,1,.3-.3l-.151-.7v-.151l.3.151h.151v-.151h-.3v-.3l.151-.3a.133.133,0,0,1-.151-.151.266.266,0,0,0,.3-.3V43.37a1.012,1.012,0,0,0-.151-.552L24.795,38.5q.9-1.054,3.914-5.42a52.892,52.892,0,0,1,5.269-4.868,9.779,9.779,0,0,0,2.509-1.807A27.62,27.62,0,0,1,42.861,24.2ZM3.617,74.836v.3h.151v-.3ZM7.532,91.1v.151h.3V91.1Zm.552,0v.151h.3V91.1Zm4.015-.652v.3h.151v-.3Zm1.957-1.857v.4h.151l-.151.3v.151h.151a.266.266,0,0,1,.3-.3v-.151c-.2,0-.3-.151-.3-.4Zm1.1-.953v.3h.3A.266.266,0,0,0,15.16,87.633Zm.7-.552v.151c0,.2.151.3.4.3l-.151.3h.151c.151,0,.3-.2.4-.552h-.151l-.3.151a.266.266,0,0,0-.3-.3h-.05Zm0,2.208v.3h.151v-.3Zm.4-3.162-.151.3.3.151.151-.3Zm.853-.7a.133.133,0,0,1-.151.151,1,1,0,0,1,.151.4h.3c0-.2.151-.3.4-.3v-.3h-.151a1,1,0,0,1-.4.151C17.267,85.475,17.217,85.424,17.117,85.424Zm-.151,1.656v.151h.3v-.151Zm.452-.151v.151h.3V86.93Zm0,1.1v.552h.1v-.552Zm.4-3.162a.266.266,0,0,1-.3.3v.151h.3l.151-.3v-.151Zm-.151,1.255v.3h.3v-.3Zm.151.8v.151h.3V86.93Zm.251-2.76a.8.8,0,0,1-.151.4h.4a.8.8,0,0,1,.151-.4Zm-.1,3.613v.3h.151v-.3Zm.1-1.957a.266.266,0,0,0,.3.3h.151v-.3Zm.6-2.359v.151h.3v-.151Zm0,1.1v.151h.3v-.151Zm.8-2.66v.151h.3v-.151Zm.3,4.767v.3h.151v-.3Zm.4-35.079h.151v.3h-.151Zm.151,10.739v.3h.151v-.3Zm.151,21.278v.4h.151v-.4Zm0,3.864v.151h.3v-.151Zm.1-25.845h.3v-.3C20.68,61.386,20.579,61.437,20.579,61.637ZM20.73,51.9v.151h.3V51.9Zm0,28.5h.151a.266.266,0,0,0,.3-.3h-.151Q20.73,80.18,20.73,80.406Zm0,.853v.3h.3v-.3Zm.151,3.613v.151h.3v-.151Zm.251-30.913v.151h.552v-.3A.9.9,0,0,1,21.132,53.959Zm.151-3.312V50.8h.3v-.151Zm.3,4.165v.3a.266.266,0,0,0,.3-.3Zm0,.7a.266.266,0,0,0,.3.3v-.3Zm0,24.49c.151.351.3.552.4.552v-.151a1,1,0,0,1-.151-.4Zm0,4.567a.266.266,0,0,0,.3.3v-.3Zm.251-34.778v.3h.3A.266.266,0,0,0,21.834,49.794Zm.151,14.453a.266.266,0,0,0,.3.3l.151-.3Zm.151,17.012v.3h.151v-.3Zm2.208-27.852c0,.3-.2.4-.552.4l.151.3-.853,1.506.151.3v.4c0,.2-.151.3-.4.3l.3.552a3.515,3.515,0,0,1-.853,1.405v.151l.3-.151a1.716,1.716,0,0,0,.151.853.644.644,0,0,0-.2.5.133.133,0,0,1,.151.151.266.266,0,0,0-.3.3v.151h.3l-.3.4a.266.266,0,0,1,.3.3l-.151.251A17.328,17.328,0,0,1,24.644,65.1,8.351,8.351,0,0,0,26.6,66.756a29.852,29.852,0,0,0,2.509-5.821c.1-.452.3-.7.552-.7l-.151-.3,1.255-2.509c-1.355-.552-2.108-.853-2.208-.853a1,1,0,0,1-.4.151A5.631,5.631,0,0,1,25.8,54.762C25.648,54.812,25.2,54.361,24.343,53.407ZM22.286,80.1h.251v-.3C22.336,79.854,22.286,79.954,22.286,80.1Zm.1-2.61v.151a.8.8,0,0,1,.4.151v-.3Zm0,3.312v.4a.266.266,0,0,0,.3-.3v-.1Zm.3-.953v.3h.151v-.3Zm.151.7h.3a1,1,0,0,1,.4-.151v-.151h-.4C22.938,80.306,22.838,80.356,22.838,80.557Zm.251-31.867v.151h.3V48.69Zm0,3.864V52.7h.3v-.151Zm0,31.164v.151h.3v-.151ZM23.39,79v.3h.4a.266.266,0,0,0-.3-.3Zm0,2.66a.133.133,0,0,0,.151.151l-.151.3v.151h.3a1.012,1.012,0,0,1,.151-.552H23.39ZM23.54,78.6h.151l.7-.151v-.3C23.791,78.248,23.54,78.4,23.54,78.6Zm.1,1.1a.8.8,0,0,1-.151.4l.3.151a1.012,1.012,0,0,1,.151-.552Zm0-4.717v.151h.3v-.151ZM24.092,79l-.3-.151V79a.133.133,0,0,1,.151.151,4.18,4.18,0,0,1,1.1-.151V78.85a.266.266,0,0,1-.3-.3h-.151Zm.1-2.359.3.151h.3v-.552h-.151C24.494,76.241,24.343,76.391,24.193,76.642ZM45.621,25.856a.133.133,0,0,0-.151-.151c0,.1-.5.351-1.506.7v-.151a12.178,12.178,0,0,0-4.316,2.208H38.8v.3h-.151l-.3-.151c-.351.552-1.807,1.556-4.316,3.061,0,.1-.452.5-1.405,1.255,0,.151-.452.5-1.405,1.1v.3h-.151l-.3-.151c0,.2-.2.351-.552.4,0,.6-.753,1.455-2.208,2.509C26.6,38.854,25.9,39.857,25.9,40.159a4.392,4.392,0,0,0-.853.953l.151.3c-.351.3-.652,1.506-.953,3.613l.151.3v.853l-.151,1.405h.8l.4.3H25.6l.853-.7h1.506l.4.3a.266.266,0,0,1,.3-.3,47.354,47.354,0,0,1,5.42,2.509,5.909,5.909,0,0,1,1.1-2.359,17.414,17.414,0,0,1,1.656-3.613,3.972,3.972,0,0,1,1.255-2.108l-.151-.3A14.376,14.376,0,0,1,40.051,37.7V38H40.2v-.552h.3v-.4l-.3.1v-.4h.552l-.151-.3a1,1,0,0,1,.4-.151v-.151h-.3v-.3c.1,0,.351-.3.7-.853a.133.133,0,0,0,.151.151c0-.251.3-.5.853-.853a3.606,3.606,0,0,1,.7-1.255q0-.677,1.807-1.807v.3a.266.266,0,0,0,.3-.3h-.3c.7-.9,1.255-1.405,1.656-1.405l-.3-.4v-.151c1.506-.3,2.208-.652,2.208-1.1l.3.151,1.656-.552a8.379,8.379,0,0,1,2.108.953h.4a1.929,1.929,0,0,1,.3.853,46.119,46.119,0,0,0-5.721,4.165h-.3l.151.3a8.315,8.315,0,0,1-1.756,2.108l-.8,1,.151.3c0,.2-.151.3-.4.3l.151.3V38.2h-.151l-.3-.151c0,.552-.2.853-.552.853l.151.7v.05c-.351,0-.953.853-1.807,2.509l-.3.3.151.3v.151c-.351.552-.6.853-.853.853l.151.3v.151c-.251.753-.452,1.1-.552,1.1a.133.133,0,0,0-.151-.151v.3h.3a9,9,0,0,1-1.1,2.76,5.253,5.253,0,0,1-.3,1.1c-.251,0-.351-.2-.4-.552-.151,0-.3.151-.4.4a1.084,1.084,0,0,0,.7.3,7.7,7.7,0,0,0-.3,1.1h-.3l.151-.3H38.7a1.012,1.012,0,0,1-.552.151V50.6c.351.05.552.2.552.4a8.6,8.6,0,0,1-.853,1.656v.05a.266.266,0,0,0,.3.3.266.266,0,0,1,.3-.3H38.6v.7l.3-.151.953.7c0-.151.3-.452.953-.853h.7a2.44,2.44,0,0,1,.7-1.1,1.2,1.2,0,0,1,.7-1.1l-.151-.3v-.151l.151-.3c-1.405-.3-2.108-.8-2.108-1.405.05-.853.2-1.255.4-1.255a.133.133,0,0,0,.151.151l-.151-.7v-.151c.2,0,.552-.251,1.1-.7l.151.3.3-.151h.151c.9,0,1.706.7,2.359,2.108a.266.266,0,0,0-.3.3c.452.4.7.652.7.853-.8,1.756-1.255,2.66-1.405,2.66l.151.3a1,1,0,0,0-.151.4h.151a.5.5,0,0,1-.552.552l.151.3v.151l-.4-.3h-.151l.151.3a.8.8,0,0,0-.4.151,1,1,0,0,0-.4-.151v.3l.151.3c-.5.753-.753,1.1-.853,1.1h-.151a.133.133,0,0,1-.151-.151,1,1,0,0,1-.4.151l.151.3v.3l-.151.3c.4.2.652.351.7.552l-.3.151h-.4v-.3l-.3.151c.151.552.452.853.953.853h.151l-.3-.4v-.151h.151c.2,0,.4.3.552.953h.151v.4H42.61l-.4-.3v.151c0,.3.251.4.7.4v.151l-.3.4a3.123,3.123,0,0,1,.7.953h.151v.151l-.151.3a5.945,5.945,0,0,1,.953,1.957h.151c1.255-.552,3.011-2.158,5.269-4.868a8.561,8.561,0,0,1,1.807-2.66A33.231,33.231,0,0,0,56.06,43.22a22.288,22.288,0,0,1,.853-3.914l-.151-.3q0-.3.151-.3L56.762,37.3v-.953a.133.133,0,0,1,.151-.151l-.151-.3v-.151A13.069,13.069,0,0,0,54.4,28.666l.151-.3c-.251,0-.552-.3-.953-.953a1.784,1.784,0,0,1-.853-.4l.151-.3v-.151l-.3.151-.7-.4a.133.133,0,0,1-.151.151c-.1-.452-1.405-.7-3.914-.853h-.4A8.173,8.173,0,0,0,45.621,25.856ZM24.494,66.2v.151h.3V66.2Zm0,11.542a.266.266,0,0,0,.3.3h.151a.266.266,0,0,0-.3-.3Zm.151-1.807h.3v-.3Q24.644,75.714,24.644,75.94Zm0,1.405v.3h.3v-.3Zm.7-24.189v.151h.3v-.151Zm.1-2.961v.151h.3V50.2Zm0,25.895v.151h.3V76.09Zm.3-25.192v.151h.3V50.9ZM26,52.3c1.756,2.208,3.162,3.362,4.316,3.362a2.149,2.149,0,0,1,1.1.3A34.217,34.217,0,0,1,33.627,51.1v-.4a2.4,2.4,0,0,0-1.957-.853A12.9,12.9,0,0,0,26.25,51.8Zm.151,22.131v.151h.3v-.151Zm.552-1.957a1,1,0,0,1,.151.4H27v-.4Zm.853-1.1v.3h.151v-.3Zm.151-15.607v.151h.3v-.151Zm.7,13.8v.3h.151v-.3Zm.652-3.513v.3h.151v-.3Zm0,1.405v.4a1.51,1.51,0,0,1,.7-.3v-.151h-.7Zm.151-5.018v.151h.4V62.44Zm0,3.212v.3h.151v-.3Zm.151-32.569v.3h.151v-.3Zm.151,30.763V64h.3v-.151Zm0,6.273v.151h.4l.151-.3h-.151A1,1,0,0,1,29.512,70.118Zm.151-3.212v.151h.3v-.151Zm.552-3.463v.3h.151v-.3Zm0,1.255v.4h.3v-.4Zm.7-1.405v.151a1.012,1.012,0,0,1,.151.552.266.266,0,0,0-.3.3l.552.151v-.2a1.012,1.012,0,0,1-.151-.552.133.133,0,0,0,.151-.151Zm.1-7.227v.151h.4v-.151Zm0,6.925v.151h.3v-.151ZM38.7,56.87c0,.3-.3.4-.953.4v-.151a3.219,3.219,0,0,1-1.807.4.133.133,0,0,0-.151-.151,8.682,8.682,0,0,1-1.1,2.359l.151.3c0,.151-.2.3-.552.4l.151.3v.151h-.351l.151.3c-.2.351-.4.552-.7.552v.3a.8.8,0,0,1,.4.151c0,.151-.3.5-.853.953v.151h.3v.151a1.18,1.18,0,0,0-.3.853l-.4-.3v.3h.3v.3h-.3a.133.133,0,0,0,.151.151,4.053,4.053,0,0,1-1.255,2.509l.151.853a.266.266,0,0,0-.3.3.133.133,0,0,1,.151.151A28.992,28.992,0,0,0,40.6,65.652c1.656-1,2.559-1.807,2.66-2.359a.266.266,0,0,1-.3-.3.133.133,0,0,0,.151-.151c-.452-.251-.7-.452-.7-.552v-.552l.151-.3a.8.8,0,0,1-.4-.151l.151-.3a1.852,1.852,0,0,0-.7-.953l.151-.3c0-.05-.552-.9-1.656-2.509v-.3h-.3a1.012,1.012,0,0,0-.552.151A.755.755,0,0,0,38.7,56.87Zm-6.674,4.767c0,.3-.1.4-.3.4v.151h.4a.133.133,0,0,1,.151-.151,1,1,0,0,1-.151-.4Zm-.151.8v.3h.3C32.122,62.541,32.072,62.44,31.871,62.44Zm.151.452v.151a.3.3,0,0,0,.6,0A5.209,5.209,0,0,1,32.021,62.892Zm.1-1.556v.151h.3v-.151Zm0,2.108v.3h.151v-.3Zm.3-2.81v.151h.3v-.151Zm.7-30.462v.151h.3v-.151Zm.953,20.475v.3h.151v-.3Zm1.405-1.405-.151.3v.151a.266.266,0,0,0,.3.3l.151-.3v-.151A.266.266,0,0,0,35.484,49.242Zm.552,6.524v.3h.3v-.3Zm.7-.8.151.3v.3h-.3v.3q.3,0,.3.151a3.371,3.371,0,0,0,1.506-.953v-.151c-.3-.7-.552-1.054-.8-1.1h-.151c-.151,0-.3.351-.552,1.1h-.151Zm.4-11.593v.151h.3V43.37Zm.452,7.678V51.2a.266.266,0,0,0,.3-.3v-.151C37.642,50.8,37.592,50.9,37.592,51.048Zm0,.552.3.151v-.4C37.642,51.35,37.592,51.45,37.592,51.6Zm.4-.4v.3h.151v-.3Zm.151-.452v.3a.266.266,0,0,0,.3-.3Zm.251-9.284v.3h.151v-.3Zm.853,6.223a1.012,1.012,0,0,0-.151.552l-.3-.151h-.151v.151c.151,0,.3.151.552.4h.151v-.151l-.151-.3a.266.266,0,0,0,.3-.3C39.5,47.786,39.449,47.686,39.248,47.686Zm0-8.18v.3H39.4v-.3Zm.4,7.076v.3a.266.266,0,0,0,.3-.3Zm.4-.8v.3H40.2v-.3Zm.6-6.976v.3a1,1,0,0,1,.4-.151V38.8ZM40.9,55.916v.3a.266.266,0,0,0,.3-.3Zm.3-13.1-.151.3h.4C41.456,42.919,41.356,42.818,41.205,42.818Zm.4,4.215v.151h.3v-.151Zm.3-9.736v.151h.3V37.3Zm0,.4v.151h.4V37.7Zm1.907,11.542v.151h.3v-.151Zm0,3.764v.3h.151v-.3Zm.7-19.371v.3h.151v-.3Zm0,.7v.151h.3v-.151Zm1.405-.4v.3a1,1,0,0,1,.4-.151,1,1,0,0,1-.151-.4A.237.237,0,0,0,45.922,33.936Zm.251,28.806v.151h.552l-.151-.3A.8.8,0,0,1,46.173,62.741Zm.7-33.121h.151a.266.266,0,0,0,.3-.3h-.151Q46.876,29.394,46.876,29.62ZM52.3,54.812v.151h.4v-.151ZM53.45,84.973v.151c.251.452.452.7.552.7v-.151C53.751,85.224,53.55,84.973,53.45,84.973Zm.251-26.7v.151h.552v-.151ZM54,25.3a.266.266,0,0,1,.3.3H54Zm.4,55.353v.3h.151v-.3Zm.151,6.022v.151h.3v-.151Zm1.255-58.464v.3h.151v-.3Zm.251,16.561v.3h.151v-.3Zm.151-16.812v.151h.3v-.151Zm.3,15.858v.3a.266.266,0,0,0,.3-.3Zm0,10.84v.3a.266.266,0,0,0,.3-.3Zm.1,35.33a.266.266,0,0,1,.3.3v.151a.266.266,0,0,1-.3-.3Zm.3.552h.151a12.463,12.463,0,0,1,1.506,1.807v.3h-.151Q56.913,90.995,56.913,90.543ZM59.02,47.837v.151h.3v-.151Zm.1-5.972v.151h.3v-.151Zm0,5.42v.151h.3v-.151Zm.452-12.646v.151h.3v-.151Zm.552.251v.151h.4v-.3A1,1,0,0,1,60.124,34.889Zm.8-.4v.3h.151v-.3Zm2.258,55.8v.151h.3v-.151Zm0,.4v.3h.151v-.3Zm8.481,4.165v.151h.3v-.151Zm.4-11.693v.3h.151v-.3Zm.151,15.206v.3h.151v-.3Zm1.1-3.663v.151h.3v-.151Zm1.255.3v.151h.3V95.01Zm1.957.3v.3h.151v-.3ZM85.267,78.75l-.151.3h.4C85.568,78.8,85.467,78.75,85.267,78.75Zm1.957,6.524v.3h.151v-.3Z" transform="translate(1.1 -24.2)"/>
        <path id="path-25" data-name="path" class="cls-2" d="M121.393,76c2.509,0,3.764.753,3.764,2.208a.266.266,0,0,1,.3.3.133.133,0,0,1-.151.151l.151.3c-.151.552-.3.853-.4.853l.151.3a9,9,0,0,1-.7,1.405l-.3-.151h-.3l.151.7c-.9.9-1.405,1.506-1.405,1.807-1,.5-1.506.9-1.506,1.1l-.3-.151h-.151c0,.351-.552.7-1.656.953,0,.05-.151.2-.4.4l-.3-.151a2.768,2.768,0,0,0-1.255.552.266.266,0,0,1-.3-.3c-1.756.4-2.66,1.2-2.66,2.359a2.542,2.542,0,0,1-.4.953l.151.3c-.05.652-.151.953-.3.953l.3.7a.266.266,0,0,0-.3.3c.1,0,.3.3.552.953v.151l-.151.3c.3,0,.4.1.4.3v.4l1.656,1.1a.133.133,0,0,1,.151-.151c0,.151.3.3.953.552a.266.266,0,0,1,.3-.3l.151.3a7.513,7.513,0,0,1,.853-.151c.05,0,.351.05.853.151q2.409,0,5.42-3.764A9.171,9.171,0,0,0,126.21,89.2a7.646,7.646,0,0,0,1.255-2.66l.3-.151h.4a1.084,1.084,0,0,0,.3.7c-.3,0-.4.452-.4,1.405h-.1l-.3-.151V88.9c-.6,1.1-.953,1.656-1.1,1.656l.151.3a4.485,4.485,0,0,0-1.1,1.506.471.471,0,0,0-.4.3l.151.3c-.452.351-.7.6-.7.853a2.5,2.5,0,0,0-.853.954l-3.463,2.208a1,1,0,0,0-.4-.151.266.266,0,0,1-.3.3h-.3a.133.133,0,0,1-.151-.151,4.192,4.192,0,0,0-.953.4h-.151a.133.133,0,0,1-.151-.151,1.6,1.6,0,0,1-.853.3h-.3a.133.133,0,0,1-.151-.151.133.133,0,0,0-.151.151c-.9-.1-1.405-.3-1.405-.552l-.7.151h-.4l-2.359-1.807V95.07l.151-.3c-.351,0-.753-.351-1.1-1.1H110.5l.151-.3c-.452,0-.7-1.1-.853-3.362h.151a.133.133,0,0,0-.151-.151c.2-1.405.351-2.108.552-2.108l-.151-.3a19.053,19.053,0,0,1,3.212-6.273,3.736,3.736,0,0,1,1.506-1.405,5.98,5.98,0,0,1,2.76-2.359.133.133,0,0,0,.151.151c0-.3.953-.8,2.911-1.506V76.2Zm-9.585,9.485v.151h.3v-.151Zm0,2.509v.151h.3v-.151Zm.953,4.717v.151h.3v-.151Zm2.108-10.438v.151h.3v-.151Zm0,1.957v.3h.151v-.3Zm.3-.4v.3h.151v-.3Zm.251,1.656v.151a15.394,15.394,0,0,0,6.273-3.613c0-.452.351-.853,1.1-1.255l-.151-.3a3.731,3.731,0,0,0,.7-1.255l-.151-.3.151-.3c-.05-.652-.3-.953-.7-.953-1.606.6-2.61,1.3-2.911,2.108a6.577,6.577,0,0,0-2.359,2.76,8.622,8.622,0,0,0-1.656,2.66Q115.421,85.259,115.421,85.485Zm2.108-5.269v.3h.151v-.3Zm0,4.868v.3a.266.266,0,0,0,.3-.3Zm.1-5.721v.3h.151v-.3Zm1.154-.3v.151h.3v-.151Zm.251-.4v.3h.151v-.3Zm1.656,5.269v.151h.3v-.151Zm.7-.552v.151h.151a1,1,0,0,1,.4-.151v-.151h-.151A.8.8,0,0,1,121.393,83.377Zm.151.452v.3h.3C121.844,83.879,121.744,83.829,121.543,83.829Zm2.81-2.961v.3h.151v-.3Zm.1-3.312v.3h.151v-.3Zm2.911,10.99v.3h.151v-.3Z" transform="translate(-54.146 -50.005)"/>
        <path id="path-26" data-name="path" class="cls-2" d="M148.713,72.2c0,.1.2.251.552.4a2.149,2.149,0,0,1,1.1-.3h.3a.928.928,0,0,1,.552.953.133.133,0,0,1-.151.151,1,1,0,0,1,.151.4c-.251,1-.452,1.506-.552,1.506a.133.133,0,0,0,.151.151l-.4,3.362a1.329,1.329,0,0,1,.151.7h-.151a3.105,3.105,0,0,1,.3.953h-.151a1,1,0,0,1,.151.4l-.151.3.3.552c0,.452-.1.7-.3.7l.151.3a.133.133,0,0,1-.151.151,4.509,4.509,0,0,1,.3,1.405l-.151.3.151.853V86l-.151.3a.266.266,0,0,1,.3.3v1.656a14.075,14.075,0,0,1,.4,2.359,1,1,0,0,0-.151.4l.3.151c.2,0,.4-.3.7-.853a17.6,17.6,0,0,0,3.914-5.269A14.949,14.949,0,0,0,158,82.538a1.594,1.594,0,0,1,.953-.552v-.351H158.6v-.3a.266.266,0,0,1,.3-.3l.3.151.151-.3-.151-.7.3-.151.3.151c0-.452.1-.7.3-.7l-.151-.3a5.356,5.356,0,0,0,1.255-1.1h.151v-.3l-.251-.151c.3,0,.652-.6,1.1-1.807h.4l-.151-.7h.151l.3.151v-.151a1,1,0,0,1-.151-.4,2.075,2.075,0,0,1,1.957-1.405c0,.151.151.3.4.4-.151,1.656-.552,2.509-1.1,2.509l.151.3v.1c-.3.552-.6.9-.953.953l.151.3c-.552.3-1.2,1.455-1.957,3.362A9.839,9.839,0,0,0,159.3,84.7c-.2.452-.4.7-.7.7a1,1,0,0,1,.151.4,8.046,8.046,0,0,1-.953,1.656l.151.3a32.682,32.682,0,0,0-2.509,3.212h-.151l.151.3a5.432,5.432,0,0,0-.953,1.255l-3.212,2.911a4.675,4.675,0,0,1-1.255.3h-.552c-1.756-.552-2.66-1.1-2.66-1.656l-.853-3.613a.133.133,0,0,1,.151-.151,46.1,46.1,0,0,1-.552-5.018v-.552a1.012,1.012,0,0,0-.151-.552,1.012,1.012,0,0,0,.151-.552l-.151-.3a.133.133,0,0,1,.151-.151l-.151-.953V80.43a.133.133,0,0,1,.151-.151l-.151-.3a.133.133,0,0,1,.151-.151,1.929,1.929,0,0,1-.3-.853c.1-1.1.151-1.957.151-2.509l-.151-.7a4.18,4.18,0,0,0,.151-1.1v-.151l-.151-.7a.133.133,0,0,0,.151-.151.266.266,0,0,1-.3-.3c0-.4.3-.753.953-1.1a1.6,1.6,0,0,0,.853.3h.3A7.166,7.166,0,0,0,148.713,72.2Zm1,1.2a.266.266,0,0,0,.3.3v-.3Z" transform="translate(-71.731 -48.112)"/>
        <path id="path-27" data-name="path" class="cls-2" d="M188.193,76c2.509,0,3.764.753,3.764,2.208a.266.266,0,0,1,.3.3.133.133,0,0,1-.151.151l.151.3c-.151.552-.3.853-.4.853l.151.3a9.007,9.007,0,0,1-.7,1.405l-.3-.151h-.3l.151.7c-.9.9-1.405,1.506-1.405,1.807-1,.5-1.506.9-1.506,1.1l-.3-.151h-.151c0,.351-.552.7-1.656.953,0,.05-.151.2-.4.4l-.3-.151a2.768,2.768,0,0,0-1.255.552.266.266,0,0,1-.3-.3c-1.756.4-2.66,1.2-2.66,2.359a2.542,2.542,0,0,1-.4.953l.151.3c-.05.652-.151.953-.3.953l.3.7a.266.266,0,0,0-.3.3c.1,0,.3.3.552.953v.151l-.151.3c.3,0,.4.1.4.3v.4l1.656,1.1a.133.133,0,0,1,.151-.151c0,.151.3.3.953.552a.266.266,0,0,1,.3-.3l.151.3a2.492,2.492,0,0,1,1.706,0q2.409,0,5.42-3.764A9.171,9.171,0,0,0,193.01,89.2a7.647,7.647,0,0,0,1.255-2.66l.3-.151h.4a1.084,1.084,0,0,0,.3.7c-.3,0-.4.452-.4,1.405h-.151l-.3-.151V88.9c-.6,1.1-.953,1.656-1.1,1.656l.151.3a4.486,4.486,0,0,0-1.1,1.506.471.471,0,0,0-.4.3l.151.3c-.452.351-.7.6-.7.853a2.5,2.5,0,0,0-.853.954l-3.463,2.208a1,1,0,0,0-.4-.151.266.266,0,0,1-.3.3h-.3a.133.133,0,0,1-.151-.151,4.192,4.192,0,0,0-.953.4h-.151a.133.133,0,0,1-.151-.151,1.6,1.6,0,0,1-.853.3h-.3a.133.133,0,0,1-.151-.151.133.133,0,0,0-.151.151c-.9-.1-1.405-.3-1.405-.552l-.7.151h-.3l-2.359-1.807V95.07l.151-.3c-.351,0-.753-.351-1.1-1.1h-.2l.151-.3c-.452,0-.7-1.1-.853-3.362h.151a.133.133,0,0,0-.151-.151c.2-1.405.351-2.108.552-2.108l-.151-.3a19.054,19.054,0,0,1,3.212-6.273,3.736,3.736,0,0,1,1.506-1.405,5.98,5.98,0,0,1,2.76-2.359.133.133,0,0,0,.151.151c0-.3.953-.8,2.911-1.506V76.2Zm-9.635,9.485v.151h.3v-.151Zm0,2.509v.151h.3v-.151Zm1,4.717v.151h.3v-.151Zm2.058-10.438v.151h.3v-.151Zm0,1.957v.3h.151v-.3Zm.3-.4v.3h.151v-.3Zm.251,1.656v.151a15.394,15.394,0,0,0,6.273-3.613c0-.452.351-.853,1.1-1.255l-.151-.3a3.731,3.731,0,0,0,.7-1.255l-.151-.3.151-.3c-.05-.652-.3-.953-.7-.953-1.606.6-2.61,1.3-2.911,2.108a6.577,6.577,0,0,0-2.359,2.76,8.622,8.622,0,0,0-1.656,2.66Q182.17,85.259,182.17,85.485Zm2.108-5.269v.3h.151v-.3Zm0,4.868v.3a.266.266,0,0,0,.3-.3Zm.151-5.721v.3h.151v-.3Zm1.1-.3v.151h.3v-.151Zm.3-.4v.3h.151v-.3Zm1.656,5.269v.151h.3v-.151Zm.7-.552v.151h.151a1,1,0,0,1,.4-.151v-.151h-.151A1,1,0,0,1,188.193,83.377Zm.1.452v.3h.3C188.594,83.879,188.494,83.829,188.293,83.829Zm2.81-2.961v.3h.151v-.3Zm.151-3.312v.3h.151v-.3Zm2.911,10.99v.3h.151v-.3Z" transform="translate(-87.423 -50.005)"/>
        <path id="path-28" data-name="path" class="cls-2" d="M196.655,88.648c0-.1.3-.452.953-.953a4.2,4.2,0,0,1,1.506-1.506c0-.351.4-.8,1.255-1.405l2.208-3.212a18.7,18.7,0,0,0,2.509-5.018,2.551,2.551,0,0,0,.953-2.108,1,1,0,0,1,.4-.151l-.151-.3a4.675,4.675,0,0,0,.3-1.255v-.151a26.186,26.186,0,0,1-4.717-2.66c-.2,0-.351-.251-.552-.7a.133.133,0,0,0,.151-.151c-.1,0-.4-.351-.853-1.1a.133.133,0,0,1,.151-.151,4.684,4.684,0,0,1-.4-1.405V65.011c.151-1.506.6-2.208,1.405-2.208a.133.133,0,0,0,.151.151A2.073,2.073,0,0,1,203.731,62a6.757,6.757,0,0,1,4.717,2.108,9.035,9.035,0,0,1,.953,3.764,19.491,19.491,0,0,1-.7,3.212v.7h.7a1.329,1.329,0,0,0,.7-.151,3.707,3.707,0,0,0,.953.151q2.183,0,7.227-2.108a.266.266,0,0,0,.3.3.266.266,0,0,1,.3-.3c1.556,1.2,2.359,1.857,2.359,2.108a84.376,84.376,0,0,0-5.169,10.438.133.133,0,0,0,.151.151,14.177,14.177,0,0,1-.552,2.359l.151.3v.151l-.151.3a.266.266,0,0,1,.3.3.266.266,0,0,0-.3.3c0,1.154.8,2.359,2.359,3.613l1.405.151c1.255,0,2.66-1.1,4.165-3.362l2.911-5.42h.151c.251,0,.452.351.552,1.1-.2,0-.6.9-1.255,2.76a9.6,9.6,0,0,0-1.405,2.208q-2.785,3.613-5.57,3.613h-.552c-2.559,0-4.316-.853-5.269-2.509-.251,0-.5-1.1-.853-3.362,0-1.957,1.506-6.223,4.567-12.8v-.151c-1.2,1-3.312,1.506-6.273,1.506-.552-.2-.853-.3-.853-.4l-.3.151H209.2l-.4-.3h-.151c-.151,0-.4.853-.853,2.509-.351.9-.6,1.355-.853,1.405l.151.3-.953,1.807.151.3-3.764,5.269a16.529,16.529,0,0,1-2.509,2.509c0,.3-.3.6-.853.953-.5.652-.9.953-1.255.953l.151.3v.151a11.009,11.009,0,0,0-1.907,1.154l-.853-.452C195.4,89.551,195.852,89.1,196.655,88.648Zm7.377-22.232-.3.4v.552a6.855,6.855,0,0,0,3.463,3.764,1.012,1.012,0,0,1,.151-.552C207.394,68.624,206.24,67.219,204.032,66.416Zm3.212-.7h.151a.266.266,0,0,0,.3-.3h-.151Q207.244,65.488,207.244,65.714Zm6.122,17.665v.3h.3v-.3Zm1.255-3.764v.151h.3v-.151Zm.251,4.165h.3v-.3Q214.872,83.554,214.872,83.78Zm.452-5.821v.3h.151v-.3Zm.4.251v.3a.266.266,0,0,0,.3-.3Zm.4,1.807v.151h.3v-.151Z" transform="translate(-96.739 -43.03)"/>
        <path id="path-29" data-name="path" class="cls-2" d="M261.174,65.138l.7.151a.133.133,0,0,1,.151-.151c0,.2.151.3.4.3a9.463,9.463,0,0,0,1.505-.151c.652.05.953.151.953.3l.3-.151c.151,0,.3.151.4.4-1.054,1.2-2.76,4.366-5.169,9.485a.133.133,0,0,1,.151.151c-.151,0-.652,1.355-1.506,4.015-.1,0-.251.552-.4,1.656v.7l.3.4V82.4a.133.133,0,0,1-.151.151c.9,1.957,1.706,2.911,2.359,2.911,0-.151.4-.4,1.255-.7a7.446,7.446,0,0,0,2.66-3.362,10.293,10.293,0,0,0,1.255-2.911c.3-1,.6-1.506.953-1.506v-1.1a.266.266,0,0,1,.3-.3h.3a2.755,2.755,0,0,0,.3.954h-.151a.133.133,0,0,0,.151.151,44.982,44.982,0,0,1-2.66,6.122,10.082,10.082,0,0,1-1.506,1.957,7.831,7.831,0,0,1-4.717,2.208l-.3-.151-.3.151c-1.857-.5-2.76-.9-2.76-1.255a5.1,5.1,0,0,1-1.1-2.108v-.151A.133.133,0,0,1,255,83.3l-.3-.552a.266.266,0,0,0,.3-.3c-.3,0-.4-.151-.4-.4.151-1.556.452-2.359.853-2.359l-.151-.3v-.4a4.318,4.318,0,0,0,.853-1.807l.4-.3-.151-.3c1-3.162,1.656-4.717,1.957-4.717l-.151-.3v-.151c0-.2.151-.3.4-.3l-.151-.3,1.255-2.911C260.221,66.092,260.722,65.138,261.174,65.138Zm-4.617,18.367v.151h.3v-.151Zm1.255-10.739v.3a.266.266,0,0,0,.3-.3Zm.151-.251v.151h.3v-.151Zm0,2.509v.151h.3v-.151Zm.4,10.84v.151h.3v-.151ZM262.83,54.7h.4c1,0,1.656.853,1.957,2.509v.853a3.316,3.316,0,0,1-3.061,1.506,2.431,2.431,0,0,1-1.1-1.957A3.576,3.576,0,0,1,262.83,54.7Zm.151,11.392v.3a.266.266,0,0,0,.3-.3Z" transform="translate(-126.279 -39.394)"/>
        <path id="path-30" data-name="path" class="cls-2" d="M288.943,76c2.509,0,3.764.753,3.764,2.208a.266.266,0,0,1,.3.3.133.133,0,0,1-.151.151l.151.3c-.151.552-.3.853-.4.853l.151.3a9.009,9.009,0,0,1-.7,1.405l-.3-.151h-.3l.151.7c-.9.9-1.405,1.506-1.405,1.807-1,.5-1.506.9-1.506,1.1l-.3-.151h-.151c0,.351-.552.7-1.656.953,0,.05-.151.2-.4.4l-.3-.151a2.768,2.768,0,0,0-1.255.552.266.266,0,0,1-.3-.3c-1.756.4-2.66,1.2-2.66,2.359a2.541,2.541,0,0,1-.4.953l.151.3c-.05.652-.151.953-.3.953l.3.7a.266.266,0,0,0-.3.3c.1,0,.3.3.552.953v.151l-.151.3c.3,0,.4.1.4.3v.4l1.656,1.1a.133.133,0,0,1,.151-.151c0,.151.3.3.953.552a.266.266,0,0,1,.3-.3l.151.3a2.492,2.492,0,0,1,1.706,0q2.409,0,5.42-3.764A9.171,9.171,0,0,0,293.76,89.2a7.648,7.648,0,0,0,1.255-2.66l.3-.151h.4a1.084,1.084,0,0,0,.3.7c-.3,0-.4.452-.4,1.405h-.151l-.3-.151V88.9c-.6,1.1-.953,1.656-1.1,1.656l.151.3a4.485,4.485,0,0,0-1.1,1.506.471.471,0,0,0-.4.3l.151.3c-.452.351-.7.6-.7.853a2.5,2.5,0,0,0-.853.954l-3.463,2.208a1,1,0,0,0-.4-.151.266.266,0,0,1-.3.3h-.3a.133.133,0,0,1-.151-.151,4.193,4.193,0,0,0-.954.4h-.151a.133.133,0,0,1-.151-.151,1.6,1.6,0,0,1-.853.3h-.3a.133.133,0,0,1-.151-.151.133.133,0,0,0-.151.151c-.9-.1-1.405-.3-1.405-.552l-.7.151h-.4l-2.359-1.807V95.07l.151-.3c-.351,0-.753-.351-1.1-1.1H278l.151-.3c-.452,0-.7-1.1-.853-3.362h.151a.133.133,0,0,0-.151-.151c.2-1.405.351-2.108.552-2.108l-.151-.3a19.054,19.054,0,0,1,3.212-6.273,3.736,3.736,0,0,1,1.506-1.405,5.98,5.98,0,0,1,2.76-2.359.133.133,0,0,0,.151.151c0-.3.953-.8,2.911-1.506V76.2Zm-9.585,9.485v.151h.3v-.151Zm0,2.509v.151h.3v-.151Zm.953,4.717v.151h.3v-.151Zm2.108-10.438v.151h.3v-.151Zm0,1.957v.3h.151v-.3Zm.251-.4v.3h.151v-.3Zm.3,1.656v.151a15.394,15.394,0,0,0,6.273-3.613c0-.452.351-.853,1.1-1.255l-.151-.3a3.732,3.732,0,0,0,.7-1.255l-.151-.3.151-.3c-.05-.652-.3-.953-.7-.953-1.606.6-2.61,1.3-2.911,2.108a6.577,6.577,0,0,0-2.359,2.76,8.623,8.623,0,0,0-1.656,2.66Q282.971,85.259,282.971,85.485Zm2.058-5.269v.3h.151v-.3Zm0,4.868v.3a.266.266,0,0,0,.3-.3Zm.151-5.721v.3h.151v-.3Zm1.1-.3v.151h.3v-.151Zm.3-.4v.3h.151v-.3Zm1.656,5.269v.151h.3v-.151Zm.7-.552v.151h.151a1,1,0,0,1,.4-.151v-.151h-.151A.8.8,0,0,1,288.943,83.377Zm.151.452v.3h.3C289.344,83.879,289.294,83.829,289.093,83.829Zm2.76-2.961v.3H292v-.3ZM292,77.556v.3h.151v-.3Zm2.911,10.99v.3h.151v-.3Z" transform="translate(-137.588 -50.005)"/>
      </g>
      <g id="group-2" data-name="group" transform="translate(92.188 65.44)">
        <path id="path-31" data-name="path" class="cls-2" d="M184.256,133.153a1.324,1.324,0,0,0,.05.351c.05.151.1.351.151.552s.151.4.2.652c.05.2.151.4.2.6a2.332,2.332,0,0,0,.151.452.388.388,0,0,1,.05.151h.05l1.455-2.258a.934.934,0,0,0,.2-.552q0-.226-.6-.3v-.05l.1-.4c.151,0,.3.05.4.05a.854.854,0,0,1,.351.05h1.2l.05.05-.1.351a1.862,1.862,0,0,1-.452.1,1.05,1.05,0,0,0-.3.2,2.785,2.785,0,0,0-.3.4c-.1.151-.251.351-.4.6l-1.2,1.807-.151.3a.725.725,0,0,0-.1.351c-.05.151-.05.3-.1.5s-.05.452-.1.753a.99.99,0,0,0,0,.552c.05.1.151.151.351.151h.452v.05l-.151.452h-1.606c-.151,0-.251.05-.351.05s-.251.05-.351.05l.1-.452a4.743,4.743,0,0,0,.452-.151.5.5,0,0,0,.251-.2l.151-.3c.05-.151.05-.3.1-.5l.05-.452v-.552a1.965,1.965,0,0,0-.151-.652l-.652-1.907a3.81,3.81,0,0,1-.2-.552.809.809,0,0,0-.2-.351.5.5,0,0,0-.251-.2,1,1,0,0,0-.452-.1v-.05l.1-.351h1.506a1.389,1.389,0,0,0,.452-.05c.151,0,.351-.05.5-.05v.05l-.1.351c-.151,0-.3.05-.4.05a.383.383,0,0,0-.251.1c-.05.05-.1.05-.1.1A.379.379,0,0,0,184.256,133.153Z" transform="translate(-182.6 -131.347)"/>
        <path id="path-32" data-name="path" class="cls-2" d="M196.461,140.266h.1c.05,0,.05-.05.151-.1a.881.881,0,0,0,.251-.2,3.276,3.276,0,0,1,.4-.351h.1l.151.251a9.926,9.926,0,0,1-.953.853,1.136,1.136,0,0,1-.5.251c-.251,0-.351-.1-.351-.3v-.151c0-.1.05-.151.05-.3s.05-.2.05-.351c.05-.151.05-.251.1-.4.05-.3.151-.6.251-1h-.05a12.457,12.457,0,0,1-.954,1.556,5.693,5.693,0,0,1-.953.953.655.655,0,0,1-.6-.351,2.075,2.075,0,0,1-.2-1.054,3.647,3.647,0,0,1,.2-1.255,3.794,3.794,0,0,1,.552-1.1,5.882,5.882,0,0,1,.753-.8,1.473,1.473,0,0,1,.853-.3l1.054.151.1-.251h.05l.3.151.1.1c-.1.4-.251.8-.351,1.255-.1.351-.2.8-.3,1.255a13.224,13.224,0,0,0-.351,1.506Zm-2.108-.05c.1,0,.2-.1.4-.251a2.825,2.825,0,0,0,.5-.7,8.824,8.824,0,0,0,.6-1l.6-1.2a1.855,1.855,0,0,0-.552-.251,2.208,2.208,0,0,0-.5-.1.719.719,0,0,0-.5.2,1.572,1.572,0,0,0-.4.552c-.1.2-.2.5-.3.753a2.779,2.779,0,0,0-.1.9,3.038,3.038,0,0,0,.1.753C194.2,140.115,194.253,140.215,194.353,140.215Z" transform="translate(-188.03 -133.19)"/>
        <path id="path-33" data-name="path" class="cls-2" d="M203.352,139.211c.05-.2.05-.452.1-.652s.05-.4.1-.6a1.882,1.882,0,0,0,.05-.5,1.775,1.775,0,0,1,.05-.3.376.376,0,0,0-.452-.452h-.4l.05-.4h.552a1.882,1.882,0,0,0,.552-.05,2.442,2.442,0,0,0,.6-.05l.1.1c-.05.2-.151.452-.2.7a5.151,5.151,0,0,1-.2.7l-.151.753h.05c.151-.3.3-.652.452-.9a4.888,4.888,0,0,1,.5-.753,2.365,2.365,0,0,1,.5-.5.988.988,0,0,1,.4-.2.842.842,0,0,1,.3.7v.151a.379.379,0,0,1-.05.2l-.1.05h-.3a.809.809,0,0,0-.452.151,1.578,1.578,0,0,0-.5.5,4.888,4.888,0,0,0-.5.753,9.771,9.771,0,0,0-.452,1l-.151,1.154a.175.175,0,0,1-.1.05c-.05.05-.1.05-.2.1a.3.3,0,0,1-.2.05.506.506,0,0,0-.151.05l-.05-.1C203.151,140.315,203.252,139.763,203.352,139.211Z" transform="translate(-192.663 -133.24)"/>
        <path id="path-34" data-name="path" class="cls-2" d="M213.262,140.315h.1c.05,0,.05-.05.151-.1.05-.05.151-.1.251-.2a3.274,3.274,0,0,1,.4-.351h.1l.151.251c-.753.753-1.2,1.1-1.455,1.1a.266.266,0,0,1-.3-.3,4.173,4.173,0,0,1,.1-.652,8.372,8.372,0,0,1,.251-.9,6.685,6.685,0,0,0,.251-.953,5.756,5.756,0,0,0,.1-.7.538.538,0,0,0-.1-.3.383.383,0,0,0-.251-.1.6.6,0,0,0-.4.2,3.127,3.127,0,0,0-.452.6c-.151.251-.351.552-.552.9s-.351.753-.552,1.154l-.1.853a.175.175,0,0,1-.1.05c-.05.05-.1.05-.2.1a.3.3,0,0,1-.2.05.506.506,0,0,0-.151.05l-.05-.1q.151-.979.3-1.807c.05-.251.05-.452.1-.7.05-.2.05-.452.1-.6a1.883,1.883,0,0,0,.05-.5,1.021,1.021,0,0,1,.05-.251.424.424,0,0,0-.1-.3.585.585,0,0,0-.351-.1H210l.05-.4h.552a1.882,1.882,0,0,0,.552-.05,2.443,2.443,0,0,0,.6-.05l.1.1c-.1.251-.151.5-.251.8-.05.251-.151.5-.2.8s-.151.6-.2.9l.05.05a8.147,8.147,0,0,1,1.1-1.756,3.889,3.889,0,0,1,1.054-1,.693.693,0,0,1,.552.3,1.2,1.2,0,0,1,.251.7,3.452,3.452,0,0,1-.1.652,7.737,7.737,0,0,1-.251.853l-.3.9a2,2,0,0,0-.3.8Z" transform="translate(-196.25 -133.24)"/>
        <path id="path-35" data-name="path" class="cls-2" d="M219.752,144c.05-.05.151-.1.251-.2a.725.725,0,0,1,.351-.1.379.379,0,0,1,.351.2,1.07,1.07,0,0,1,.151.6,1.336,1.336,0,0,1-.151.6,1.8,1.8,0,0,1-.351.5l-.452.452a3.047,3.047,0,0,1-.5.351l-.2-.151v-.1a1.73,1.73,0,0,0,.6-.6,1.337,1.337,0,0,0,.251-.652.945.945,0,0,0-.1-.4.514.514,0,0,0-.251-.3Z" transform="translate(-200.833 -137.026)"/>
        <path id="path-36" data-name="path" class="cls-2" d="M231.51,139.325c-.2,0-.4-.05-.552-.05s-.3-.05-.5-.05H229.6c-.151,0-.251.05-.4.05s-.251.05-.4.05l.1-.452a.859.859,0,0,0,.9-.853l.552-4.416a1.327,1.327,0,0,0,0-.452c-.05-.1-.151-.1-.251-.1h-.3V133l.1-.4h2.459a3.037,3.037,0,0,1,1.2.2,2.974,2.974,0,0,1,.953.552,3.3,3.3,0,0,1,.6.853,2.553,2.553,0,0,1,.2,1.1,4.089,4.089,0,0,1-.3,1.556,4.361,4.361,0,0,1-.8,1.3,3.621,3.621,0,0,1-2.71,1.154ZM231.66,133c-.151,0-.251,0-.3.05a.261.261,0,0,0-.1.2c-.251,1.455-.4,2.559-.552,3.362a10.033,10.033,0,0,0-.2,1.506.744.744,0,0,0,.05.351.881.881,0,0,0,.2.251.423.423,0,0,0,.351.1c.151,0,.351.05.552.05a2.555,2.555,0,0,0,1.1-.251,2.3,2.3,0,0,0,.853-.7,3.5,3.5,0,0,0,.552-1.054,3.846,3.846,0,0,0,.2-1.355,2.5,2.5,0,0,0-.7-1.857A2.826,2.826,0,0,0,231.66,133Z" transform="translate(-205.615 -131.496)"/>
        <path id="path-37" data-name="path" class="cls-2" d="M246.062,136.854a1.336,1.336,0,0,1-.151.6,1.424,1.424,0,0,1-.452.5,4.957,4.957,0,0,1-.753.452,9.276,9.276,0,0,1-1.154.452,2.13,2.13,0,0,0,.151,1.054c.151.251.3.4.552.4a1.043,1.043,0,0,0,.6-.251,1.63,1.63,0,0,0,.5-.652h.151l.151.251a3.287,3.287,0,0,1-.753.9,1.377,1.377,0,0,1-.9.351,1.14,1.14,0,0,1-.9-.452,2.207,2.207,0,0,1-.3-1.255,3.374,3.374,0,0,1,.2-1.2,3.506,3.506,0,0,1,.552-1.054,3.566,3.566,0,0,1,.753-.753,1.473,1.473,0,0,1,.853-.3.8.8,0,0,1,.6.2A1.047,1.047,0,0,1,246.062,136.854Zm-1.154-.2a.667.667,0,0,0-.4.151,1.353,1.353,0,0,0-.351.4,5.476,5.476,0,0,0-.3.552,2.877,2.877,0,0,0-.2.7,4.576,4.576,0,0,0,1.3-.6.953.953,0,0,0,.4-.753C245.309,136.8,245.209,136.653,244.908,136.653Z" transform="translate(-212.589 -133.14)"/>
        <path id="path-38" data-name="path" class="cls-2" d="M252.407,136.8a.719.719,0,0,0-.5.2,1.965,1.965,0,0,0-.4.5,5.84,5.84,0,0,0-.3.753,4.944,4.944,0,0,0-.1.853,2.076,2.076,0,0,0,.2,1.054c.151.251.3.4.5.4a1.337,1.337,0,0,0,.652-.251,1.63,1.63,0,0,0,.5-.652h.151l.151.251a3.286,3.286,0,0,1-.753.9,1.377,1.377,0,0,1-.9.351,1.14,1.14,0,0,1-.9-.452,2.207,2.207,0,0,1-.3-1.255,3.374,3.374,0,0,1,.2-1.2,3.505,3.505,0,0,1,.552-1.054,2.688,2.688,0,0,1,.753-.753,1.4,1.4,0,0,1,.853-.251,1.548,1.548,0,0,1,.5.05,3.461,3.461,0,0,1,.4.151l.05.1-.351.7-.151.05A1.033,1.033,0,0,0,252.407,136.8Z" transform="translate(-216.375 -133.289)"/>
        <path id="path-39" data-name="path" class="cls-2" d="M258.754,141.118a.986.986,0,0,1-.853-.452,2.207,2.207,0,0,1-.3-1.255,3.2,3.2,0,0,1,.2-1.2,5.139,5.139,0,0,1,.5-1.054,2.012,2.012,0,0,1,.753-.7,1.549,1.549,0,0,1,.9-.251,1.072,1.072,0,0,1,.853.4,1.864,1.864,0,0,1,.3,1.154,3.742,3.742,0,0,1-.2,1.3,4.392,4.392,0,0,1-.5,1.1,2.688,2.688,0,0,1-.753.753A1.969,1.969,0,0,1,258.754,141.118Zm.4-.552a.968.968,0,0,0,.5-.151,1.093,1.093,0,0,0,.351-.452,2.9,2.9,0,0,0,.251-.7,4.5,4.5,0,0,0,.1-.9,2.287,2.287,0,0,0-.2-1.1.708.708,0,0,0-.6-.4.809.809,0,0,0-.452.151,1.093,1.093,0,0,0-.351.452,2.522,2.522,0,0,0-.251.652,4.421,4.421,0,0,0-.1.853,2.652,2.652,0,0,0,.05.652,3.118,3.118,0,0,0,.151.5.9.9,0,0,0,.251.351A.424.424,0,0,0,259.156,140.566Z" transform="translate(-219.962 -133.289)"/>
        <path id="path-40" data-name="path" class="cls-2" d="M266.552,139.211c.05-.2.05-.452.1-.652s.05-.4.1-.6a1.882,1.882,0,0,0,.05-.5,1.775,1.775,0,0,1,.05-.3.376.376,0,0,0-.452-.452H266l.05-.4h.552a1.882,1.882,0,0,0,.552-.05,2.443,2.443,0,0,0,.6-.05l.1.1c-.05.2-.151.452-.2.7a5.155,5.155,0,0,1-.2.7l-.151.753h.05c.151-.3.3-.652.452-.9a4.89,4.89,0,0,1,.5-.753,2.366,2.366,0,0,1,.5-.5.988.988,0,0,1,.4-.2.842.842,0,0,1,.3.7v.151a.379.379,0,0,1-.05.2l-.1.05h-.3a.809.809,0,0,0-.452.151,1.578,1.578,0,0,0-.5.5,4.888,4.888,0,0,0-.5.753,9.774,9.774,0,0,0-.452,1L267,140.767a.175.175,0,0,1-.1.05c-.05.05-.1.05-.2.1a.3.3,0,0,1-.2.05.505.505,0,0,0-.151.05l-.05-.1C266.4,140.315,266.5,139.763,266.552,139.211Z" transform="translate(-224.147 -133.24)"/>
        <path id="path-41" data-name="path" class="cls-2" d="M278.755,134.206a1.484,1.484,0,0,0,.1.5.78.78,0,0,0,.3.4.97.97,0,0,0,.452.251,1.8,1.8,0,0,0,.552.1l2.71-.2a.848.848,0,0,0,.5-.151,2.757,2.757,0,0,0,.452-.351l.2.1-.3.6a1.088,1.088,0,0,1-.3.351,1,1,0,0,1-.452.1h-1l-.05.1a.809.809,0,0,1,.2.351,1.389,1.389,0,0,1,.05.452,2.037,2.037,0,0,1-.2.953,3.061,3.061,0,0,1-.6.8,3.936,3.936,0,0,1-.9.552,2.621,2.621,0,0,1-1.054.2,3.875,3.875,0,0,1-.753-.1,3.343,3.343,0,0,1-.6-.3,1.274,1.274,0,0,1-.4-.5,1.336,1.336,0,0,1-.151-.6,1.675,1.675,0,0,1,.452-1.154,2.48,2.48,0,0,1,1.2-.753,2,2,0,0,1-.8-.6,1.4,1.4,0,0,1-.3-.9,1.416,1.416,0,0,1,.2-.753,1.475,1.475,0,0,1,.5-.6,2.66,2.66,0,0,1,.753-.4,2.842,2.842,0,0,1,.9-.151,4.592,4.592,0,0,1,.8.05,3.76,3.76,0,0,1,.8.2v.05a.725.725,0,0,0-.1.351c0,.151-.1.251-.1.4-.05.151-.05.251-.1.4s-.05.251-.1.4l-.5.05c0-.05.05-.151.05-.2s.05-.1.05-.2v-.151a.719.719,0,0,0-.251-.552.981.981,0,0,0-.7-.2,1.647,1.647,0,0,0-1.054.3C278.855,133.5,278.755,133.8,278.755,134.206Zm2.81,2.76a1.21,1.21,0,0,0-.2-.753.611.611,0,0,0-.5-.3h-1.2a3.825,3.825,0,0,0-.652.351c-.151.1-.3.251-.452.351a1.092,1.092,0,0,0-.251.4,1.389,1.389,0,0,0-.05.452,1.485,1.485,0,0,0,.1.5.78.78,0,0,0,.3.4.971.971,0,0,0,.452.251,1.8,1.8,0,0,0,.552.1,2.014,2.014,0,0,0,.753-.151,1.735,1.735,0,0,0,.6-.351,2.227,2.227,0,0,0,.4-.552A1.6,1.6,0,0,0,281.565,136.966Z" transform="translate(-229.875 -131.446)"/>
        <path id="path-42" data-name="path" class="cls-2" d="M295.81,139.225a2.553,2.553,0,0,1-1.1-.2,2.5,2.5,0,0,1-.853-.552,3.107,3.107,0,0,1-.552-.853,2.789,2.789,0,0,1-.2-1.154,4.161,4.161,0,0,1,.3-1.606,3.814,3.814,0,0,1,.8-1.3,4.048,4.048,0,0,1,1.2-.853,3.84,3.84,0,0,1,1.505-.3,2.443,2.443,0,0,1,.6.05,2.519,2.519,0,0,1,.6.1c.2.05.4.05.6.1l.05.05c-.05.151-.1.3-.151.5-.05.151-.1.351-.151.552s-.1.4-.151.652l-.452.05c0-.1.05-.151.05-.251,0-.05.05-.151.05-.2v-.2c0-.6-.452-.853-1.355-.853a2.333,2.333,0,0,0-1.054.251,2.014,2.014,0,0,0-.8.652,3.233,3.233,0,0,0-.552,1,3.742,3.742,0,0,0-.2,1.3,3.337,3.337,0,0,0,.151,1.054,2.017,2.017,0,0,0,.4.8,1.475,1.475,0,0,0,.6.5,2.136,2.136,0,0,0,.853.2,1.882,1.882,0,0,0,.552-.05l.452-.151a2.977,2.977,0,0,0,.4-.2l.151-1.3a.537.537,0,0,0-.05-.452.722.722,0,0,0-.452-.1h-.7v-.05l.151-.5h1.857a.376.376,0,0,0,.251-.05v.2a1.272,1.272,0,0,0-.4.9c0,.1-.05.2-.05.351,0,.1-.05.251-.05.351s-.05.251-.05.351v.552l-.05.1c-.2.1-.4.151-.6.251-.2.05-.4.1-.7.151A1.91,1.91,0,0,1,295.81,139.225Z" transform="translate(-237.647 -131.396)"/>
        <path id="path-43" data-name="path" class="cls-2" d="M307.1,137.874h.1c.05,0,.1-.05.151-.1s.151-.1.251-.2a2.183,2.183,0,0,1,.351-.3h.1l.151.251a5.762,5.762,0,0,1-.9.8,2.076,2.076,0,0,1-.552.3.383.383,0,0,1-.251-.1.376.376,0,0,1-.05-.251c.1-.6.2-1.154.251-1.656.05-.2.05-.4.1-.652.05-.2.05-.4.1-.6a1.728,1.728,0,0,0,.05-.452v-.251a.725.725,0,0,0-.1-.351.585.585,0,0,0-.351-.1h-.4l.05-.4h.552a1.882,1.882,0,0,0,.552-.05,2.444,2.444,0,0,0,.6-.05l.1.1c-.1.4-.251.8-.351,1.2-.1.351-.2.8-.3,1.255-.05.652-.151,1.1-.2,1.606Zm.5-5.52a.456.456,0,0,1-.351-.151.713.713,0,0,1-.1-.3.644.644,0,0,1,.2-.5.582.582,0,0,1,.5-.2.3.3,0,0,1,.3.151.713.713,0,0,1,.1.3.644.644,0,0,1-.2.5A.613.613,0,0,1,307.606,132.354Z" transform="translate(-244.123 -130.799)"/>
        <path id="path-44" data-name="path" class="cls-2" d="M310.006,133.863l.05-.3.8-.1.1-.853a6.062,6.062,0,0,1,.251-.9,1.8,1.8,0,0,1,.5-.7,1.909,1.909,0,0,1,.652-.452,2.08,2.08,0,0,1,.8-.151,2.059,2.059,0,0,1,.552.05c.2.05.351.05.5.1l.05.1-.3.652-.2.05a2.006,2.006,0,0,0-1.054-.351c-.552,0-.853.4-.953,1.2l-.151,1.255h2.359l.05.05-.05.4h-2.258l-.1.05-.552,4.918a2.383,2.383,0,0,1-.5,1.3,1.475,1.475,0,0,1-1.1.452,1.337,1.337,0,0,1-.6-.151.6.6,0,0,1-.351-.351c0-.05.05-.151.05-.2.05-.1.05-.151.1-.251s.05-.151.1-.251.05-.151.1-.2H309a1.009,1.009,0,0,0,.2.652.719.719,0,0,0,.552.251.7.7,0,0,0,.5-.251.831.831,0,0,0,.251-.6c.05-.351.05-.652.1-.954a4.864,4.864,0,0,0,.05-.853l.3-3.513-.05-.05-.7-.05Z" transform="translate(-245.318 -130.4)"/>
        <path id="path-45" data-name="path" class="cls-2" d="M319.059,138.118l.1.251-.452.452c-.151.151-.3.251-.452.4a.888.888,0,0,1-.4.251.713.713,0,0,1-.3.1.644.644,0,0,1-.5-.2.548.548,0,0,1-.1-.5l.552-3.563-.05-.05-.7-.05-.05-.05.05-.3.853-.151c0-.151.05-.3.05-.452s.05-.3.05-.4c0-.151.05-.251.05-.4l.953-.351.05.1-.151.452c-.05.151-.1.3-.151.5s-.1.351-.151.552h1.255l.05.05-.1.4h-1.2l-.1.05-.652,3.212c-.05.251.05.351.251.351a.667.667,0,0,0,.351-.151c.151-.1.351-.3.652-.552Z" transform="translate(-249.403 -131.745)"/>
        <path id="path-46" data-name="path" class="cls-2" d="M322.8,139.562a1.277,1.277,0,0,0,.251.8.864.864,0,0,0,.753.251.644.644,0,0,0,.5-.2.613.613,0,0,0,.2-.452.719.719,0,0,0-.2-.5l-.452-.452c-.1-.1-.251-.2-.351-.3a2.182,2.182,0,0,1-.3-.351c-.1-.1-.151-.251-.251-.351a1.181,1.181,0,0,1-.1-.4,1.012,1.012,0,0,1,.151-.552,1.562,1.562,0,0,1,.351-.452,1.041,1.041,0,0,1,.5-.3,1.273,1.273,0,0,1,.6-.1,2.543,2.543,0,0,1,.652.1.731.731,0,0,1,.452.3,3.451,3.451,0,0,0-.151.4,2.977,2.977,0,0,1-.2.4h-.151a1.5,1.5,0,0,0-.351-.552.755.755,0,0,0-.552-.2.518.518,0,0,0-.552.552.931.931,0,0,0,.1.351,1.332,1.332,0,0,0,.251.3,2.87,2.87,0,0,0,.4.351,1.528,1.528,0,0,1,.4.4c.1.151.251.3.351.452a.968.968,0,0,1,.151.5,1.336,1.336,0,0,1-.151.6,1.275,1.275,0,0,1-.4.5,2.072,2.072,0,0,1-.552.351,1.389,1.389,0,0,1-.652.151,1.911,1.911,0,0,1-.8-.151.777.777,0,0,1-.4-.4c0-.1.05-.151.1-.251s.05-.2.1-.251c.05-.1.05-.151.1-.251s.05-.151.1-.2h.1Z" transform="translate(-252.193 -133.289)"/>
      </g>
    </g>
  </g>
</svg>
