<svg xmlns="http://www.w3.org/2000/svg" viewBox="3869 270.412 321 190.003">
  <defs>
    <style>
      .cls-1, .cls-20 {
        fill: #424449;
        stroke-width: 0.25px;
      }

      .cls-1, .cls-16, .cls-17, .cls-18, .cls-21, .cls-25, .cls-29, .cls-31 {
        stroke: #050606;
      }

      .cls-15, .cls-2, .cls-26 {
        fill: #63544b;
      }

      .cls-14, .cls-19, .cls-3, .cls-9 {
        fill: #816756;
      }

      .cls-13, .cls-4 {
        fill: #fcfcc0;
      }

      .cls-5 {
        fill: #e0deaf;
      }

      .cls-23, .cls-6 {
        fill: #fbfbf8;
      }

      .cls-7 {
        fill: #050606;
      }

      .cls-12, .cls-17, .cls-25, .cls-8 {
        fill: none;
      }

      .cls-8 {
        stroke: #010101;
      }

      .cls-17, .cls-31, .cls-8 {
        stroke-width: 0.75px;
      }

      .cls-9 {
        stroke: #816756;
      }

      .cls-18, .cls-19, .cls-23, .cls-25, .cls-26, .cls-9 {
        stroke-width: 1px;
      }

      .cls-10 {
        fill: #2f3030;
      }

      .cls-11 {
        fill: #010101;
      }

      .cls-12, .cls-13, .cls-14, .cls-15, .cls-19, .cls-20 {
        stroke: #222;
      }

      .cls-12, .cls-13, .cls-14, .cls-15, .cls-16, .cls-21, .cls-24, .cls-29 {
        stroke-width: 0.5px;
      }

      .cls-16, .cls-18, .cls-30 {
        fill: #635578;
      }

      .cls-21 {
        fill: #b0afb4;
      }

      .cls-22 {
        fill: #2b4748;
      }

      .cls-23, .cls-24 {
        stroke: #000;
      }

      .cls-24 {
        fill: #5d7b3b;
      }

      .cls-26 {
        stroke: #63544b;
      }

      .cls-27 {
        fill: #473d37;
      }

      .cls-28 {
        fill: #2f3e1e;
      }

      .cls-29, .cls-31 {
        fill: #837090;
      }
    </style>
  </defs>
  <g id="group-27" transform="translate(3847)">
    <g id="group-16" transform="translate(22 270.912)">
      <path id="path" class="cls-1" d="M12.5,299.543c-.451-.586-.045-9.963,1.893-9.2S12.947,300.129,12.5,299.543Z" transform="translate(0.78 -159.652)"/>
      <path id="path-2" data-name="path" class="cls-1" d="M13.5,305.543c-.451-.586-.045-9.963,1.893-9.2S13.947,306.129,13.5,305.543Z" transform="translate(0.231 -162.947)"/>
      <path id="path-3" data-name="path" class="cls-1" d="M17.5,307.543c-.451-.586-.045-9.963,1.893-9.2S17.947,308.129,17.5,307.543Z" transform="translate(-1.965 -164.046)"/>
      <path id="path-4" data-name="path" class="cls-1" d="M23.54,310.565c-.541-.5-2.029-9.738,0-9.377C25.569,301.593,24.081,311.06,23.54,310.565Z" transform="translate(-4.808 -165.625)"/>
      <ellipse id="ellipse" class="cls-2" cx="35.75" cy="18.348" rx="35.75" ry="18.348" transform="translate(0 132.327) rotate(-73.154)"/>
      <path id="path-5" data-name="path" class="cls-1" d="M300.669,299.543c.451-.586.045-9.963-1.893-9.2S300.218,300.129,300.669,299.543Z" transform="translate(-156.203 -159.652)"/>
      <path id="path-6" data-name="path" class="cls-1" d="M299.669,305.543c.451-.586.045-9.963-1.893-9.2S299.218,306.129,299.669,305.543Z" transform="translate(-155.654 -162.947)"/>
      <path id="path-7" data-name="path" class="cls-1" d="M295.669,307.543c.451-.586.045-9.963-1.893-9.2S295.218,308.129,295.669,307.543Z" transform="translate(-153.457 -164.046)"/>
      <path id="path-8" data-name="path" class="cls-1" d="M290.34,310.565c.541-.5,2.029-9.738,0-9.377C288.311,301.593,289.8,311.06,290.34,310.565Z" transform="translate(-151.329 -165.625)"/>
      <ellipse id="ellipse-2" data-name="ellipse" class="cls-3" cx="18.348" cy="35.75" rx="18.348" ry="35.75" transform="translate(102.569 74.526) rotate(-16.846)"/>
      <ellipse id="ellipse-3" data-name="ellipse" class="cls-2" cx="37.238" cy="56.398" rx="37.238" ry="56.398" transform="translate(20.219 75.873)"/>
      <ellipse id="ellipse-4" data-name="ellipse" class="cls-3" cx="37.238" cy="56.398" rx="37.238" ry="56.398" transform="translate(62.912 75.873)"/>
      <path id="path-9" data-name="path" class="cls-2" d="M72.9,402.8s3.516,5.5,4.418,6.537c.947,1.037,29.844.766,32.053.316,2.66-.541,6.762-9.016,2.66-6.086" transform="translate(-32.484 -221.434)"/>
      <path id="path-10" data-name="path" class="cls-3" d="M193.767,402.7s-1.984,6.041-2.885,6.266c-6.357,1.623-30.791,1.127-33.09.631-2.66-.586-6.672-9.062-2.66-6.131" transform="translate(-76.711 -221.379)"/>
      <path id="path-11" data-name="path" class="cls-1" d="M95.489,417.1c.316-.631,7.709-3.562,7.8-1.488C103.379,417.638,95.174,417.728,95.489,417.1Z" transform="translate(-44.884 -228.067)"/>
      <path id="path-12" data-name="path" class="cls-1" d="M76.493,415.394c.225-.631,6.041-3.246,6.221-1.217C82.8,416.25,76.268,416.025,76.493,415.394Z" transform="translate(-34.454 -227.266)"/>
      <path id="path-13" data-name="path" class="cls-1" d="M82.992,416.44c.271-.631,7.709-3.787,7.844-1.758S82.722,417.071,82.992,416.44Z" transform="translate(-38.023 -227.591)"/>
      <path id="path-14" data-name="path" class="cls-1" d="M215.3,416.1c-.316-.631-7.709-3.562-7.8-1.488C207.409,416.638,215.614,416.728,215.3,416.1Z" transform="translate(-106.402 -227.518)"/>
      <path id="path-15" data-name="path" class="cls-1" d="M236.219,414.394c-.225-.631-6.041-3.246-6.221-1.217C229.862,415.25,236.444,415.025,236.219,414.394Z" transform="translate(-118.757 -226.716)"/>
      <path id="path-16" data-name="path" class="cls-1" d="M227.742,415.44c-.271-.631-7.709-3.787-7.844-1.758S228.013,416.071,227.742,415.44Z" transform="translate(-113.211 -227.042)"/>
      <path id="path-17" data-name="path" class="cls-2" d="M51.719,82.476c-12.488,9.512-17.357,25.742-17.357,25.742l-8.7,21.685c-11.361,24.164-2.7,51.484-2.7,51.484a69.81,69.81,0,0,0,21.234,33.09A59.315,59.315,0,0,0,80.346,228.5a7.138,7.138,0,0,0,.947,2.029,7.027,7.027,0,0,0,1.758,2.029s.5.316.992.676c.857.541,13.66.586,13.66.586-2.57-6.4,2.48-8.385,2.48-8.385-8.16-1.533-29.439-6.627-45.758-25.381-19.43-22.361-24.119-55.316-12.8-85.7A63.526,63.526,0,0,1,45.9,94.513,65.337,65.337,0,0,1,52.53,82.07l.18-.27Z" transform="translate(-3.323 -45.148)"/>
      <path id="path-18" data-name="path" class="cls-3" d="M136.624,117.1l-6.762-16.545c-8.115-25.2-23.082-32.955-34.217-34.984a59.191,59.191,0,0,0-27.906,0c-9.648,1.758-22.271,7.8-30.746,25.967h0a70.785,70.785,0,0,0-2.8,6.9l-9.062,22.226-.27.676h0A76.019,76.019,0,0,0,19.5,149.466c0,38.23,27.816,69.2,62.168,69.2s62.168-30.971,62.168-69.2A75.255,75.255,0,0,0,136.624,117.1Z" transform="translate(-3.158 -35.318)"/>
      <path id="path-19" data-name="path" class="cls-2" d="M51.308,83.3c-8.926,11.857-7.754,33.541-7.754,33.541-13.209,27.094-9.2,58.787,9.783,79.435,22.316,24.254,54.5,21.639,58.336,21.279a36.442,36.442,0,0,1-12.127,8.836c-8.385,3.742-16,3.246-21.279,2.975a59.209,59.209,0,0,1-12.848-2.3A60.017,60.017,0,0,1,30.8,200.424a78.411,78.411,0,0,1-11.676-38.14A81.855,81.855,0,0,1,30.8,117.247s6.852-23.4,18.619-32.414l.811-.676C50.632,83.841,50.947,83.57,51.308,83.3Z" transform="translate(-2.912 -45.972)"/>
      <ellipse id="ellipse-5" data-name="ellipse" class="cls-4" cx="53.828" cy="56.849" rx="53.828" ry="56.849" transform="translate(24.683 67.623)"/>
      <path id="path-20" data-name="path" class="cls-5" d="M47.042,206.6s1.307,78.849,75.017,78.668c0,0-23.172,18.754-52.566,4.643s-31.242-45.262-31.242-45.262S35.5,224.182,47.042,206.6Z" transform="translate(-13.298 -113.686)"/>
      <path id="path-21" data-name="path" class="cls-3" d="M152.4,214.378a10.132,10.132,0,0,0-3.832-2.209c-.812-.451-2.93.541-5,2.434-2.3,2.074-3.652,4.373-3.111,5.184.27.406,2.434-.721,3.607-1.352a7.378,7.378,0,0,1,7.98-.18c1.172.586,3.2,1.533,3.471,1.127C156.1,218.525,154.7,216.316,152.4,214.378Z" transform="translate(-69.518 -116.685)"/>
      <path id="path-22" data-name="path" class="cls-3" d="M195.4,216.485a10.559,10.559,0,0,0-3.742-2.344c-.766-.5-2.93.451-5.049,2.254-2.344,1.984-3.787,4.283-3.246,5.094.271.406,2.434-.631,3.652-1.262a7.316,7.316,0,0,1,7.98.09c1.127.631,3.156,1.623,3.426,1.262C198.96,220.722,197.653,218.468,195.4,216.485Z" transform="translate(-93.084 -117.755)"/>
      <path id="path-23" data-name="path" class="cls-3" d="M239.278,224.667a11.026,11.026,0,0,0-3.607-2.57c-.766-.541-2.93.27-5.184,1.984-2.48,1.848-4.057,4.057-3.516,4.914.27.406,2.48-.5,3.7-1.037a7.4,7.4,0,0,1,7.98.541c1.082.676,3.021,1.8,3.336,1.443C242.614,229.176,241.4,226.831,239.278,224.667Z" transform="translate(-117.038 -122.105)"/>
      <path id="path-24" data-name="path" class="cls-3" d="M100.875,216.485a10.559,10.559,0,0,1,3.742-2.344c.766-.5,2.93.451,5.049,2.254,2.344,1.984,3.787,4.283,3.246,5.094-.271.406-2.434-.631-3.652-1.262a7.316,7.316,0,0,0-7.98.09c-1.127.631-3.156,1.623-3.426,1.262C97.314,220.722,98.666,218.468,100.875,216.485Z" transform="translate(-46.123 -117.755)"/>
      <path id="path-25" data-name="path" class="cls-3" d="M57.1,222.667a11.026,11.026,0,0,1,3.607-2.57c.766-.541,2.93.27,5.184,1.984,2.48,1.848,4.057,4.057,3.516,4.914-.271.406-2.48-.5-3.7-1.037a7.4,7.4,0,0,0-7.98.541c-1.082.676-3.021,1.8-3.336,1.443C53.766,227.176,54.983,224.831,57.1,222.667Z" transform="translate(-22.231 -121.007)"/>
      <path id="path-26" data-name="path" class="cls-3" d="M129.4,176.378a10.131,10.131,0,0,0-3.832-2.209c-.811-.451-2.93.541-5,2.434-2.3,2.074-3.652,4.373-3.111,5.184.27.406,2.434-.721,3.607-1.352a7.379,7.379,0,0,1,7.98-.18c1.172.586,3.2,1.533,3.471,1.127C133.1,180.525,131.7,178.316,129.4,176.378Z" transform="translate(-56.887 -95.816)"/>
      <path id="path-27" data-name="path" class="cls-3" d="M85.4,185.378a10.132,10.132,0,0,0-3.832-2.209c-.811-.451-2.93.541-5,2.434-2.3,2.074-3.652,4.373-3.111,5.184.271.406,2.434-.721,3.607-1.352a7.378,7.378,0,0,1,7.98-.18c1.172.586,3.2,1.533,3.471,1.127C89.1,189.525,87.7,187.316,85.4,185.378Z" transform="translate(-32.723 -100.758)"/>
      <path id="path-28" data-name="path" class="cls-3" d="M174.4,176.378a10.131,10.131,0,0,0-3.832-2.209c-.811-.451-2.93.541-5,2.434-2.3,2.074-3.652,4.373-3.111,5.184.271.406,2.434-.721,3.607-1.352a7.379,7.379,0,0,1,7.98-.18c1.172.586,3.2,1.533,3.471,1.127C178.1,180.525,176.7,178.316,174.4,176.378Z" transform="translate(-81.6 -95.816)"/>
      <path id="path-29" data-name="path" class="cls-3" d="M217.4,185.378a10.132,10.132,0,0,0-3.832-2.209c-.811-.451-2.93.541-5,2.434-2.3,2.074-3.652,4.373-3.111,5.184.271.406,2.434-.721,3.607-1.352a7.378,7.378,0,0,1,7.98-.18c1.172.586,3.2,1.533,3.471,1.127C221.1,189.525,219.7,187.316,217.4,185.378Z" transform="translate(-105.215 -100.758)"/>
      <path id="path-30" data-name="path" class="cls-2" d="M56.782,226.6l.586,3.7s-2.434,1.533-2.975,1.307C54.393,231.649,53,230.7,56.782,226.6Z" transform="translate(-22.182 -124.669)"/>
      <path id="path-31" data-name="path" class="cls-6" d="M100.092,104.985a5.273,5.273,0,1,1-5.545-4.6A5.093,5.093,0,0,1,100.092,104.985Z" transform="translate(-41.643 -55.35)"/>
      <ellipse id="ellipse-6" data-name="ellipse" class="cls-6" cx="0.631" cy="0.631" rx="0.631" ry="0.631" transform="translate(53.129 48.238)"/>
      <ellipse id="ellipse-7" data-name="ellipse" class="cls-6" cx="0.361" cy="0.361" rx="0.361" ry="0.361" transform="translate(53.129 49.771)"/>
      <path id="path-32" data-name="path" class="cls-6" d="M203.588,104.985a5.273,5.273,0,1,0,5.545-4.6A5.15,5.15,0,0,0,203.588,104.985Z" transform="translate(-104.249 -55.35)"/>
      <ellipse id="ellipse-8" data-name="ellipse" class="cls-7" cx="2.389" cy="2.389" rx="2.389" ry="2.389" transform="translate(101.548 47.246)"/>
      <ellipse id="ellipse-9" data-name="ellipse" class="cls-6" cx="0.631" cy="0.631" rx="0.631" ry="0.631" transform="translate(103.441 48.238)"/>
      <ellipse id="ellipse-10" data-name="ellipse" class="cls-6" cx="0.361" cy="0.361" rx="0.361" ry="0.361" transform="translate(103.982 49.771)"/>
      <ellipse id="ellipse-11" data-name="ellipse" class="cls-7" cx="2.389" cy="2.389" rx="2.389" ry="2.389" transform="translate(51.687 47.246)"/>
      <ellipse id="ellipse-12" data-name="ellipse" class="cls-6" cx="0.631" cy="0.631" rx="0.631" ry="0.631" transform="translate(53.58 48.238)"/>
      <ellipse id="ellipse-13" data-name="ellipse" class="cls-6" cx="0.361" cy="0.361" rx="0.361" ry="0.361" transform="translate(54.076 49.816)"/>
      <path id="path-33" data-name="path" class="cls-8" d="M155.3,142.507c1.578-.541,2.885-.631,3.336-.27a.409.409,0,0,1,.135.316" transform="translate(-77.736 -78.22)"/>
      <g id="group" transform="translate(109.443 50.433)">
        <g id="group-2" data-name="group">
          <path id="path-34" data-name="path" class="cls-7" d="M258.015,112.382q-13.863,3.516-27.771,7.078c-1.307.316-2.615.676-3.922.992a.444.444,0,0,0,.225.857q13.863-3.516,27.771-7.078c1.307-.316,2.615-.676,3.922-.992a.443.443,0,1,0-.225-.857Z" transform="translate(-226.012 -112.368)"/>
        </g>
      </g>
      <g id="group-3" data-name="group" transform="translate(112.398 57.158)">
        <g id="group-4" data-name="group">
          <path id="path-35" data-name="path" class="cls-7" d="M265.267,127.292c-9.467,1.352-18.889,2.7-28.357,4.057-1.352.18-2.66.361-4.012.586-.586.09-.316.947.225.857,9.467-1.352,18.889-2.7,28.357-4.057,1.352-.18,2.66-.361,4.012-.586.586-.09.361-.947-.225-.857Z" transform="translate(-232.569 -127.285)"/>
        </g>
      </g>
      <g id="group-5" data-name="group" transform="translate(111.973 65.82)">
        <g id="group-6" data-name="group">
          <path id="path-36" data-name="path" class="cls-7" d="M264.749,146.5H232.065a.451.451,0,0,0,0,.9h32.685a.451.451,0,0,0,0-.9Z" transform="translate(-231.625 -146.5)"/>
        </g>
      </g>
      <g id="group-7" data-name="group" transform="translate(15.143 50.883)">
        <g id="group-8" data-name="group">
          <path id="path-37" data-name="path" class="cls-7" d="M17.183,114.239q13.863,3.516,27.771,7.078c1.307.316,2.615.676,3.922.992.541.135.811-.721.225-.857q-13.863-3.516-27.771-7.078c-1.307-.316-2.615-.676-3.922-.992a.443.443,0,1,0-.225.857Z" transform="translate(-16.84 -113.368)"/>
        </g>
      </g>
      <g id="group-9" data-name="group" transform="translate(11.479 57.608)">
        <g id="group-10" data-name="group" transform="translate(0)">
          <path id="path-38" data-name="path" class="cls-7" d="M9.022,129.148c9.467,1.352,18.889,2.7,28.357,4.057,1.352.18,2.66.361,4.012.586.586.09.811-.766.225-.857-9.467-1.352-18.889-2.7-28.357-4.057-1.352-.18-2.66-.361-4.012-.586-.541-.09-.766.766-.225.857Z" transform="translate(-8.712 -128.285)"/>
        </g>
      </g>
      <g id="group-11" data-name="group" transform="translate(11.609 66.226)">
        <g id="group-12" data-name="group" transform="translate(0)">
          <path id="path-39" data-name="path" class="cls-7" d="M9.406,148.3H42.09a.451.451,0,0,0,0-.9H9.406a.453.453,0,0,0,0,.9Z" transform="translate(-9 -147.4)"/>
        </g>
      </g>
      <path id="path-40" data-name="path" class="cls-9" d="M88.423.5C84.817.455,79.182,30.75,83.96,31.877c.5.135.947.225,1.307.316.947.27,2.119.766,2.434,1.533l-.271.18.316-.045v.045h0l.045.225-.361.27.406-.045.045.316-.406.225.451-.09.045.316-.451.406.5-.135.045.27-.5.5.541-.18.045.18-.541.541.586-.225.586,2.885,4.869-2.66-.721-3.111.09-.045h-.09l-.045-.18.225-.135-.225.045-.045-.135L93.157,33l-.361.045-.045-.135v-.045l.451-.18H92.8a1.975,1.975,0,0,1,.225-.406l.18-.09h-.135a8.646,8.646,0,0,1,2.48-1.713C99.559,28.676,92.03.545,88.423.5Z" transform="translate(-37.548 -0.5)"/>
      <path id="path-41" data-name="path" class="cls-9" d="M211.427,1.5c3.607-.045,9.242,30.25,4.463,31.377-.5.135-.947.225-1.307.316-.947.27-2.119.766-2.434,1.533l.271.18-.316-.045v.045h0l-.045.225.361.27-.406-.045-.045.316.406.316-.451-.09-.045.316.451.406-.5-.135-.045.27.5.5-.541-.18-.045.18.541.541-.586-.225-.586,2.885-4.869-2.66.721-3.111-.09-.045h.09l.045-.18-.225-.135.225.045.045-.135-.316-.135.361.045L207.1,34v-.045l-.451-.18h.406a1.975,1.975,0,0,0-.225-.406l-.18-.09h.135a8.646,8.646,0,0,0-2.48-1.713C200.291,29.676,207.82,1.545,211.427,1.5Z" transform="translate(-104.018 -1.049)"/>
      <path id="path-42" data-name="path" class="cls-2" d="M87.442.5s-2.209,1.623-4.057,10.955S81.221,27.279,82.168,30.3c0,0,.406,1.848,2.074,1.939A83.855,83.855,0,0,1,87.442.5Z" transform="translate(-37.288 -0.5)"/>
      <path id="path-43" data-name="path" class="cls-2" d="M88.15,58.19S86.211,54.4,86.572,47.1c0,0-.586,7.3.316,10.775" transform="translate(-39.889 -26.092)"/>
      <path id="path-44" data-name="path" class="cls-2" d="M210.437,1.5c-3.652,7.439-6.717,17.221-5.545,28.176q.135,1.42.406,2.84l-1.037-.631a5.156,5.156,0,0,1-.721-.361c-.18-.135-1.262-.811-.992-5.184a59.9,59.9,0,0,1,2.344-12.488,59.859,59.859,0,0,1,3.922-10.414,3.059,3.059,0,0,1,.271-.406,6.394,6.394,0,0,1,1.037-1.307C210.256,1.635,210.347,1.545,210.437,1.5Z" transform="translate(-103.66 -1.049)"/>
      <path id="path-45" data-name="path" class="cls-10" d="M146.393,113.706c-.316-2.119,12.668-2.75,12.443.225C158.655,116.366,146.709,115.825,146.393,113.706Z" transform="translate(-72.841 -61.682)"/>
      <path id="path-46" data-name="path" class="cls-11" d="M149.808,115.88c-.5-.316-.271-.451-.271-.721.18-2.389,11.812-1.352,11.18,0s-2.7.992-3.471,1.443a3.7,3.7,0,0,1-1.848.766c-.947.09-1.082-.5-2.389-.721A13.563,13.563,0,0,1,149.808,115.88Z" transform="translate(-74.543 -62.683)"/>
    </g>
    <g id="group-17" transform="translate(200.863 271.216)">
      <path id="path-47" data-name="path" class="cls-1" d="M12.587,320.654c-.427-.555-.043-9.436,1.793-8.71S13.014,321.209,12.587,320.654Z" transform="translate(-0.069 -178.857)"/>
      <path id="path-48" data-name="path" class="cls-1" d="M13.587,326.654c-.427-.555-.043-9.436,1.793-8.71S14.014,327.209,13.587,326.654Z" transform="translate(-0.642 -182.296)"/>
      <path id="path-49" data-name="path" class="cls-1" d="M17.587,328.654c-.427-.555-.043-9.436,1.793-8.71S18.014,329.209,17.587,328.654Z" transform="translate(-2.934 -183.442)"/>
      <path id="path-50" data-name="path" class="cls-1" d="M23.585,331.668c-.512-.47-1.921-9.223,0-8.881S24.14,332.095,23.585,331.668Z" transform="translate(-5.901 -185.09)"/>
      <ellipse id="ellipse-14" data-name="ellipse" class="cls-2" cx="33.859" cy="17.378" rx="33.859" ry="17.378" transform="translate(0 134.597) rotate(-73.154)"/>
      <ellipse id="ellipse-15" data-name="ellipse" class="cls-2" cx="35.268" cy="53.414" rx="35.268" ry="53.414" transform="translate(19.094 81.124)"/>
      <ellipse id="ellipse-16" data-name="ellipse" class="cls-3" cx="35.268" cy="53.414" rx="35.268" ry="53.414" transform="translate(59.57 81.124)"/>
      <path id="path-51" data-name="path" class="cls-2" d="M73.1,424.3s3.33,5.209,4.184,6.191c.9.982,28.265.726,30.357.3,2.519-.512,6.4-8.539,2.519-5.764" transform="translate(-34.836 -243.265)"/>
      <path id="path-52" data-name="path" class="cls-3" d="M191.733,424.2s-1.879,5.721-2.733,5.935c-6.02,1.537-29.162,1.067-31.34.6-2.519-.555-6.319-8.582-2.519-5.807" transform="translate(-80.927 -243.208)"/>
      <path id="path-53" data-name="path" class="cls-2" d="M50.23,104.1c-11.87,8.966-16.438,24.38-16.438,24.38l-8.24,20.537c-10.76,22.885-2.562,48.76-2.562,48.76A66.116,66.116,0,0,0,43.1,229.114a56.176,56.176,0,0,0,34.243,13.279,6.906,6.906,0,0,0,.9,1.921,8.97,8.97,0,0,0,2.69,2.562c2.049,1.238,26.429.982,31.766-.811a3.215,3.215,0,0,0,1.067-1.751c.256-.9.683-1.58.854-2.22a12.485,12.485,0,0,1-3.074-2.476,11.272,11.272,0,0,1-2.135-3.074,10.151,10.151,0,0,1-.384-6.447c-3.8.683-33.816,5.764-56.189-14.6C31.87,196.451,26.362,163.1,40.666,134.327a60.165,60.165,0,0,1,4.056-18.787A61.881,61.881,0,0,1,51,103.756l.171-.256Z" transform="translate(-4.408 -59.437)"/>
      <path id="path-54" data-name="path" class="cls-3" d="M130.627,134.529l-6.4-15.328c-7.685-23.312-21.861-30.443-32.407-32.364a57.572,57.572,0,0,0-26.429,0c-9.137,1.622-21.092,7.216-29.119,24h0a64.32,64.32,0,0,0-2.647,6.4,111.159,111.159,0,0,1-8.582,20.537l-.256.64h0A68.885,68.885,0,0,0,19.7,164.46c0,35.353,26.344,64,58.879,64s58.879-28.65,58.879-64A68.345,68.345,0,0,0,130.627,134.529Z" transform="translate(-4.236 -49.008)"/>
      <path id="path-55" data-name="path" class="cls-2" d="M108.14,93.6a39.893,39.893,0,0,0-17.378,15.157,38.511,38.511,0,0,0-5.081,13.023c-36.591,16.481-47.607,56.061-33.9,78.007,9.692,15.5,32.236,23.142,55.463,18.957a15.451,15.451,0,0,1-3.5,7.728c-5.636,6.276-16.054,5.764-28.308,4.654a59.343,59.343,0,0,1-12.169-2.178,56.841,56.841,0,0,1-32.791-25.234,74.262,74.262,0,0,1-11.058-36.122,77.524,77.524,0,0,1,11.058-42.654c1.067-5.636,4.611-20.238,17.634-30.7a57.782,57.782,0,0,1,10.418-6.319C79.917,77.845,103.657,89.031,108.14,93.6Z" transform="translate(-4.037 -48.17)"/>
      <path id="path-56" data-name="path" class="cls-12" d="M40.487,102.3s-15.8,8.838-21.007,33.261a37.943,37.943,0,0,0-6.02,5.337,51.859,51.859,0,0,0-8.667,14.645c-6.02,15.8-7.6,37.445,4.91,42.91a4.782,4.782,0,0,0,2.6.384" transform="translate(6.915 -58.749)"/>
      <path id="path-57" data-name="path" class="cls-12" d="M205.99,94.138s-1.665-.854-2.69-1.238" transform="translate(-109.444 -53.363)"/>
      <path id="path-58" data-name="path" class="cls-12" d="M186.765,104.4a51.523,51.523,0,0,1,16.993,25.746c.726,2.6,6.746,15.67,7.9,18.659.555,1.409.939,2.476,1.025,2.647,5.679,13.279,5.252,34.157,1.067,44.277-.982,25.02-9.18,38-19.769,46.881,0,0-1.153,3.843-2.092,4.355s-27.027,2.476-31.638.47c-1.537-.683-1.751-1.366-1.751-1.366v-3.33" transform="translate(-83.772 -59.953)"/>
      <path id="path-59" data-name="path" class="cls-12" d="M83.413,313.257s-1.067,1.665-1.879,1.494c-.726.043-30.1,1.11-30.229.384-.128-.683-3.2-5.038-3.2-5.038-24.764-17.89-20.238-60.373-20.238-60.373a119.756,119.756,0,0,1,4.44-27.924" transform="translate(-8.729 -127.226)"/>
      <path id="path-60" data-name="path" class="cls-1" d="M75.6,437.889c.213-.6,5.721-3.074,5.892-1.153C81.616,438.658,75.425,438.444,75.6,437.889Z" transform="translate(-36.264 -249.98)"/>
      <path id="path-61" data-name="path" class="cls-1" d="M83.189,438.812c.256-.6,7.3-3.587,7.429-1.665C90.7,439.111,82.89,439.41,83.189,438.812Z" transform="translate(-40.612 -250.262)"/>
      <path id="path-62" data-name="path" class="cls-1" d="M93.592,439.579c.3-.6,7.3-3.373,7.387-1.409C101.106,440.092,93.336,440.134,93.592,439.579Z" transform="translate(-46.574 -250.817)"/>
      <path id="path-63" data-name="path" class="cls-1" d="M237.088,436.889c-.214-.6-5.721-3.074-5.892-1.153S237.258,437.444,237.088,436.889Z" transform="translate(-125.427 -249.407)"/>
      <path id="path-64" data-name="path" class="cls-1" d="M228.428,437.812c-.256-.6-7.3-3.586-7.429-1.665C220.914,438.111,228.727,438.41,228.428,437.812Z" transform="translate(-119.586 -249.689)"/>
      <path id="path-65" data-name="path" class="cls-1" d="M218.084,438.579c-.3-.6-7.3-3.373-7.387-1.409C210.57,439.092,218.341,439.134,218.084,438.579Z" transform="translate(-113.683 -250.244)"/>
      <ellipse id="ellipse-17" data-name="ellipse" class="cls-13" cx="50.98" cy="53.841" rx="50.98" ry="53.841" transform="translate(23.363 73.353)"/>
      <path id="path-66" data-name="path" class="cls-5" d="M96.631,173.067c-1.58,2.434-21.477,34.67-6.106,67.333,8.2,17.463,22.373,26.3,28.522,29.632-.939.683-2.263,1.58-3.885,2.562a50.255,50.255,0,0,1-10.845,5.038c-17.463,5.849-33-1.11-35.353-2.306-.47.171-26.173-11.528-29.76-42.184-.043-.555-.128-1.153-.128-1.153-1.964-17.378,5.807-31.211,7.045-33.3A51.506,51.506,0,0,1,69.3,177.208,50.673,50.673,0,0,1,96.631,173.067Z" transform="translate(-15.157 -99.073)"/>
      <path id="path-67" data-name="path" class="cls-14" d="M151.964,235.755a9.6,9.6,0,0,0-3.629-2.092c-.769-.427-2.775.512-4.739,2.306-2.178,1.964-3.458,4.142-2.946,4.91.256.384,2.306-.683,3.416-1.281a6.988,6.988,0,0,1,7.557-.171c1.11.555,3.032,1.452,3.288,1.067C155.465,239.683,154.141,237.591,151.964,235.755Z" transform="translate(-73.479 -133.966)"/>
      <path id="path-68" data-name="path" class="cls-14" d="M194.956,237.854a10,10,0,0,0-3.544-2.22c-.726-.47-2.775.427-4.782,2.135-2.22,1.879-3.587,4.056-3.074,4.825.256.384,2.306-.6,3.458-1.2a6.929,6.929,0,0,1,7.557.085c1.067.6,2.989,1.537,3.245,1.2C198.329,241.91,197.048,239.732,194.956,237.854Z" transform="translate(-98.069 -135.082)"/>
      <path id="path-69" data-name="path" class="cls-3" d="M238.721,246.123a10.442,10.442,0,0,0-3.416-2.434c-.726-.512-2.775.256-4.91,1.879-2.348,1.751-3.843,3.843-3.33,4.654.256.384,2.348-.47,3.5-.982a7.009,7.009,0,0,1,7.557.512c1.025.64,2.861,1.708,3.16,1.366C241.881,250.35,240.728,248.129,238.721,246.123Z" transform="translate(-123.005 -139.679)"/>
      <path id="path-70" data-name="path" class="cls-15" d="M100.906,237.854a10,10,0,0,1,3.544-2.22c.726-.47,2.775.427,4.782,2.135,2.22,1.879,3.587,4.056,3.074,4.825-.256.384-2.306-.6-3.458-1.2a6.929,6.929,0,0,0-7.557.085c-1.067.6-2.989,1.537-3.245,1.2C97.533,241.91,98.771,239.732,100.906,237.854Z" transform="translate(-49.064 -135.082)"/>
      <path id="path-71" data-name="path" class="cls-15" d="M57.071,244.123a10.442,10.442,0,0,1,3.416-2.434c.726-.512,2.775.256,4.91,1.879,2.348,1.751,3.843,3.843,3.33,4.654-.256.384-2.348-.47-3.5-.982a7.009,7.009,0,0,0-7.557.512c-1.025.64-2.861,1.708-3.16,1.366C53.954,248.35,55.064,246.129,57.071,244.123Z" transform="translate(-24.101 -138.533)"/>
      <path id="path-72" data-name="path" class="cls-15" d="M128.964,197.755a9.6,9.6,0,0,0-3.629-2.092c-.769-.427-2.775.512-4.739,2.306-2.178,1.964-3.458,4.142-2.946,4.91.256.384,2.306-.683,3.416-1.281a6.988,6.988,0,0,1,7.557-.171c1.11.555,3.031,1.452,3.288,1.067C132.465,201.683,131.141,199.591,128.964,197.755Z" transform="translate(-60.299 -112.191)"/>
      <path id="path-73" data-name="path" class="cls-15" d="M84.964,206.755a9.6,9.6,0,0,0-3.629-2.092c-.769-.427-2.775.512-4.739,2.306-2.178,1.964-3.458,4.142-2.946,4.91.256.384,2.306-.683,3.416-1.281a6.988,6.988,0,0,1,7.557-.171c1.11.555,3.031,1.452,3.288,1.067C88.465,210.683,87.141,208.591,84.964,206.755Z" transform="translate(-35.086 -117.348)"/>
      <path id="path-74" data-name="path" class="cls-14" d="M173.964,197.755a9.6,9.6,0,0,0-3.629-2.092c-.769-.427-2.775.512-4.739,2.306-2.178,1.964-3.458,4.142-2.946,4.91.256.384,2.306-.683,3.416-1.281a6.988,6.988,0,0,1,7.557-.171c1.11.555,3.031,1.452,3.288,1.067C177.465,201.683,176.141,199.591,173.964,197.755Z" transform="translate(-86.085 -112.191)"/>
      <path id="path-75" data-name="path" class="cls-3" d="M216.964,206.755a9.6,9.6,0,0,0-3.629-2.092c-.769-.427-2.775.512-4.739,2.306-2.178,1.964-3.458,4.142-2.946,4.91.256.384,2.306-.683,3.416-1.281a6.988,6.988,0,0,1,7.557-.171c1.11.555,3.032,1.452,3.288,1.067C220.465,210.683,219.141,208.591,216.964,206.755Z" transform="translate(-110.726 -117.348)"/>
      <path id="path-76" data-name="path" class="cls-15" d="M144.507,237.6s-4.44,3.587-3.715,5.551c0,0,.171.47,2.989-1.067" transform="translate(-73.579 -136.28)"/>
      <path id="path-77" data-name="path" class="cls-16" d="M155.345,38.57s-5.636.512-5.892.811a65.428,65.428,0,0,0-29.247.085c-23.868-4.739-38.769.6-38.769.6s-4.014-2.775-12.937,0c.214.171.47.3.683.47a30.466,30.466,0,0,0,12.382,4.184s23.1-1.238,30.144,3.928c0,0,8.625-5.166,36.292-3.587a34.7,34.7,0,0,1,4.825-2.092,49.022,49.022,0,0,1,7.771-1.921c3.928-.726,5.081-.683,5.081-.982C165.977,39,155.559,38.229,155.345,38.57Z" transform="translate(-32.2 -21.62)"/>
      <path id="path-78" data-name="path" class="cls-17" d="M169.8,49.733A35.693,35.693,0,0,1,171.38,39.4" transform="translate(-90.248 -22.706)"/>
      <path id="path-79" data-name="path" class="cls-17" d="M249.4,40.1a9.915,9.915,0,0,1,2.348,6.4" transform="translate(-135.861 -23.107)"/>
      <path id="path-80" data-name="path" class="cls-18" d="M83.692,41s-3.8,14.987-1.665,20.153c.854,2.007,1.665,1.793,1.665,1.793A6.1,6.1,0,0,1,86.68,64.27" transform="translate(-39.578 -23.622)"/>
      <path id="path-81" data-name="path" class="cls-18" d="M107.814,63.078a19.773,19.773,0,0,0,2.22-1.238,4.778,4.778,0,0,0,.769-2.775A56.144,56.144,0,0,0,107.6,41.9" transform="translate(-54.605 -24.138)"/>
      <ellipse id="ellipse-18" data-name="ellipse" class="cls-3" cx="16.951" cy="32.663" rx="16.951" ry="32.663" transform="matrix(0.756, -0.655, 0.655, 0.756, 73.729, 88.781)"/>
      <path id="path-82" data-name="path" class="cls-14" d="M221.981,233.063a31.2,31.2,0,0,0-7-1.836c-18.4-3.16-34.8-22.074-37.018-40.434-.64-5.166.512-8.326,2.306-10.5,1.324-1.622,7.088-7.387,34.5,6.106h0" transform="translate(-94.821 -101.94)"/>
      <path id="path-83" data-name="path" class="cls-19" d="M86.8,41" transform="translate(-42.686 -23.622)"/>
      <path id="path-84" data-name="path" class="cls-2" d="M181.025,182.8a81.888,81.888,0,0,0,7.173,21.9,82.9,82.9,0,0,0,23.142,28.308c-3.715-.213-21.22-9.308-28.692-25.7-1.708-3.715-4.526-8.966-4.27-15.627A20.461,20.461,0,0,1,181.025,182.8Z" transform="translate(-95.154 -104.878)"/>
      <path id="path-85" data-name="path" class="cls-20" d="M172.6,183.887c.085-.6,4.569-3.672,5.038-1.793C178.064,183.973,172.513,184.485,172.6,183.887Z" transform="translate(-91.851 -104.129)"/>
      <path id="path-86" data-name="path" class="cls-21" d="M180.011,163.976a4.233,4.233,0,0,0-.811,2.049,2.342,2.342,0,0,1,3.117,0c-.043-1.751-1.2-1.964-1.2-1.964Z" transform="translate(-95.634 -94.081)"/>
      <g id="group-13" data-name="group" transform="translate(74.898 71.136)">
        <path id="path-87" data-name="path" class="cls-22" d="M167.61,167.679c-.64,2.434,1.58,12.724-2.946,13.578-2.178-.128-2.946-2.434-2.647-4.483.128-.769-.939-1.366-1.622-1.324-.64.043-1.494.6-1.494,1.281v3.5c.854,2.22,2.989,4.312,5.252,4.355s4.355-1.964,5.679-4.782c.854-1.793.64-7.856.811-12.169A1.944,1.944,0,0,0,167.61,167.679Z" transform="translate(-158.9 -166.913)"/>
        <g id="group-14" data-name="group" transform="translate(0.137)">
          <path id="path-88" data-name="path" class="cls-7" d="M167.709,167.672a16.509,16.509,0,0,0-.043,4.355,23.665,23.665,0,0,1-.3,6.02,5.155,5.155,0,0,1-1.153,2.434,2.1,2.1,0,0,1-3.373-.512,4.205,4.205,0,0,1-.555-2.049c-.043-.512.171-1.11,0-1.58a1.689,1.689,0,0,0-1.58-.939c-1.836.128-1.452,2.22-1.452,3.5a5.1,5.1,0,0,0,.128,1.793,7.036,7.036,0,0,0,2.306,3.031c3.971,3.074,8.369-1.409,8.966-5.422a81.326,81.326,0,0,0,.342-9.137c0-.939.256-1.452-.555-1.964a2.108,2.108,0,0,0-2.647.47c-.085.085.043.256.171.171.811-.726,2.6-1.11,2.861.214a9.639,9.639,0,0,1-.043,1.921v2.007a37.4,37.4,0,0,1-.384,6.917,8.1,8.1,0,0,1-4.142,5.294,4.065,4.065,0,0,1-3.885-.3,6.62,6.62,0,0,1-2.861-3.587,10.288,10.288,0,0,1,0-1.622,13.17,13.17,0,0,1,0-1.836,1.4,1.4,0,0,1,2.391-.769c.512.555.213,1.452.3,2.178a4.465,4.465,0,0,0,.769,2.178,2.22,2.22,0,0,0,3.245.512,5.214,5.214,0,0,0,1.58-3.245,27.93,27.93,0,0,0,.213-5.337,17.844,17.844,0,0,1,.043-4.526C167.965,167.587,167.752,167.544,167.709,167.672Z" transform="translate(-159.222 -166.907)"/>
        </g>
      </g>
      <path id="path-89" data-name="path" class="cls-20" d="M172.951,180.838c.512-.3,6.789.9,8.155,2.306.256.256.043.982-.085,1.025C179.313,185.065,172.354,181.137,172.951,180.838Z" transform="translate(-92.033 -103.727)"/>
      <path id="path-90" data-name="path" class="cls-20" d="M173.262,180.012c.47-.342,6.661-.085,8.326,1.067.342.214.085,1.153-.214,1.238C179.282,182.958,172.749,180.4,173.262,180.012Z" transform="translate(-92.215 -103.2)"/>
      <path id="path-91" data-name="path" class="cls-20" d="M170.46,192.123c.47-.427,7.344.171,6.533,1.964C176.181,195.838,169.948,192.55,170.46,192.123Z" transform="translate(-90.609 -110.145)"/>
      <path id="path-92" data-name="path" class="cls-20" d="M169.078,190.43c.384-.427,6.234-1.324,8.24-.6.47.171.555.982.512,1.067C176.635,192.351,168.651,190.942,169.078,190.43Z" transform="translate(-89.824 -108.751)"/>
      <ellipse id="ellipse-19" data-name="ellipse" class="cls-6" cx="0.598" cy="0.598" rx="0.598" ry="0.598" transform="translate(50.262 54.951)"/>
      <ellipse id="ellipse-20" data-name="ellipse" class="cls-6" cx="0.342" cy="0.342" rx="0.342" ry="0.342" transform="translate(50.305 56.445)"/>
      <path id="path-93" data-name="path" class="cls-6" d="M99.73,125.434a6.046,6.046,0,1,1-6.362-5.252A5.809,5.809,0,0,1,99.73,125.434Z" transform="translate(-43.191 -68.988)"/>
      <path id="path-94" data-name="path" class="cls-6" d="M201.689,125.426a6.046,6.046,0,1,0,6.362-5.252A5.78,5.78,0,0,0,201.689,125.426Z" transform="translate(-108.516 -68.981)"/>
      <ellipse id="ellipse-21" data-name="ellipse" class="cls-7" cx="2.007" cy="2.007" rx="2.007" ry="2.007" transform="translate(49.451 54.78)"/>
      <ellipse id="ellipse-22" data-name="ellipse" class="cls-6" cx="0.342" cy="0.342" rx="0.342" ry="0.342" transform="translate(52.312 56.274)"/>
      <ellipse id="ellipse-23" data-name="ellipse" class="cls-7" cx="2.007" cy="2.007" rx="2.007" ry="2.007" transform="translate(96.46 54.609)"/>
      <ellipse id="ellipse-24" data-name="ellipse" class="cls-6" cx="0.342" cy="0.342" rx="0.342" ry="0.342" transform="translate(99.278 56.189)"/>
      <path id="path-95" data-name="path" class="cls-23" d="M168.4,96.5" transform="translate(-89.445 -55.426)"/>
      <path id="path-96" data-name="path" class="cls-24" d="M124.2,82.4" transform="translate(-64.117 -47.346)"/>
      <path id="path-97" data-name="path" class="cls-8" d="M155.5,163.981c1.494-.512,2.733-.6,3.16-.256a.388.388,0,0,1,.128.3" transform="translate(-82.053 -93.83)"/>
      <g id="group-15" data-name="group" transform="translate(103.638 57.063)">
        <g id="group-16-2" data-name="group">
          <path id="path-98" data-name="path" class="cls-7" d="M256.522,133.97q-13.129,3.33-26.3,6.7c-1.238.3-2.476.64-3.715.939a.42.42,0,0,0,.214.811q13.129-3.33,26.3-6.7c1.238-.3,2.476-.64,3.715-.939.512-.128.3-.982-.213-.811Z" transform="translate(-226.212 -133.947)"/>
        </g>
      </g>
      <g id="group-17-2" data-name="group" transform="translate(106.438 63.403)">
        <g id="group-18" data-name="group">
          <path id="path-99" data-name="path" class="cls-7" d="M263.737,148.8c-8.966,1.281-17.89,2.562-26.856,3.843-1.281.171-2.519.342-3.8.555-.555.085-.3.9.214.811,8.966-1.281,17.89-2.562,26.856-3.843,1.281-.171,2.519-.342,3.8-.555.555-.043.342-.854-.213-.811Z" transform="translate(-232.769 -148.796)"/>
        </g>
      </g>
      <g id="group-19" data-name="group" transform="translate(106.035 71.603)">
        <g id="group-20" data-name="group">
          <path id="path-100" data-name="path" class="cls-7" d="M263.2,168H232.241a.427.427,0,0,0,0,.854H263.2a.427.427,0,0,0,0-.854Z" transform="translate(-231.825 -168)"/>
        </g>
      </g>
      <g id="group-21" data-name="group" transform="translate(14.317 57.456)">
        <g id="group-22" data-name="group">
          <path id="path-101" data-name="path" class="cls-7" d="M17.306,135.693q13.129,3.33,26.3,6.7c1.238.3,2.476.64,3.715.939.512.128.769-.683.213-.811q-13.129-3.33-26.3-6.7c-1.238-.3-2.476-.64-3.715-.939a.42.42,0,0,0-.213.811Z" transform="translate(-17.012 -134.868)"/>
        </g>
      </g>
      <g id="group-23" data-name="group" transform="translate(10.84 63.826)">
        <g id="group-24" data-name="group" transform="translate(0)">
          <path id="path-102" data-name="path" class="cls-7" d="M9.181,150.6c8.966,1.281,17.89,2.562,26.856,3.843,1.281.171,2.519.342,3.8.555.555.085.769-.726.213-.811-8.966-1.281-17.89-2.562-26.856-3.843-1.281-.171-2.519-.342-3.8-.555-.512-.085-.769.726-.213.811Z" transform="translate(-8.869 -149.785)"/>
        </g>
      </g>
      <g id="group-25" data-name="group" transform="translate(10.949 71.987)">
        <g id="group-26" data-name="group">
          <path id="path-103" data-name="path" class="cls-7" d="M9.541,169.754H40.5a.427.427,0,0,0,0-.854H9.541a.427.427,0,0,0,0,.854Z" transform="translate(-9.125 -168.9)"/>
        </g>
      </g>
      <path id="path-104" data-name="path" class="cls-25" d="M226.49,38.9c3.16,11.528,3.5,20.623,1.537,22.672a2.483,2.483,0,0,1-1.238.555,12.069,12.069,0,0,1-1.2.3,4.155,4.155,0,0,0-1.793,1.025" transform="translate(-121.191 -22.419)"/>
      <path id="path-105" data-name="path" class="cls-25" d="M206.385,38.8s-5.252,15.542-3.544,20.793a2,2,0,0,0,.726.9,6.773,6.773,0,0,1,2.092,1.366" transform="translate(-108.986 -22.362)"/>
      <path id="path-106" data-name="path" class="cls-26" d="M88.19,22c-3.416-.043-8.753,28.65-4.227,29.717.47.128.9.213,1.238.3.9.256,2.007.726,2.306,1.452l-.256.171.3-.043v.043h0l.043.213-.342.213.384-.043.043.3-.384.3.427-.085.043.3-.427.384.47-.128.043.256-.47.47.512-.171.043.171-.512.512.555-.213.555,2.733,4.611-2.519-.683-2.946.085-.043H92.46l-.043-.171.213-.128-.213.043-.043-.128.3-.128-.3-.085-.043-.128v-.043l.427-.171h-.384a1.873,1.873,0,0,1,.213-.384l.171-.085h-.128a8.188,8.188,0,0,1,2.348-1.622C98.779,48.685,91.649,22.043,88.19,22Z" transform="translate(-40.063 -12.735)"/>
      <path id="path-107" data-name="path" class="cls-26" d="M211.189,23c3.416-.043,8.753,28.65,4.227,29.717-.47.128-.9.213-1.238.3-.9.256-2.007.726-2.306,1.452l.256.171-.3-.043v.043h0l-.043.213.342.256-.384-.043-.043.3.384.3-.427-.085-.043.3.427.384-.47-.128-.043.256.47.47-.512-.171-.043.171.512.512-.555-.213-.555,2.733-4.611-2.519.683-2.946-.085-.043h.085l.043-.171-.213-.128.213.043L207,54l-.3-.128.342.043.043-.128v-.043l-.427-.171h.384a1.872,1.872,0,0,0-.213-.384l-.171-.085h.128a8.189,8.189,0,0,0-2.348-1.622C200.643,49.685,207.773,23.043,211.189,23Z" transform="translate(-109.477 -13.308)"/>
      <path id="path-108" data-name="path" class="cls-2" d="M88.256,79.1s-1.836-3.587-1.494-10.5c0,0-.555,6.917.3,10.2" transform="translate(-42.563 -39.438)"/>
      <path id="path-109" data-name="path" class="cls-2" d="M87.336,22s-1.708,1.281-3.33,8.07q-.256,1.025-.512,2.306c-1.751,8.8-2.049,14.987-1.153,17.847,0,0,.384,1.751,1.964,1.836A78.393,78.393,0,0,1,87.336,22Z" transform="translate(-39.849 -12.735)"/>
      <path id="path-110" data-name="path" class="cls-27" d="M210.469,38.663c1.537-.085,3.2-.128,4.91-.085,1.025,0,2.049.043,2.989.128.3.982.555,2.007.854,3.074.171.726.342,1.409.47,2.092a24.9,24.9,0,0,0-3.8-1.58,24.091,24.091,0,0,0-6.191-1.11C209.956,40.328,210.212,39.517,210.469,38.663Z" transform="translate(-113.112 -22.225)"/>
      <path id="path-111" data-name="path" class="cls-27" d="M93.862,41.283a23.643,23.643,0,0,0-3.715.9h0A10.279,10.279,0,0,0,85.024,40.9c-.256,1.153-.512,2.348-.769,3.629-.213,1.067-.384,2.135-.555,3.16a16.381,16.381,0,0,1,4.739-2.818,16.011,16.011,0,0,1,6.191-1.11C94.374,42.948,94.118,42.137,93.862,41.283Z" transform="translate(-40.91 -23.564)"/>
      <path id="path-112" data-name="path" class="cls-24" d="M148.6,91.873c-3.715-.3-6.661-4.27-6.661-4.27-3.544-1.622-8.155,5-13.578,2.391a6.633,6.633,0,0,1-2.178-1.708c-1.708-2.178-.811-4.7-2.434-5.636a3.807,3.807,0,0,0-1.452-.342c0-.128,3.031-.512,17.378-1.409" transform="translate(-63.029 -46.486)"/>
      <path id="path-113" data-name="path" class="cls-24" d="M138.7,83.984c.085.3.171.6.256.854A8.562,8.562,0,0,0,155.7,81.849s-4.611-3.031-9.735-2.6-4.056,1.2-7.771.683c-2.946-.384-5.38-.6-7.472-.683h-.427c-4.1-.085-10.034.982-10.674,3.715a2.215,2.215,0,0,0-.043.811,8.531,8.531,0,0,1,.9-.171c.3-.043.726-.128,1.2-.171a10.193,10.193,0,0,1,1.622,0,2.3,2.3,0,0,0-1.751-2.049,1.721,1.721,0,0,0-.982.213" transform="translate(-61.458 -45.514)"/>
      <path id="path-114" data-name="path" class="cls-24" d="M161.3,73.934s1.025-.342,1.025-5a.509.509,0,0,1,.085-.256c.085-.128.128-.213.3-.128.3.171-.171,5.081,0,5.38a7.413,7.413,0,0,0,.427.64" transform="translate(-85.377 -39.392)"/>
      <path id="path-115" data-name="path" class="cls-28" d="M119.7,86.64a2.779,2.779,0,0,1,.384-1.494,1.94,1.94,0,0,1,.726-.726,1.71,1.71,0,0,1,1.025.043,2.177,2.177,0,0,1,1.366,1.793,11.451,11.451,0,0,0-1.665.085A11,11,0,0,0,119.7,86.64Z" transform="translate(-61.539 -48.469)"/>
      <path id="path-116" data-name="path" class="cls-24" d="M163.1,82.4" transform="translate(-86.408 -47.346)"/>
      <path id="path-117" data-name="path" class="cls-24" d="M163.1,82.4" transform="translate(-86.408 -47.346)"/>
      <path id="path-118" data-name="path" class="cls-29" d="M68.6,18.745s8.369-2.818,12.937,0a84,84,0,0,1,38.769-.6,66.624,66.624,0,0,1,29.247-.085,31.049,31.049,0,0,1,16.225.6S161.679.3,117.189.3,68.6,18.745,68.6,18.745Z" transform="translate(-32.257 -0.3)"/>
      <path id="path-119" data-name="path" class="cls-30" d="M141.654,17.766C127.436,15.5,119.879,7.348,119.879,7.348c-7.771,1.238-14.773-4.1-16.139-5.252-.171-.128-.555-.085-1.2.043C97.463,2.95,73.766,5.683,68.6,19.773c0,0,7.984-2.818,12.937,0,0,0,16.011-5.294,38.769-.6A64.45,64.45,0,0,1,141.654,17.766Z" transform="translate(-32.257 -1.285)"/>
      <path id="path-120" data-name="path" class="cls-17" d="M109.579,6.4s-8.241,3.245-9.479,13.919" transform="translate(-50.307 -3.795)"/>
      <path id="path-121" data-name="path" class="cls-17" d="M185.2,2.5s2.092,2.775,2.092,13.834" transform="translate(-99.072 -1.561)"/>
      <path id="path-122" data-name="path" class="cls-31" d="M244.8,7.7s4.867,5.465,5.679,11.016" transform="translate(-133.225 -4.54)"/>
      <g id="group-27-2" data-name="group" transform="translate(84.292 17.11)">
        <path id="path-123" data-name="path" class="cls-30" d="M181.967,41.112l.213,52.261H180.9V40.6Z" transform="translate(-180.9 -40.503)"/>
        <g id="group-28" data-name="group" transform="translate(0.128)">
          <path id="path-124" data-name="path" class="cls-7" d="M182.139,40.854c0,6.106.043,12.211.043,18.317.043,9.436.043,18.915.085,28.351v3.971c0,.3.171,1.238,0,1.537.128-.213-.982-.171-.854,0V92.9a2.863,2.863,0,0,1,0-.854V43.032a17.109,17.109,0,0,0,0-2.092v-.171c.043-.256-.171-.171.171-.043l.64.256c.128.043.171-.171.043-.213-.3-.128-.64-.256-.939-.384-.085-.043-.128.043-.128.085V93.03a.092.092,0,0,0,.085.085h1.067c.043,0,.128-.043.085-.085,0-5.849-.043-11.742-.043-17.591-.043-9.393-.043-18.787-.085-28.18V40.811C182.353,40.726,182.139,40.726,182.139,40.854Z" transform="translate(-181.2 -40.373)"/>
        </g>
      </g>
      <path id="path-125" data-name="path" class="cls-17" d="M193.8,103.3" transform="translate(-104 -59.322)"/>
      <path id="path-126" data-name="path" class="cls-17" d="M141.3,103.3" transform="translate(-73.916 -59.322)"/>
      <path id="path-127" data-name="path" class="cls-10" d="M147.493,135.211c-.3-2.007,12-2.6,11.784.214C159.149,137.688,147.834,137.218,147.493,135.211Z" transform="translate(-77.462 -76.631)"/>
      <path id="path-128" data-name="path" class="cls-11" d="M149.991,137.367c-.47-.3-.256-.427-.256-.683.171-2.263,11.187-1.281,10.589,0s-2.562.939-3.288,1.366a3.5,3.5,0,0,1-1.751.726c-.9.085-1.025-.47-2.263-.683A11.741,11.741,0,0,1,149.991,137.367Z" transform="translate(-78.722 -77.676)"/>
    </g>
  </g>
</svg>
