<?xml version="1.0" encoding="utf-8"?>
<!-- Generator: Adobe Illustrator 19.2.1, SVG Export Plug-In . SVG Version: 6.00 Build 0)  -->
<svg version="1.1" xmlns="http://www.w3.org/2000/svg" xmlns:xlink="http://www.w3.org/1999/xlink" x="0px" y="0px"
	 viewBox="0 0 900 545" style="enable-background:new 0 0 900 545;" xml:space="preserve">
<style type="text/css">
	.st0{fill:#424449;stroke:#050606;stroke-width:0.25;stroke-miterlimit:10;}
	.st1{fill:#63544B;}
	.st2{fill:#816756;}
	.st3{fill:#FCFCC0;}
	.st4{fill:#E0DEAF;}
	.st5{fill:#FBFBF8;}
	.st6{fill:#050606;}
	.st7{fill:none;stroke:#010101;stroke-width:0.75;stroke-miterlimit:10;}
	.st8{fill:#816756;stroke:#816756;stroke-miterlimit:10;}
	.st9{fill:none;stroke:#222222;stroke-width:0.5;stroke-miterlimit:10;}
	.st10{fill:#FCFCC0;stroke:#222222;stroke-width:0.5;stroke-miterlimit:10;}
	.st11{fill:#816756;stroke:#222222;stroke-width:0.5;stroke-miterlimit:10;}
	.st12{fill:#63544B;stroke:#222222;stroke-width:0.5;stroke-miterlimit:10;}
	.st13{fill:#635578;stroke:#050606;stroke-width:0.5;stroke-miterlimit:10;}
	.st14{fill:none;stroke:#050606;stroke-width:0.75;stroke-miterlimit:10;}
	.st15{fill:#635578;stroke:#050606;stroke-miterlimit:10;}
	.st16{fill:#816756;stroke:#222222;stroke-miterlimit:10;}
	.st17{fill:#424449;stroke:#222222;stroke-width:0.25;stroke-miterlimit:10;}
	.st18{fill:#B0AFB4;stroke:#050606;stroke-width:0.5;stroke-miterlimit:10;}
	.st19{fill:#2B4748;}
	.st20{fill:#FBFBF8;stroke:#000000;stroke-miterlimit:10;}
	.st21{fill:#5D7B3B;stroke:#000000;stroke-width:0.5;stroke-miterlimit:10;}
	.st22{fill:none;stroke:#050606;stroke-miterlimit:10;}
	.st23{fill:#63544B;stroke:#63544B;stroke-miterlimit:10;}
	.st24{fill:#473D37;}
	.st25{fill:#2F3E1E;}
	.st26{fill:#2F3030;}
	.st27{fill:#010101;}
	.st28{fill:#E2E2E2;}
	.st29{fill:#2F3030;stroke:#2F3030;stroke-width:0.5;stroke-miterlimit:10;}
	.st30{fill:#837090;stroke:#050606;stroke-width:0.5;stroke-miterlimit:10;}
	.st31{fill:#635578;}
	.st32{fill:#837090;stroke:#050606;stroke-width:0.75;stroke-miterlimit:10;}
</style>
<g id="Layer_10">
	<path class="st0" d="M491.9,382.1c-1-1.3-0.1-22.1,4.2-20.4C500.3,363.4,492.9,383.4,491.9,382.1z"/>
	<path class="st0" d="M492.9,388.1c-1-1.3-0.1-22.1,4.2-20.4C501.3,369.4,493.9,389.4,492.9,388.1z"/>
	<path class="st0" d="M496.9,390.1c-1-1.3-0.1-22.1,4.2-20.4C505.3,371.4,497.9,391.4,496.9,390.1z"/>
	<path class="st0" d="M504,393.3c-1.2-1.1-4.5-21.6,0-20.8C508.5,373.3,505.2,394.4,504,393.3z"/>
	
		<ellipse transform="matrix(0.2898 -0.9571 0.9571 0.2898 84.1583 715.8527)" class="st1" cx="524.4" cy="301.2" rx="79.3" ry="40.7"/>
	<path class="st0" d="M782.9,382.1c1-1.3,0.1-22.1-4.2-20.4C774.5,363.4,781.9,383.4,782.9,382.1z"/>
	<path class="st0" d="M781.9,388.1c1-1.3,0.1-22.1-4.2-20.4C773.5,369.4,780.9,389.4,781.9,388.1z"/>
	<path class="st0" d="M777.9,390.1c1-1.3,0.1-22.1-4.2-20.4C769.5,371.4,776.9,391.4,777.9,390.1z"/>
	<path class="st0" d="M770.8,393.3c1.2-1.1,4.5-21.6,0-20.8C766.3,373.3,769.6,394.4,770.8,393.3z"/>
	
		<ellipse transform="matrix(0.9571 -0.2898 0.2898 0.9571 -55.0196 230.8586)" class="st2" cx="751.9" cy="301.2" rx="40.7" ry="79.3"/>
</g>
<g id="Layer_11">
	<ellipse class="st1" cx="589.9" cy="365.2" rx="82.6" ry="125.1"/>
	<ellipse class="st2" cx="684.7" cy="365.2" rx="82.6" ry="125.1"/>
	<path class="st1" d="M552.2,474.1c0,0,7.8,12.2,9.8,14.5s66.2,1.7,71.1,0.7c5.9-1.2,15-20,5.9-13.5"/>
	<path class="st2" d="M722.1,474c0,0-4.4,13.4-6.4,13.9c-14.1,3.6-68.3,2.5-73.4,1.4c-5.9-1.3-14.8-20.1-5.9-13.6"/>
	<path class="st0" d="M574.7,491.1c0.7-1.4,17.1-7.9,17.3-3.3S574.1,492.5,574.7,491.1z"/>
	<path class="st0" d="M555.7,489.1c0.5-1.4,13.4-7.2,13.8-2.7C569.8,491,555.2,490.5,555.7,489.1z"/>
	<path class="st0" d="M562.2,490.7c0.6-1.4,17.1-8.4,17.4-3.9S561.6,492.1,562.2,490.7z"/>
	<path class="st0" d="M704,490.1c-0.7-1.4-17.1-7.9-17.3-3.3C686.5,491.3,704.7,491.5,704,490.1z"/>
	<path class="st0" d="M723,488.1c-0.5-1.4-13.4-7.2-13.8-2.7C709,490,723.5,489.5,723,488.1z"/>
	<path class="st0" d="M716.5,489.7c-0.6-1.4-17.1-8.4-17.4-3.9C698.8,490.3,717.1,491.1,716.5,489.7z"/>
	<path class="st1" d="M569.8,154.6c-27.7,21.1-38.5,57.1-38.5,57.1L512,259.8c-25.2,53.6-6,114.2-6,114.2s10,41.6,47.1,73.4
		s80.2,31.1,80.2,31.1c0.6,2,1.4,3.5,2.1,4.5c0.6,1,1.8,2.9,3.9,4.5c0,0,1.1,0.7,2.2,1.5c1.9,1.2,30.3,1.3,30.3,1.3
		c-5.7-14.2,5.5-18.6,5.5-18.6c-18.1-3.4-65.3-14.7-101.5-56.3c-43.2-49.7-53.6-122.8-28.5-190.1c0.6-11.1,2.7-26.7,9.5-44
		c4.5-11.3,9.9-20.5,14.7-27.6l0.4-0.6L569.8,154.6z"/>
</g>
<g id="Layer_2">
	<path class="st2" d="M758.6,253.2l-15-36.7c-18-55.9-51.2-73.1-75.9-77.6c-9.4-2.4-19.9-3.7-31-3.7c-11.1,0-21.5,1.3-30.9,3.7
		c-21.4,3.9-49.4,17.3-68.2,57.6l0,0c-2.2,4.7-4.3,9.8-6.2,15.3L511.3,261c-0.2,0.5-0.4,1-0.6,1.5l0,0
		c-7.6,19.1-11.9,40.2-11.9,62.4c0,84.8,61.7,153.5,137.9,153.5S774.6,409.8,774.6,325C774.6,299.1,768.8,274.6,758.6,253.2z"/>
	<path class="st1" d="M569.8,154.6C550,180.9,552.7,229,552.7,229c-29.4,60.1-20.4,130.4,21.7,176.2c49.5,53.8,120.9,48,129.4,47.2
		c-10.2,11.1-20.5,16.8-26.9,19.6c-18.6,8.3-35.5,7.2-47.2,6.6c-3.3-0.2-14.5-1-28.5-5.1c-21.2-6.2-35.9-16.3-42.9-21.5
		c-18.7-14.1-28.7-29.4-33.9-37.6c-4.6-7.2-24-38.9-25.9-84.6c-2-48.6,16.9-84.8,25.9-99.9c0,0,15.2-51.9,41.3-71.9
		c0.6-0.5,1.2-1,1.8-1.5C568.3,155.8,569.1,155.2,569.8,154.6z"/>
</g>
<g id="Left_Foot">
</g>
<g id="Right_Foot">
</g>
<g id="Layer_1">
	<ellipse class="st3" cx="636.7" cy="347.9" rx="119.4" ry="126.1"/>
	<path class="st4" d="M537.4,277.9c0,0,2.9,174.9,166.4,174.5c0,0-51.4,41.6-116.6,10.3s-69.3-100.3-69.3-100.3
		S511.7,316.9,537.4,277.9z"/>
</g>
<g id="Layer_3">
	<path class="st2" d="M646.4,288.5c-3.1-2.6-6.2-4.4-8.5-4.9c-1.8-1-6.5,1.2-11.1,5.4c-5.1,4.6-8.1,9.7-6.9,11.5
		c0.6,0.9,5.4-1.6,8-3c8.7-5.9,16.7-0.9,17.7-0.4c2.6,1.3,7.1,3.4,7.7,2.5C654.6,297.7,651.4,292.7,646.4,288.5z"/>
	<path class="st2" d="M689.5,290.8c-3-2.7-6.1-4.6-8.3-5.2c-1.7-1.1-6.5,1-11.2,5c-5.2,4.4-8.4,9.5-7.2,11.3
		c0.6,0.9,5.4-1.4,8.1-2.8c8.9-5.6,16.7-0.4,17.7,0.2c2.5,1.4,7,3.6,7.6,2.8C697.4,300.2,694.4,295.2,689.5,290.8z"/>
	<path class="st2" d="M733.6,299.3c-2.9-2.9-5.8-4.9-8-5.7c-1.7-1.2-6.5,0.6-11.5,4.4c-5.5,4.1-9,9-7.8,10.9
		c0.6,0.9,5.5-1.1,8.2-2.3c9.2-5.1,16.7,0.6,17.7,1.2c2.4,1.5,6.7,4,7.4,3.2C741,309.2,738.3,304,733.6,299.3z"/>
	<path class="st2" d="M584,290.8c3-2.7,6.1-4.6,8.3-5.2c1.7-1.1,6.5,1,11.2,5c5.2,4.4,8.4,9.5,7.2,11.3c-0.6,0.9-5.4-1.4-8.1-2.8
		c-8.9-5.6-16.7-0.4-17.7,0.2c-2.5,1.4-7,3.6-7.6,2.8C576,300.2,579,295.2,584,290.8z"/>
	<path class="st2" d="M539.8,297.3c2.9-2.9,5.8-4.9,8-5.7c1.7-1.2,6.5,0.6,11.5,4.4c5.5,4.1,9,9,7.8,10.9c-0.6,0.9-5.5-1.1-8.2-2.3
		c-9.2-5.1-16.7,0.6-17.7,1.2c-2.4,1.5-6.7,4-7.4,3.2C532.4,307.2,535.1,302,539.8,297.3z"/>
	<path class="st2" d="M623.4,250.5c-3.1-2.6-6.2-4.4-8.5-4.9c-1.8-1-6.5,1.2-11.1,5.4c-5.1,4.6-8.1,9.7-6.9,11.5
		c0.6,0.9,5.4-1.6,8-3c8.7-5.9,16.7-0.9,17.7-0.4c2.6,1.3,7.1,3.4,7.7,2.5C631.6,259.7,628.4,254.7,623.4,250.5z"/>
	<path class="st2" d="M579.4,259.5c-3.1-2.6-6.2-4.4-8.5-4.9c-1.8-1-6.5,1.2-11.1,5.4c-5.1,4.6-8.1,9.7-6.9,11.5
		c0.6,0.9,5.4-1.6,8-3c8.7-5.9,16.7-0.9,17.7-0.4c2.6,1.3,7.1,3.4,7.7,2.5C587.6,268.7,584.4,263.7,579.4,259.5z"/>
	<path class="st2" d="M668.4,250.5c-3.1-2.6-6.2-4.4-8.5-4.9c-1.8-1-6.5,1.2-11.1,5.4c-5.1,4.6-8.1,9.7-6.9,11.5
		c0.6,0.9,5.4-1.6,8-3c8.7-5.9,16.7-0.9,17.7-0.4c2.6,1.3,7.1,3.4,7.7,2.5C676.6,259.7,673.4,254.7,668.4,250.5z"/>
	<path class="st2" d="M711.4,259.5c-3.1-2.6-6.2-4.4-8.5-4.9c-1.8-1-6.5,1.2-11.1,5.4c-5.1,4.6-8.1,9.7-6.9,11.5
		c0.6,0.9,5.4-1.6,8-3c8.7-5.9,16.7-0.9,17.7-0.4c2.6,1.3,7.1,3.4,7.7,2.5C719.6,268.7,716.4,263.7,711.4,259.5z"/>
	<path class="st1" d="M539.2,297.9l1.3,8.2c0,0-5.4,3.4-6.6,2.9C534,309.1,530.9,307,539.2,297.9z"/>
</g>
<g id="Umbrella">
</g>
<g id="Right_Arm">
</g>
<g id="Right_Claw_Back">
</g>
<g id="Umbrella_Handle">
</g>
<g id="Right_Claws">
</g>
<g id="Eyes">
</g>
<g id="Whiskers">
</g>
<g id="Layer_4">
	<path class="st5" d="M592.1,181.9c0.4,6-4.6,11.3-11,11.7c-6.4,0.4-11.9-4.2-12.3-10.2s4.6-11.3,11-11.7
		C586.3,171.3,591.8,175.9,592.1,181.9z"/>
	<ellipse class="st5" cx="581.7" cy="180.2" rx="1.4" ry="1.4"/>
	<ellipse class="st5" cx="581.1" cy="183" rx="0.8" ry="0.8"/>
	<path class="st5" d="M682.9,181.9c-0.4,6,4.6,11.3,11,11.7c6.4,0.4,11.9-4.2,12.3-10.2s-4.6-11.3-11-11.7
		C688.7,171.3,683.2,175.9,682.9,181.9z"/>
	<circle class="st6" cx="693" cy="181.9" r="5.3"/>
	<ellipse class="st5" cx="693.3" cy="180.2" rx="1.4" ry="1.4"/>
	<ellipse class="st5" cx="693.9" cy="183" rx="0.8" ry="0.8"/>
	<circle class="st6" cx="582.4" cy="181.9" r="5.3"/>
	<ellipse class="st5" cx="582.7" cy="180.2" rx="1.4" ry="1.4"/>
	<ellipse class="st5" cx="583.3" cy="183.1" rx="0.8" ry="0.8"/>
</g>
<g id="Layer_5">
	<path class="st7" d="M634.6,214.4c3.5-1.2,6.4-1.4,7.4-0.6c0.2,0.2,0.3,0.4,0.3,0.7"/>
</g>
<g id="Layer_9">
	<g>
		<g>
			<path class="st6" d="M776.2,183.7c-20.5,5.2-41,10.4-61.6,15.7c-2.9,0.7-5.8,1.5-8.7,2.2c-1.2,0.3-0.7,2.2,0.5,1.9
				c20.5-5.2,41-10.4,61.6-15.7c2.9-0.7,5.8-1.5,8.7-2.2C778,185.3,777.5,183.4,776.2,183.7L776.2,183.7z"/>
		</g>
	</g>
	<g>
		<g>
			<path class="st6" d="M784.4,198.6c-21,3-41.9,6-62.9,9c-3,0.4-5.9,0.8-8.9,1.3c-1.3,0.2-0.7,2.1,0.5,1.9c21-3,41.9-6,62.9-9
				c3-0.4,5.9-0.8,8.9-1.3C786.2,200.3,785.6,198.4,784.4,198.6L784.4,198.6z"/>
		</g>
	</g>
	<g>
		<g>
			<path class="st6" d="M784.4,217.8c-21.2,0-42.4,0-63.5,0c-3,0-6,0-9,0c-1.3,0-1.3,2,0,2c21.2,0,42.4,0,63.5,0c3,0,6,0,9,0
				C785.7,219.8,785.7,217.8,784.4,217.8L784.4,217.8z"/>
		</g>
	</g>
	<g>
		<g>
			<path class="st6" d="M496.8,186.6c20.5,5.2,41,10.4,61.6,15.7c2.9,0.7,5.8,1.5,8.7,2.2c1.2,0.3,1.8-1.6,0.5-1.9
				c-20.5-5.2-41-10.4-61.6-15.7c-2.9-0.7-5.8-1.5-8.7-2.2C496.1,184.4,495.5,186.3,496.8,186.6L496.8,186.6z"/>
		</g>
	</g>
	<g>
		<g>
			<path class="st6" d="M488.7,201.5c21,3,41.9,6,62.9,9c3,0.4,5.9,0.8,8.9,1.3c1.3,0.2,1.8-1.7,0.5-1.9c-21-3-41.9-6-62.9-9
				c-3-0.4-5.9-0.8-8.9-1.3C487.9,199.4,487.4,201.3,488.7,201.5L488.7,201.5z"/>
		</g>
	</g>
	<g>
		<g>
			<path class="st6" d="M489.2,220.7c21.2,0,42.4,0,63.5,0c3,0,6,0,9,0c1.3,0,1.3-2,0-2c-21.2,0-42.4,0-63.5,0c-3,0-6,0-9,0
				C487.9,218.7,487.9,220.7,489.2,220.7L489.2,220.7z"/>
		</g>
	</g>
</g>
<g id="Layer_6">
	<path class="st8" d="M575.3,71.8c-8-0.1-20.5,67.1-9.9,69.6c1.1,0.3,2.1,0.5,2.9,0.7c2.1,0.6,4.7,1.7,5.4,3.4l-0.6,0.4l0.7-0.1
		c0,0,0,0.1,0,0.1l0,0l0.1,0.5l-0.8,0.6l0.9-0.1l0.1,0.7l-0.9,0.7l1-0.2l0.1,0.7l-1,0.9l1.1-0.3l0.1,0.6l-1.1,1.1l1.2-0.4l0.1,0.4
		l-1.2,1.2l1.3-0.5l1.3,6.4l10.8-5.9l-1.6-6.9l0.2-0.1l-0.2,0l-0.1-0.4l0.5-0.3l-0.5,0.1l-0.1-0.3l0.7-0.3l-0.8,0.1l-0.1-0.3
		c0,0,0-0.1,0-0.1l1-0.4l-0.9,0c0.1-0.2,0.2-0.5,0.5-0.9l0.4-0.2l-0.3,0c0.8-0.9,2.4-2.2,5.5-3.8C600,134.2,583.3,71.9,575.3,71.8z"
		/>
	<path class="st8" d="M700.8,72.8c8-0.1,20.5,67.1,9.9,69.6c-1.1,0.3-2.1,0.5-2.9,0.7c-2.1,0.6-4.7,1.7-5.4,3.4l0.6,0.4l-0.7-0.1
		c0,0,0,0.1,0,0.1l0,0l-0.1,0.5l0.8,0.6l-0.9-0.1l-0.1,0.7l0.9,0.7l-1-0.2l-0.1,0.7l1,0.9l-1.1-0.3l-0.1,0.6l1.1,1.1l-1.2-0.4
		l-0.1,0.4l1.2,1.2l-1.3-0.5l-1.3,6.4l-10.8-5.9l1.6-6.9l-0.2-0.1l0.2,0l0.1-0.4l-0.5-0.3l0.5,0.1l0.1-0.3l-0.7-0.3l0.8,0.1l0.1-0.3
		c0,0,0-0.1,0-0.1l-1-0.4l0.9,0c-0.1-0.2-0.2-0.5-0.5-0.9l-0.4-0.2l0.3,0c-0.8-0.9-2.4-2.2-5.5-3.8C676,135.2,692.7,72.9,700.8,72.8
		z"/>
	<path class="st1" d="M573.8,71.8c0,0-4.9,3.6-9,24.3s-4.8,35.1-2.7,41.8c0,0,0.9,4.1,4.6,4.3C566.7,142.2,562.2,110.1,573.8,71.8z"
		/>
	<path class="st1" d="M569.5,143c0,0-4.3-8.4-3.5-24.6c0,0-1.3,16.2,0.7,23.9"/>
	<path class="st1" d="M699.3,72.8c-8.1,16.5-14.8,38.2-12.2,62.6c0.2,2.1,0.5,4.2,0.9,6.3l-2.3-1.4c0,0-1.2-0.5-1.6-0.8
		c-0.4-0.3-2.8-1.8-2.2-11.5c0,0,0.6-12,5.2-27.7c0,0,4-14.6,8.7-23.1c0.1-0.2,0.3-0.5,0.6-0.9c1.3-2,2-2.6,2.3-2.9
		C698.9,73.1,699.1,72.9,699.3,72.8z"/>
</g>
<g id="Leaf">
</g>
<g id="Smiling_Face">
</g>
<g id="Umbrella_Top">
	<g>
		<path class="st0" d="M119.9,386.1c-1-1.3-0.1-22.1,4.2-20.4C128.3,367.4,120.9,387.4,119.9,386.1z"/>
		<path class="st0" d="M120.9,392.1c-1-1.3-0.1-22.1,4.2-20.4C129.3,373.4,121.9,393.4,120.9,392.1z"/>
		<path class="st0" d="M124.9,394.1c-1-1.3-0.1-22.1,4.2-20.4C133.3,375.4,125.9,395.4,124.9,394.1z"/>
		<path class="st0" d="M132,397.3c-1.2-1.1-4.5-21.6,0-20.8C136.5,377.3,133.2,398.4,132,397.3z"/>
		
			<ellipse transform="matrix(0.2898 -0.9571 0.9571 0.2898 -183.8561 362.6595)" class="st1" cx="152.4" cy="305.2" rx="79.3" ry="40.7"/>
		<ellipse class="st1" cx="217.9" cy="369.2" rx="82.6" ry="125.1"/>
		<ellipse class="st2" cx="312.7" cy="369.2" rx="82.6" ry="125.1"/>
		<path class="st1" d="M180.2,478.1c0,0,7.8,12.2,9.8,14.5c2.1,2.3,66.2,1.7,71.1,0.7c5.9-1.2,15-20,5.9-13.5"/>
		<path class="st2" d="M350.1,478c0,0-4.4,13.4-6.4,13.9c-14.1,3.6-68.3,2.5-73.4,1.4c-5.9-1.3-14.8-20.1-5.9-13.6"/>
		<path class="st1" d="M197.8,158.6c-27.7,21.1-38.5,57.1-38.5,57.1L140,263.8c-25.2,53.6-6,114.2-6,114.2s10,41.6,47.1,73.4
			s80.2,31.1,80.2,31.1c0.4,1.3,1,2.9,2.1,4.5c0,0,2.2,3.5,6.3,6c4.8,2.9,61.9,2.3,74.4-1.9c1.3-1,2-2.4,2.5-4.1
			c0.6-2.1,1.6-3.7,2-5.2c-1.9-1.1-4.6-2.9-7.2-5.8c-1.2-1.3-3.5-3.8-5-7.2c-2.7-6.2-1.6-12.3-0.9-15.1
			c-8.9,1.6-79.2,13.5-131.6-34.2c-49.1-44.6-62-122.7-28.5-190.1c0.6-11.1,2.7-26.7,9.5-44c4.5-11.3,9.9-20.5,14.7-27.6l0.4-0.6
			L197.8,158.6z"/>
		<path class="st2" d="M386.6,254.4l-15-35.9c-18-54.6-51.2-71.3-75.9-75.8c-9.4-2.3-19.9-3.6-31-3.6c-11.1,0-21.5,1.3-30.9,3.6
			c-21.4,3.8-49.4,16.9-68.2,56.2l0,0c-2.2,4.6-4.3,9.6-6.2,15c-4.2,15.2-11.5,31.4-20.1,48.1c-0.2,0.5-0.4,1-0.6,1.5l0,0
			c-7.6,18.6-11.9,39.3-11.9,61c0,82.8,61.7,149.9,137.9,149.9s137.9-67.1,137.9-149.9C402.6,299.2,396.8,275.3,386.6,254.4z"/>
		<path class="st1" d="M334.3,160.5c-8.6,3.9-27.4,14-40.7,35.5c-7.2,11.6-10.4,22.7-11.9,30.5c-85.7,38.6-111.5,131.3-79.4,182.7
			c22.7,36.3,75.5,54.2,129.9,44.4c-1.7,9.6-5.6,15.1-8.2,18.1c-13.2,14.7-37.6,13.5-66.3,10.9c-6.6-0.6-16.3-1.5-28.5-5.1
			c-21.2-6.2-35.9-16.3-42.9-21.5c-18.7-14.1-28.7-29.4-33.9-37.6c-4.6-7.2-24-38.9-25.9-84.6c-2-48.6,16.9-84.8,25.9-99.9
			c2.5-13.2,10.8-47.4,41.3-71.9c2.6-2.1,12.1-9,24.4-14.8C268.3,123.6,323.9,149.8,334.3,160.5z"/>
		<path class="st9" d="M201.6,156c0,0-37,20.7-49.2,77.9c-3.8,2.7-8.9,6.8-14.1,12.5c0,0-12.7,14.2-20.3,34.3
			c-14.1,37-17.8,87.7,11.5,100.5c0,0,2.4,1.3,6.1,0.9"/>
		<path class="st9" d="M316.7,149.6c0,0-3.9-2-6.3-2.9"/>
		<path class="st9" d="M331.7,158.1c0,0,28.8,21.1,39.8,60.3c1.7,6.1,15.8,36.7,18.5,43.7c1.3,3.3,2.2,5.8,2.4,6.2
			c13.3,31.1,12.3,80,2.5,103.7c-2.3,58.6-21.5,89-46.3,109.8c0,0-2.7,9-4.9,10.2c-2.2,1.2-63.3,5.8-74.1,1.1
			c-3.6-1.6-4.1-3.2-4.1-3.2c0-2.5,0-7.8,0-7.8"/>
		<path class="st9" d="M265.5,489.8c0,0-2.5,3.9-4.4,3.5c-1.7,0.1-70.5,2.6-70.8,0.9c-0.3-1.6-7.5-11.8-7.5-11.8
			c-58-41.9-47.4-141.4-47.4-141.4s0.5-31.1,10.4-65.4"/>
		<path class="st0" d="M182.7,494.1c0.5-1.4,13.4-7.2,13.8-2.7C196.8,496,182.2,495.5,182.7,494.1z"/>
		<path class="st0" d="M190.2,495.7c0.6-1.4,17.1-8.4,17.4-3.9C207.9,496.3,189.6,497.1,190.2,495.7z"/>
		<path class="st0" d="M200.7,496.1c0.7-1.4,17.1-7.9,17.3-3.3C218.2,497.3,200.1,497.5,200.7,496.1z"/>
		<path class="st0" d="M352,493.1c-0.5-1.4-13.4-7.2-13.8-2.7C338,495,352.5,494.5,352,493.1z"/>
		<path class="st0" d="M345.5,494.7c-0.6-1.4-17.1-8.4-17.4-3.9C327.8,495.3,346.1,496.1,345.5,494.7z"/>
		<path class="st0" d="M335,495.1c-0.7-1.4-17.1-7.9-17.3-3.3C317.5,496.3,335.7,496.5,335,495.1z"/>
		<ellipse class="st10" cx="264.7" cy="351.9" rx="119.4" ry="126.1"/>
		<path class="st4" d="M281.3,227.3c-3.7,5.7-50.3,81.2-14.3,157.7c19.2,40.9,52.4,61.6,66.8,69.4c-2.2,1.6-5.3,3.7-9.1,6
			c-5.9,3.7-14.5,8.2-25.4,11.8c-40.9,13.7-77.3-2.6-82.8-5.4c-1.1,0.4-61.3-27-69.7-98.8c-0.1-1.3-0.3-2.7-0.3-2.7
			c-4.6-40.7,13.6-73.1,16.5-78c5.2-8.9,20.9-35.1,54.3-50.3C245,224.4,270.3,226,281.3,227.3z"/>
		<path class="st11" d="M274.4,292.5c-3.1-2.6-6.2-4.4-8.5-4.9c-1.8-1-6.5,1.2-11.1,5.4c-5.1,4.6-8.1,9.7-6.9,11.5
			c0.6,0.9,5.4-1.6,8-3c8.7-5.9,16.7-0.9,17.7-0.4c2.6,1.3,7.1,3.4,7.7,2.5C282.6,301.7,279.4,296.7,274.4,292.5z"/>
		<path class="st11" d="M317.5,294.8c-3-2.7-6.1-4.6-8.3-5.2c-1.7-1.1-6.5,1-11.2,5c-5.2,4.4-8.4,9.5-7.2,11.3
			c0.6,0.9,5.4-1.4,8.1-2.8c8.9-5.6,16.7-0.4,17.7,0.2c2.5,1.4,7,3.6,7.6,2.8C325.4,304.2,322.4,299.2,317.5,294.8z"/>
		<path class="st2" d="M361.6,303.3c-2.9-2.9-5.8-4.9-8-5.7c-1.7-1.2-6.5,0.6-11.5,4.4c-5.5,4.1-9,9-7.8,10.9
			c0.6,0.9,5.5-1.1,8.2-2.3c9.2-5.1,16.7,0.6,17.7,1.2c2.4,1.5,6.7,4,7.4,3.2C369,313.2,366.3,308,361.6,303.3z"/>
		<path class="st12" d="M212,294.8c3-2.7,6.1-4.6,8.3-5.2c1.7-1.1,6.5,1,11.2,5c5.2,4.4,8.4,9.5,7.2,11.3c-0.6,0.9-5.4-1.4-8.1-2.8
			c-8.9-5.6-16.7-0.4-17.7,0.2c-2.5,1.4-7,3.6-7.6,2.8C204,304.2,207,299.2,212,294.8z"/>
		<path class="st12" d="M167.8,301.3c2.9-2.9,5.8-4.9,8-5.7c1.7-1.2,6.5,0.6,11.5,4.4c5.5,4.1,9,9,7.8,10.9
			c-0.6,0.9-5.5-1.1-8.2-2.3c-9.2-5.1-16.7,0.6-17.7,1.2c-2.4,1.5-6.7,4-7.4,3.2C160.4,311.2,163.1,306,167.8,301.3z"/>
		<path class="st12" d="M251.4,254.5c-3.1-2.6-6.2-4.4-8.5-4.9c-1.8-1-6.5,1.2-11.1,5.4c-5.1,4.6-8.1,9.7-6.9,11.5
			c0.6,0.9,5.4-1.6,8-3c8.7-5.9,16.7-0.9,17.7-0.4c2.6,1.3,7.1,3.4,7.7,2.5C259.6,263.7,256.4,258.7,251.4,254.5z"/>
		<path class="st12" d="M207.4,263.5c-3.1-2.6-6.2-4.4-8.5-4.9c-1.8-1-6.5,1.2-11.1,5.4c-5.1,4.6-8.1,9.7-6.9,11.5
			c0.6,0.9,5.4-1.6,8-3c8.7-5.9,16.7-0.9,17.7-0.4c2.6,1.3,7.1,3.4,7.7,2.5C215.6,272.7,212.4,267.7,207.4,263.5z"/>
		<path class="st11" d="M296.4,254.5c-3.1-2.6-6.2-4.4-8.5-4.9c-1.8-1-6.5,1.2-11.1,5.4c-5.1,4.6-8.1,9.7-6.9,11.5
			c0.6,0.9,5.4-1.6,8-3c8.7-5.9,16.7-0.9,17.7-0.4c2.6,1.3,7.1,3.4,7.7,2.5C304.6,263.7,301.4,258.7,296.4,254.5z"/>
		<path class="st2" d="M339.4,263.5c-3.1-2.6-6.2-4.4-8.5-4.9c-1.8-1-6.5,1.2-11.1,5.4c-5.1,4.6-8.1,9.7-6.9,11.5
			c0.6,0.9,5.4-1.6,8-3c8.7-5.9,16.7-0.9,17.7-0.4c2.6,1.3,7.1,3.4,7.7,2.5C347.6,272.7,344.4,267.7,339.4,263.5z"/>
		<path class="st12" d="M256.6,291.4c0,0-10.4,8.4-8.7,13c0,0,0.4,1.1,7-2.5"/>
		<path class="st13" d="M379,93.8c0,0-13.2,1.2-13.8,1.9c-36.5-8.6-68.5,0.2-68.5,0.2c-55.9-11.1-90.8,1.4-90.8,1.4s-9.4-6.5-30.3,0
			c0.5,0.4,1.1,0.7,1.6,1.1c6.2,3.9,15.5,8,29,9.8c0,0,54.1-2.9,70.6,9.2c0,0,20.2-12.1,85-8.4c3.2-1.7,7-3.4,11.3-4.9
			c6.5-2.3,12.3-3.4,18.2-4.5c9.2-1.7,11.9-1.6,11.9-2.3C403.8,94.8,379.5,93,379,93.8z"/>
		<path class="st14" d="M276.9,117.3c0-8.2,1.3-16.2,3.7-24.2"/>
		<path class="st14" d="M356.5,93.9c0,0,5.4,5.6,5.5,15"/>
		<path class="st15" d="M193.9,94.7c0,0-8.9,35.1-3.9,47.2c2,4.7,3.9,4.2,3.9,4.2s5,0.8,7,3.1"/>
		<path class="st15" d="M215.2,145.2c1.7-1,4.2-2,5.2-2.9s1.8-4.1,1.8-6.5c-0.2-17.1-4.7-31.9-7.5-40.2"/>
		
			<ellipse transform="matrix(0.7555 -0.6551 0.6551 0.7555 -108.5178 296.7886)" class="st2" cx="343.4" cy="293.8" rx="39.7" ry="76.5"/>
		<path class="st11" d="M388.4,361.2c-2.7-1.3-8.4-2.9-16.4-4.3c-43.1-7.4-81.5-51.7-86.7-94.7c-1.5-12.1,1.2-19.5,5.4-24.6
			c3.1-3.8,16.6-17.3,80.8,14.3l0,0"/>
		<path class="st16" d="M193.9,94.7"/>
		<path class="st1" d="M291.7,236.6c2.5,13.9,7.2,31.9,16.8,51.3c16.7,33.7,39.7,54.9,54.2,66.3c-8.7-0.5-49.7-21.8-67.2-60.2
			c-4-8.7-10.6-21-10-36.6C285.9,248.2,289.3,241,291.7,236.6z"/>
		<path class="st17" d="M279.6,240.9c0.2-1.4,10.7-8.6,11.8-4.2C292.5,241.1,279.5,242.3,279.6,240.9z"/>
		<path class="st18" d="M288.2,217.8c0.6-0.3-1.5,1-1.9,4.8c2.7-2,5.1-1.7,7.3,0c-0.1-4.1-2.8-4.6-2.8-4.6L288.2,217.8z"/>
		<g>
			<path class="st19" d="M286.4,222.5c-1.5,5.7,3.7,29.8-6.9,31.8c-5.1-0.3-6.9-5.7-6.2-10.5c0.3-1.8-2.2-3.2-3.8-3.1
				c-1.5,0.1-3.5,1.4-3.5,3v8.2c2,5.2,7,10.1,12.3,10.2s10.2-4.6,13.3-11.2c2-4.2,1.5-18.4,1.9-28.5
				C293.5,222.5,290.3,218.5,286.4,222.5z"/>
			<g>
				<path class="st6" d="M286.2,222.4c-0.8,3.2-0.2,6.9-0.1,10.2c0.2,4.7,0.3,9.5-0.7,14.1c-0.5,2-1.2,4.2-2.7,5.7
					c-2.5,2.5-6.1,1.7-7.9-1.2c-0.9-1.4-1.2-3.1-1.3-4.8c-0.1-1.2,0.4-2.6,0-3.7c-0.6-1.4-2.3-2.3-3.7-2.2c-4.3,0.3-3.4,5.2-3.4,8.2
					c0,1.4-0.2,2.8,0.3,4.2c1,2.7,3.1,5.4,5.4,7.1c9.3,7.2,19.6-3.3,21-12.7c1-7,0.6-14.3,0.8-21.4c0-2.2,0.6-3.4-1.3-4.6
					c-2.2-1.4-4.4-0.5-6.2,1.1c-0.2,0.2,0.1,0.6,0.4,0.4c1.9-1.7,6.1-2.6,6.7,0.5c0.3,1.4-0.1,3.1-0.1,4.5c0,1.6,0,3.1,0,4.7
					c-0.1,5.3,0.2,11-0.9,16.2c-1,4.9-5.1,10.3-9.7,12.4c-3,1.4-6.3,1-9.1-0.7c-2.6-1.6-6.1-5.2-6.7-8.4c-0.2-1.2,0-2.7,0-3.8
					c0-1.4-0.2-3,0-4.3c0.5-2.6,3.7-3.9,5.6-1.8c1.2,1.3,0.5,3.4,0.7,5.1c0.2,1.8,0.7,3.6,1.8,5.1c1.9,2.5,5.1,3.2,7.6,1.2
					c2.3-1.8,3.2-4.9,3.7-7.6c0.7-4.1,0.6-8.4,0.5-12.5c-0.1-3.4-0.7-7.2,0.1-10.6C286.7,222.3,286.3,222.1,286.2,222.4z"/>
			</g>
		</g>
		<path class="st17" d="M280,234.7c1.2-0.7,15.9,2.1,19.1,5.4c0.6,0.6,0.1,2.3-0.2,2.4C295,244.6,278.7,235.4,280,234.7z"/>
		<path class="st17" d="M280.3,234c1.1-0.8,15.6-0.2,19.5,2.5c0.8,0.5,0.2,2.7-0.5,2.9C294.5,240.9,279.2,234.9,280.3,234z"/>
		<path class="st17" d="M277.6,246.1c1.1-1,17.2,0.4,15.3,4.6C291,254.8,276.4,247,277.6,246.1z"/>
		<path class="st17" d="M276.2,245.4c0.9-1,14.6-3.1,19.3-1.4c1.1,0.4,1.3,2.3,1.2,2.5C293.9,249.9,275.1,246.5,276.2,245.4z"/>
		<path class="st20" d="M275.4,150.3"/>
		<path class="st21" d="M231.2,136.2"/>
		<g>
			<g>
				<path class="st6" d="M421.2,169.8c-21.9,5.2-43.8,10.4-65.7,15.7c-3.1,0.7-6.2,1.5-9.3,2.2c-1.3,0.3-0.7,2.2,0.5,1.9
					c21.9-5.2,43.8-10.4,65.7-15.7c3.1-0.7,6.2-1.5,9.3-2.2C423,171.4,422.5,169.5,421.2,169.8L421.2,169.8z"/>
			</g>
		</g>
		<g>
			<g>
				<path class="st6" d="M430.2,184.7c-22.4,3-44.7,6-67.1,9c-3.2,0.4-6.3,0.8-9.5,1.3c-1.3,0.2-1.3,2.2,0,2c22.4-3,44.7-6,67.1-9
					c3.2-0.4,6.3-0.8,9.5-1.3C431.4,186.5,431.4,184.5,430.2,184.7L430.2,184.7z"/>
			</g>
		</g>
		<g>
			<g>
				<path class="st6" d="M429.9,203.8c-22.6,0-45.2,0-67.7,0c-3.2,0-6.4,0-9.6,0c-1.3,0-1.3,2,0,2c22.6,0,45.2,0,67.7,0
					c3.2,0,6.4,0,9.6,0C431.2,205.8,431.2,203.8,429.9,203.8L429.9,203.8z"/>
			</g>
		</g>
		<g>
			<g>
				<path class="st6" d="M105,172.6c21.9,5.2,43.8,10.4,65.7,15.7c3.1,0.7,6.2,1.5,9.3,2.2c1.3,0.3,1.8-1.6,0.5-1.9
					c-21.9-5.2-43.8-10.4-65.7-15.7c-3.1-0.7-6.2-1.5-9.3-2.2C104.2,170.4,103.7,172.3,105,172.6L105,172.6z"/>
			</g>
		</g>
		<g>
			<g>
				<path class="st6" d="M96.5,187.5c22.4,3,44.7,6,67.1,9c3.2,0.4,6.3,0.8,9.5,1.3c1.3,0.2,1.3-1.8,0-2c-22.4-3-44.7-6-67.1-9
					c-3.2-0.4-6.3-0.8-9.5-1.3C95.3,185.3,95.3,187.3,96.5,187.5L96.5,187.5z"/>
			</g>
		</g>
		<g>
			<g>
				<path class="st6" d="M96.8,206.7c22.6,0,45.2,0,67.7,0c3.2,0,6.4,0,9.6,0c1.3,0,1.3-2,0-2c-22.6,0-45.2,0-67.7,0
					c-3.2,0-6.4,0-9.6,0C95.5,204.7,95.5,206.7,96.8,206.7L96.8,206.7z"/>
			</g>
		</g>
		<path class="st22" d="M337.2,92.6c7.4,27,8.2,48.3,3.6,53.1c-1.2,1.1-2.9,1.3-2.9,1.3c-1.3,0.4-1.9,0.5-2.8,0.7
			c-1.1,0.3-2.6,0.9-4.2,2.4"/>
		<path class="st22" d="M318.6,92.6c0,0-12.3,36.4-8.3,48.7c0,0,0.6,1.5,1.7,2.1s3.9,1.8,4.9,3.2"/>
		<path class="st23" d="M203.3,75.8c-8-0.1-20.5,67.1-9.9,69.6c1.1,0.3,2.1,0.5,2.9,0.7c2.1,0.6,4.7,1.7,5.4,3.4l-0.6,0.4l0.7-0.1
			c0,0,0,0.1,0,0.1l0,0l0.1,0.5l-0.8,0.6l0.9-0.1l0.1,0.7l-0.9,0.7l1-0.2l0.1,0.7l-1,0.9l1.1-0.3l0.1,0.6l-1.1,1.1l1.2-0.4l0.1,0.4
			l-1.2,1.2l1.3-0.5l1.3,6.4l10.8-5.9l-1.6-6.9l0.2-0.1l-0.2,0l-0.1-0.4l0.5-0.3l-0.5,0.1l-0.1-0.3l0.7-0.3l-0.8,0.1l-0.1-0.3
			c0,0,0-0.1,0-0.1l1-0.4l-0.9,0c0.1-0.2,0.2-0.5,0.5-0.9l0.4-0.2l-0.3,0c0.8-0.9,2.4-2.2,5.5-3.8C228,138.2,211.3,75.9,203.3,75.8z
			"/>
		<path class="st23" d="M328.8,76.8c8-0.1,20.5,67.1,9.9,69.6c-1.1,0.3-2.1,0.5-2.9,0.7c-2.1,0.6-4.7,1.7-5.4,3.4l0.6,0.4l-0.7-0.1
			c0,0,0,0.1,0,0.1l0,0l-0.1,0.5l0.8,0.6l-0.9-0.1l-0.1,0.7l0.9,0.7l-1-0.2l-0.1,0.7l1,0.9l-1.1-0.3l-0.1,0.6l1.1,1.1l-1.2-0.4
			l-0.1,0.4l1.2,1.2l-1.3-0.5l-1.3,6.4l-10.8-5.9l1.6-6.9l-0.2-0.1l0.2,0l0.1-0.4l-0.5-0.3l0.5,0.1l0.1-0.3l-0.7-0.3l0.8,0.1
			l0.1-0.3c0,0,0-0.1,0-0.1l-1-0.4l0.9,0c-0.1-0.2-0.2-0.5-0.5-0.9l-0.4-0.2l0.3,0c-0.8-0.9-2.4-2.2-5.5-3.8
			C304,139.2,320.7,76.9,328.8,76.8z"/>
		<path class="st1" d="M197.5,147c0,0-4.3-8.4-3.5-24.6c0,0-1.3,16.2,0.7,23.9"/>
		<path class="st1" d="M201.8,75.8c0,0-4,3-7.8,18.9c-0.4,1.6-0.8,3.4-1.2,5.4c-4.1,20.6-4.8,35.1-2.7,41.8c0,0,0.9,4.1,4.6,4.3
			C194.7,146.2,190.2,114.1,201.8,75.8z"/>
		<path class="st24" d="M318.6,92.6c3.6-0.2,7.5-0.3,11.5-0.2c2.4,0,4.8,0.1,7,0.3c0.7,2.3,1.3,4.7,2,7.2c0.4,1.7,0.8,3.3,1.1,4.9
			c-2.5-1.3-5.5-2.6-8.9-3.7c-5.6-1.8-10.6-2.4-14.5-2.6C317.4,96.4,318,94.5,318.6,92.6z"/>
		<path class="st24" d="M214.6,95.6c-3.1,0.5-6,1.2-8.7,2.1l0,0c-4.9-3.2-12-3-12-3c-0.6,2.7-1.2,5.5-1.8,8.5
			c-0.5,2.5-0.9,5-1.3,7.4c2.3-2,6-4.6,11.1-6.6c5.9-2.3,11.2-2.7,14.5-2.6C215.8,99.4,215.2,97.5,214.6,95.6z"/>
		<path class="st21" d="M291,160.3c-8.7-0.7-15.6-10-15.6-10c-8.3-3.8-19.1,11.7-31.8,5.6c-2.9-1.4-4.7-3.5-5.1-4
			c-4-5.1-1.9-11-5.7-13.2c-1.7-1-3.4-0.6-3.4-0.8c0-0.3,7.1-1.2,40.7-3.3"/>
		<path class="st21" d="M271.5,144.2c0.2,0.7,0.4,1.4,0.6,2c3,8.4,10.7,14.1,18.9,14.2c10.6,0.1,20.2-9.2,20.3-21.2
			c0,0-10.8-7.1-22.8-6.1s-9.5,2.8-18.2,1.6c-6.9-0.9-12.6-1.4-17.5-1.6c-0.3,0-0.7,0-1,0c-9.6-0.2-23.5,2.3-25,8.7
			c-0.1,0.4-0.2,1-0.1,1.9c0.5-0.1,1.2-0.3,2.1-0.4c0.7-0.1,1.7-0.3,2.8-0.4c1-0.1,2.3-0.1,3.8,0c-0.5-2.7-2.2-4.6-4.1-4.8
			c-0.4,0-1.2-0.1-2.3,0.5"/>
		<path class="st21" d="M268.3,134.9c0,0,2.4-0.8,2.4-11.7c0,0,0-0.3,0.2-0.6s0.3-0.5,0.7-0.3c0.7,0.4-0.4,11.9,0,12.6
			c0.4,0.7,1,1.5,1,1.5"/>
		<path class="st25" d="M226.8,143.4c0-0.6,0-2,0.9-3.5c0.5-0.9,1.2-1.4,1.7-1.7c0.5-0.1,1.4-0.3,2.4,0.1c1.7,0.6,2.9,2.2,3.2,4.2
			c-1.2,0-2.5,0-3.9,0.2C229.5,142.9,228,143.1,226.8,143.4z"/>
		<path class="st21" d="M270.2,136.2"/>
		<path class="st21" d="M270.2,136.2"/>
		<path class="st26" d="M253.6,174.2c-0.7-4.7,28.1-6.1,27.6,0.5C280.9,180.1,254.4,178.9,253.6,174.2z"/>
		<path class="st27" d="M257.4,176.8c-1.1-0.7-0.6-1-0.6-1.6c0.4-5.3,26.2-3,24.8,0c-1.4,3-6,2.2-7.7,3.2c-1.5,0.9-2.4,1.6-4.1,1.7
			c-2.1,0.2-2.4-1.1-5.3-1.6C260.9,177.8,258.6,177.5,257.4,176.8z"/>
		<path class="st5" d="M189.5,200.1c0.2-2.5,12.9-4.6,38.3-8.6c7.4-1.2,17.5-2.6,30.6-2.8c2.9,0,5.5,0,7.9,0.1
			c16.4,0.5,29.8,2.2,38.2,3.3c26.8,3.7,40.1,5.6,40.3,7.4c0.5,5.9-38.2,19.9-80,19.6C225.7,218.9,189.1,206.1,189.5,200.1z"/>
		<path class="st28" d="M283.7,218.3c0,0,2.6-12.2,12.9-27.3c0,0-34.7-5.9-68.9,0.4c-34.2,6.2-39.5,6.4-38.3,8.6
			c1.2,2.2,0.9,7.3,37.1,15.1C262.8,223,283.7,218.3,283.7,218.3z"/>
		<line class="st29" x1="205.1" y1="195.2" x2="204.3" y2="209.2"/>
		<line class="st29" x1="237.1" y1="189.2" x2="236.3" y2="217.4"/>
		<line class="st29" x1="269.1" y1="188.8" x2="268.3" y2="219.1"/>
		<line class="st29" x1="327.3" y1="195.2" x2="328.1" y2="209.6"/>
		<line class="st29" x1="299.3" y1="191.3" x2="300.1" y2="216.7"/>
		<path class="st5" d="M220.1,171.9c0.4,6-4.6,11.3-11,11.7c-6.4,0.4-11.9-4.2-12.3-10.2c-0.4-6,4.6-11.3,11-11.7
			C214.3,161.3,219.8,165.9,220.1,171.9z"/>
		<path class="st5" d="M310.9,171.9c-0.4,6,4.6,11.3,11,11.7c6.4,0.4,11.9-4.2,12.3-10.2s-4.6-11.3-11-11.7
			C316.7,161.3,311.2,165.9,310.9,171.9z"/>
		<circle class="st6" cx="321" cy="171.9" r="5.3"/>
		<ellipse class="st5" cx="321.3" cy="170.2" rx="1.4" ry="1.4"/>
		<ellipse class="st5" cx="321.9" cy="173" rx="0.8" ry="0.8"/>
		<circle class="st6" cx="210.4" cy="171.9" r="5.3"/>
		<ellipse class="st5" cx="210.7" cy="170.2" rx="1.4" ry="1.4"/>
		<ellipse class="st5" cx="211.3" cy="173.1" rx="0.8" ry="0.8"/>
		<path class="st30" d="M175.7,97.3c0,0,19.6-6.6,30.3,0c0,0,40.6-12.4,90.8-1.4c0,0,30.5-8.5,68.5-0.2c0,0,19.1-5.1,38,1.4
			c0,0-9.6-43-113.8-43S175.7,97.3,175.7,97.3z"/>
		<path class="st31" d="M346.8,92.6c-33.3-5.3-51-24.4-51-24.4c-18.2,2.9-34.6-9.6-37.8-12.3c-0.4-0.3-1.3-0.2-2.8,0.1
			c-11.9,1.9-67.4,8.3-79.5,41.3c0,0,18.7-6.6,30.3,0c0,0,37.5-12.4,90.8-1.4C311.2,92.1,328.1,91.2,346.8,92.6z"/>
		<path class="st14" d="M229.3,60.1c0,0-19.3,7.6-22.2,32.6"/>
		<path class="st30" d="M289,48c-0.6,2-1.2,4-1.8,6c1.3,0,2.6,0,3.9-0.1C290.4,52,289.7,50,289,48z"/>
		<path class="st14" d="M292.2,56.2c0,0,4.9,6.5,4.9,32.4"/>
		<path class="st32" d="M351.9,61.5c0,0,11.4,12.8,13.3,25.8"/>
		<g>
			<polygon class="st31" points="290.4,95.5 291,218 288,218 288,95.3 288,94.4 			"/>
			<g>
				<path class="st6" d="M290.4,95.3c0,14.3,0.1,28.6,0.1,42.9c0.1,22.1,0.1,44.3,0.2,66.4c0,3.1,0,6.2,0,9.3c0,0.7,0.4,2.9,0,3.6
					c0.3-0.5-2.3-0.4-2,0c0-0.1,0-0.3,0-0.3c-0.2-0.6,0-1.4,0-2c0-2.7,0-5.4,0-8.1c0-21.7,0-43.4,0-65c0-10.5,0-21,0-31.5
					c0-3.4,0-6.8,0-10.2c0-1.6,0.2-3.3,0-4.9c0-0.1,0-0.3,0-0.4c0.1-0.6-0.4-0.4,0.4-0.1c0.5,0.2,1,0.4,1.5,0.6
					c0.3,0.1,0.4-0.4,0.1-0.5c-0.7-0.3-1.5-0.6-2.2-0.9c-0.2-0.1-0.3,0.1-0.3,0.2c0,13.8,0,27.6,0,41.4c0,22.2,0,44.3,0,66.5
					c0,5.1,0,10.2,0,15.2c0,0.1,0.1,0.2,0.2,0.2c0.8,0,1.7,0,2.5,0c0.1,0,0.3-0.1,0.2-0.2c0-13.7-0.1-27.5-0.1-41.2
					c-0.1-22-0.1-44-0.2-66c0-5,0-10,0-15.1C290.9,95,290.4,95,290.4,95.3z"/>
			</g>
		</g>
		<path class="st14" d="M300.8,157.1"/>
		<path class="st14" d="M248.3,157.1"/>
	</g>
</g>
<g id="Layer_8">
	<path class="st26" d="M625.6,187.2c-0.7-4.7,28.1-6.1,27.6,0.5C652.9,193.1,626.4,191.9,625.6,187.2z"/>
</g>
<g id="Layer_7">
	<path class="st27" d="M629.4,189.8c-1.1-0.7-0.6-1-0.6-1.6c0.4-5.3,26.2-3,24.8,0s-6,2.2-7.7,3.2c-1.5,0.9-2.4,1.6-4.1,1.7
		c-2.1,0.2-2.4-1.1-5.3-1.6C632.9,190.8,630.6,190.5,629.4,189.8z"/>
</g>
</svg>
