<svg xmlns="http://www.w3.org/2000/svg" viewBox="7687.4 3311 46 46">
  <defs>
    <style>
      .cls-1 {
        fill: #959595;
      }
    </style>
  </defs>
  <path id="path-4" class="cls-1" d="M38.841,0H7.159A7.151,7.151,0,0,0,0,7.159V38.841A7.151,7.151,0,0,0,7.159,46H38.841S46,42.8,46,38.841V7.159A7.151,7.151,0,0,0,38.841,0ZM36.632,16.146v.914c0,9.368-7.159,20.182-20.182,20.182a19.851,19.851,0,0,1-10.891-3.2,12.34,12.34,0,0,0,1.675.076,13.888,13.888,0,0,0,8.758-3.046,7.14,7.14,0,0,1-6.626-4.95,7.5,7.5,0,0,0,1.295.152,7.069,7.069,0,0,0,1.828-.228,7.173,7.173,0,0,1-5.712-6.93V19.04a7.756,7.756,0,0,0,3.2.914,7.05,7.05,0,0,1-3.123-5.864,7.214,7.214,0,0,1,.99-3.579A20.17,20.17,0,0,0,22.467,17.9a5.7,5.7,0,0,1-.152-1.6,7.111,7.111,0,0,1,12.262-4.874A13.483,13.483,0,0,0,39.07,9.672a6.923,6.923,0,0,1-3.123,3.884,11.778,11.778,0,0,0,4.036-1.142A11.194,11.194,0,0,1,36.632,16.146Z" transform="translate(7687.4 3311)"/>
</svg>
